<svg xmlns="http://www.w3.org/2000/svg" viewBox="0 0 800 400" width="800" height="400"><defs><filter id="blur8" x="-50%" y="-50%" width="200%" height="200%"><feGaussianBlur stdDeviation="8"/></filter><filter id="blur20" x="-50%" y="-50%" width="200%" height="200%"><feGaussianBlur stdDeviation="20"/></filter><filter id="blur40" x="-50%" y="-50%" width="200%" height="200%"><feGaussianBlur stdDeviation="40"/></filter><filter id="blur3" x="-50%" y="-50%" width="200%" height="200%"><feGaussianBlur stdDeviation="3"/></filter><filter id="grain" x="0" y="0" width="100%" height="100%"><feTurbulence type="fractalNoise" baseFrequency=".9" numOctaves="2" stitchTiles="stitch"/><feColorMatrix values="0 0 0 0 0  0 0 0 0 0  0 0 0 0 0  0 0 0 .06 0"/></filter><filter id="g1" x="0" y="0" width="100%" height="100%"><feTurbulence type="fractalNoise" baseFrequency=".06" numOctaves="4" seed="3"/><feColorMatrix values="0 0 0 0 .25  0 0 0 0 .25  0 0 0 0 .26  0 0 0 -9 4.2"/></filter><filter id="g2" x="0" y="0" width="100%" height="100%"><feTurbulence type="fractalNoise" baseFrequency=".9" numOctaves="2" seed="8"/><feColorMatrix values="0 0 0 0 .3  0 0 0 0 .3  0 0 0 0 .3  0 0 0 -7 3.6"/></filter><linearGradient id="l1" x1="0.500" y1="0.000" x2="0.500" y2="1.000"><stop offset="0.0" stop-color="#f1f1ee" stop-opacity="1"/><stop offset="0.5" stop-color="#d6d6d2" stop-opacity="1"/><stop offset="1.0" stop-color="#ebebe7" stop-opacity="1"/></linearGradient></defs><rect width="800" height="400" fill="url(#l1)"/><rect width="800" height="400" filter="url(#g1)" opacity=".85"/><rect width="800" height="400" filter="url(#g2)" opacity=".9"/><path d="M254,73 l39,-7" stroke="#55565a" stroke-width="1.3" opacity=".6"/><path d="M304,245 l79,-4" stroke="#55565a" stroke-width="1.9" opacity=".6"/><path d="M1,162 l48,-1" stroke="#55565a" stroke-width="0.8" opacity=".6"/><path d="M665,150 l24,2" stroke="#55565a" stroke-width="0.7" opacity=".6"/><path d="M436,136 l78,7" stroke="#55565a" stroke-width="1.7" opacity=".6"/><path d="M335,325 l84,-2" stroke="#55565a" stroke-width="0.8" opacity=".6"/><path d="M477,226 l116,7" stroke="#55565a" stroke-width="1.5" opacity=".6"/><path d="M281,357 l20,-6" stroke="#55565a" stroke-width="1.4" opacity=".6"/><path d="M492,56 l83,6" stroke="#55565a" stroke-width="1.1" opacity=".6"/><path d="M345,91 l49,8" stroke="#55565a" stroke-width="1.1" opacity=".6"/><path d="M769,365 l80,-4" stroke="#55565a" stroke-width="2.0" opacity=".6"/><path d="M397,166 l52,8" stroke="#55565a" stroke-width="1.3" opacity=".6"/><path d="M229,191 l32,2" stroke="#55565a" stroke-width="1.2" opacity=".6"/><path d="M234,313 l103,-8" stroke="#55565a" stroke-width="1.3" opacity=".6"/><path d="M219,374 l98,-4" stroke="#55565a" stroke-width="1.0" opacity=".6"/><path d="M124,396 l49,2" stroke="#55565a" stroke-width="1.3" opacity=".6"/><path d="M516,242 l94,-6" stroke="#55565a" stroke-width="1.7" opacity=".6"/><path d="M241,213 l54,-3" stroke="#55565a" stroke-width="1.3" opacity=".6"/><path d="M371,144 l95,1" stroke="#55565a" stroke-width="0.7" opacity=".6"/><path d="M202,182 l112,6" stroke="#55565a" stroke-width="1.4" opacity=".6"/><path d="M12,311 l63,1" stroke="#55565a" stroke-width="1.6" opacity=".6"/><path d="M506,193 l111,-2" stroke="#55565a" stroke-width="1.1" opacity=".6"/><path d="M682,79 l50,5" stroke="#55565a" stroke-width="0.7" opacity=".6"/><path d="M669,278 l63,-3" stroke="#55565a" stroke-width="1.7" opacity=".6"/><path d="M729,57 l68,1" stroke="#55565a" stroke-width="1.3" opacity=".6"/><path d="M265,61 l79,5" stroke="#55565a" stroke-width="0.7" opacity=".6"/><path d="M184,328 l99,3" stroke="#55565a" stroke-width="0.6" opacity=".6"/><path d="M578,391 l120,3" stroke="#55565a" stroke-width="0.7" opacity=".6"/><path d="M674,88 l85,7" stroke="#55565a" stroke-width="1.6" opacity=".6"/><path d="M108,117 l112,-6" stroke="#55565a" stroke-width="1.5" opacity=".6"/></svg>