<svg xmlns="http://www.w3.org/2000/svg" viewBox="0 0 600 500" width="600" height="500"><defs><filter id="blur8" x="-50%" y="-50%" width="200%" height="200%"><feGaussianBlur stdDeviation="8"/></filter><filter id="blur20" x="-50%" y="-50%" width="200%" height="200%"><feGaussianBlur stdDeviation="20"/></filter><filter id="blur40" x="-50%" y="-50%" width="200%" height="200%"><feGaussianBlur stdDeviation="40"/></filter><filter id="blur3" x="-50%" y="-50%" width="200%" height="200%"><feGaussianBlur stdDeviation="3"/></filter><filter id="grain" x="0" y="0" width="100%" height="100%"><feTurbulence type="fractalNoise" baseFrequency=".9" numOctaves="2" stitchTiles="stitch"/><feColorMatrix values="0 0 0 0 0  0 0 0 0 0  0 0 0 0 0  0 0 0 .06 0"/></filter><linearGradient id="l1" x1="0.500" y1="0.000" x2="0.500" y2="1.000"><stop offset="0.0" stop-color="#fbeaea" stop-opacity="1"/><stop offset="1.0" stop-color="#f4d1d3" stop-opacity="1"/></linearGradient><radialGradient id="r2" cx="0.5" cy="0.5" r="0.5"><stop offset="0" stop-color="#ffffff" stop-opacity="0.75"/><stop offset="1" stop-color="#ffffff" stop-opacity="0"/></radialGradient><linearGradient id="l3" x1="0.500" y1="0.000" x2="0.500" y2="1.000"><stop offset="0.0" stop-color="#f7dfe0" stop-opacity="1"/><stop offset="1.0" stop-color="#efcdcf" stop-opacity="1"/></linearGradient><linearGradient id="l4" x1="0.000" y1="0.500" x2="1.000" y2="0.500"><stop offset="0" stop-color="#fffaf7" stop-opacity="0.55"/><stop offset="0.55" stop-color="#ffffff" stop-opacity="1"/><stop offset="1" stop-color="#f5f0ed" stop-opacity="1"/></linearGradient><radialGradient id="r5" cx="0.5" cy="0.2" r="0.9"><stop offset="0" stop-color="#f7b9c4" stop-opacity="1"/><stop offset="0.55" stop-color="#f17f93" stop-opacity="1"/><stop offset="1" stop-color="#ae5b6a" stop-opacity="1"/></radialGradient><radialGradient id="r6" cx="0.5" cy="0.2" r="0.9"><stop offset="0" stop-color="#f7b9c4" stop-opacity="1"/><stop offset="0.55" stop-color="#f17f93" stop-opacity="1"/><stop offset="1" stop-color="#ae5b6a" stop-opacity="1"/></radialGradient><radialGradient id="r7" cx="0.5" cy="0.2" r="0.9"><stop offset="0" stop-color="#f7b9c4" stop-opacity="1"/><stop offset="0.55" stop-color="#f17f93" stop-opacity="1"/><stop offset="1" stop-color="#ae5b6a" stop-opacity="1"/></radialGradient><radialGradient id="r8" cx="0.5" cy="0.2" r="0.9"><stop offset="0" stop-color="#f7b9c4" stop-opacity="1"/><stop offset="0.55" stop-color="#f17f93" stop-opacity="1"/><stop offset="1" stop-color="#ae5b6a" stop-opacity="1"/></radialGradient><radialGradient id="r9" cx="0.5" cy="0.2" r="0.9"><stop offset="0" stop-color="#f7b9c4" stop-opacity="1"/><stop offset="0.55" stop-color="#f17f93" stop-opacity="1"/><stop offset="1" stop-color="#ae5b6a" stop-opacity="1"/></radialGradient><linearGradient id="l10" x1="0.329" y1="0.030" x2="0.671" y2="0.970"><stop offset="0.0" stop-color="#a4ba97" stop-opacity="1"/><stop offset="0.5" stop-color="#7d9c6a" stop-opacity="1"/><stop offset="1.0" stop-color="#516545" stop-opacity="1"/></linearGradient><linearGradient id="l11" x1="0.000" y1="0.500" x2="1.000" y2="0.500"><stop offset="0.0" stop-color="#ab757d" stop-opacity="1"/><stop offset="0.2" stop-color="#e099a3" stop-opacity="1"/><stop offset="0.4" stop-color="#f4c6cc" stop-opacity="1"/><stop offset="0.6" stop-color="#f0aeb7" stop-opacity="1"/><stop offset="0.8" stop-color="#eea3ad" stop-opacity="1"/><stop offset="1.0" stop-color="#a77279" stop-opacity="1"/></linearGradient><linearGradient id="l12" x1="0.500" y1="0.000" x2="0.500" y2="1.000"><stop offset="0" stop-color="#ffffff" stop-opacity="0"/><stop offset="0.25" stop-color="#ffffff" stop-opacity="0.55"/><stop offset="0.8" stop-color="#ffffff" stop-opacity="0.33"/><stop offset="1" stop-color="#ffffff" stop-opacity="0"/></linearGradient><linearGradient id="l13" x1="0.000" y1="0.500" x2="1.000" y2="0.500"><stop offset="0.0" stop-color="#9e6656" stop-opacity="1"/><stop offset="0.2" stop-color="#d9a593" stop-opacity="1"/><stop offset="0.4" stop-color="#fbe4da" stop-opacity="1"/><stop offset="0.6" stop-color="#e3b19f" stop-opacity="1"/><stop offset="0.8" stop-color="#a86e5d" stop-opacity="1"/><stop offset="1.0" stop-color="#c99282" stop-opacity="1"/></linearGradient><linearGradient id="l14" x1="0.000" y1="0.500" x2="1.000" y2="0.500"><stop offset="0.0" stop-color="#e7d2c9" stop-opacity="1"/><stop offset="0.5" stop-color="#fbe4da" stop-opacity="1"/><stop offset="1.0" stop-color="#d5c2b9" stop-opacity="1"/></linearGradient><linearGradient id="l15" x1="0.500" y1="0.000" x2="0.500" y2="1.000"><stop offset="0" stop-color="#ffffff" stop-opacity="0"/><stop offset="0.25" stop-color="#ffffff" stop-opacity="0.7"/><stop offset="0.8" stop-color="#ffffff" stop-opacity="0.42"/><stop offset="1" stop-color="#ffffff" stop-opacity="0"/></linearGradient></defs><rect width="600" height="500" fill="url(#l1)"/><circle cx="270.0" cy="175.0" r="300.0" fill="url(#r2)"/><rect x="0" y="370.0" width="600" height="130.0" fill="url(#l3)"/><rect x="0" y="370.0" width="600" height="3" fill="#fff" opacity=".6"/><g transform="rotate(-30 470 200)"><path d="M370.0,209.0 C410.0,159.5 520.0,150.5 543.0,164.0 C579.0,173.0 574.5,231.5 538.5,236.0 C510.0,240.5 420.0,227.0 370.0,209.0Z" fill="url(#l4)"/><path d="M420.0,186.5 Q490.0,171.2 534.0,182.0" fill="none" stroke="#e6e1de" stroke-width="3.6" opacity=".55" stroke-linecap="round"/><path d="M420.0,204.5 Q490.0,189.2 534.0,200.0" fill="none" stroke="#e6e1de" stroke-width="3.6" opacity=".55" stroke-linecap="round"/><path d="M420.0,222.5 Q490.0,207.2 534.0,218.0" fill="none" stroke="#e6e1de" stroke-width="3.6" opacity=".55" stroke-linecap="round"/><path d="M543.0,173.0 C570.0,191.0 570.0,213.5 538.5,227.0" fill="none" stroke="#dbd7d4" stroke-width="5.4" opacity=".6"/></g><g transform="translate(95 360) scale(1 0.82)"><path d="M-43.4,0 C-43.4,-47.3 43.4,-47.3 43.4,0 C26.0,32.8 -26.0,32.8 -43.4,0Z" transform="translate(26.6 -1.0) rotate(88)" fill="url(#r5)" stroke="#ae5b6a" stroke-opacity=".22" stroke-width=".8"/><path d="M-34.7,-25.5 C-13.0,-38.2 13.0,-38.2 34.7,-25.5" transform="translate(26.6 -1.0) rotate(88)" fill="none" stroke="#fff" stroke-opacity=".35" stroke-width="2.1"/><path d="M-43.4,0 C-43.4,-47.3 43.4,-47.3 43.4,0 C26.0,32.8 -26.0,32.8 -43.4,0Z" transform="translate(18.1 19.5) rotate(137)" fill="url(#r5)" stroke="#ae5b6a" stroke-opacity=".22" stroke-width=".8"/><path d="M-34.7,-25.5 C-13.0,-38.2 13.0,-38.2 34.7,-25.5" transform="translate(18.1 19.5) rotate(137)" fill="none" stroke="#fff" stroke-opacity=".35" stroke-width="2.1"/><path d="M-43.4,0 C-43.4,-47.3 43.4,-47.3 43.4,0 C26.0,32.8 -26.0,32.8 -43.4,0Z" transform="translate(-6.8 25.7) rotate(195)" fill="url(#r5)" stroke="#ae5b6a" stroke-opacity=".22" stroke-width=".8"/><path d="M-34.7,-25.5 C-13.0,-38.2 13.0,-38.2 34.7,-25.5" transform="translate(-6.8 25.7) rotate(195)" fill="none" stroke="#fff" stroke-opacity=".35" stroke-width="2.1"/><path d="M-43.4,0 C-43.4,-47.3 43.4,-47.3 43.4,0 C26.0,32.8 -26.0,32.8 -43.4,0Z" transform="translate(-22.8 13.7) rotate(239)" fill="url(#r5)" stroke="#ae5b6a" stroke-opacity=".22" stroke-width=".8"/><path d="M-34.7,-25.5 C-13.0,-38.2 13.0,-38.2 34.7,-25.5" transform="translate(-22.8 13.7) rotate(239)" fill="none" stroke="#fff" stroke-opacity=".35" stroke-width="2.1"/><path d="M-43.4,0 C-43.4,-47.3 43.4,-47.3 43.4,0 C26.0,32.8 -26.0,32.8 -43.4,0Z" transform="translate(-23.9 -11.7) rotate(296)" fill="url(#r5)" stroke="#ae5b6a" stroke-opacity=".22" stroke-width=".8"/><path d="M-34.7,-25.5 C-13.0,-38.2 13.0,-38.2 34.7,-25.5" transform="translate(-23.9 -11.7) rotate(296)" fill="none" stroke="#fff" stroke-opacity=".35" stroke-width="2.1"/><path d="M-43.4,0 C-43.4,-47.3 43.4,-47.3 43.4,0 C26.0,32.8 -26.0,32.8 -43.4,0Z" transform="translate(-6.7 -25.8) rotate(345)" fill="url(#r5)" stroke="#ae5b6a" stroke-opacity=".22" stroke-width=".8"/><path d="M-34.7,-25.5 C-13.0,-38.2 13.0,-38.2 34.7,-25.5" transform="translate(-6.7 -25.8) rotate(345)" fill="none" stroke="#fff" stroke-opacity=".35" stroke-width="2.1"/><path d="M-43.4,0 C-43.4,-47.3 43.4,-47.3 43.4,0 C26.0,32.8 -26.0,32.8 -43.4,0Z" transform="translate(14.5 -22.3) rotate(393)" fill="url(#r5)" stroke="#ae5b6a" stroke-opacity=".22" stroke-width=".8"/><path d="M-34.7,-25.5 C-13.0,-38.2 13.0,-38.2 34.7,-25.5" transform="translate(14.5 -22.3) rotate(393)" fill="none" stroke="#fff" stroke-opacity=".35" stroke-width="2.1"/><path d="M-35.6,0 C-35.6,-38.8 35.6,-38.8 35.6,0 C21.4,26.9 -21.4,26.9 -35.6,0Z" transform="translate(20.7 6.8) rotate(108)" fill="url(#r6)" stroke="#ae5b6a" stroke-opacity=".22" stroke-width=".8"/><path d="M-28.5,-20.9 C-10.7,-31.3 10.7,-31.3 28.5,-20.9" transform="translate(20.7 6.8) rotate(108)" fill="none" stroke="#fff" stroke-opacity=".35" stroke-width="1.7"/><path d="M-35.6,0 C-35.6,-38.8 35.6,-38.8 35.6,0 C21.4,26.9 -21.4,26.9 -35.6,0Z" transform="translate(7.0 20.7) rotate(161)" fill="url(#r6)" stroke="#ae5b6a" stroke-opacity=".22" stroke-width=".8"/><path d="M-28.5,-20.9 C-10.7,-31.3 10.7,-31.3 28.5,-20.9" transform="translate(7.0 20.7) rotate(161)" fill="none" stroke="#fff" stroke-opacity=".35" stroke-width="1.7"/><path d="M-35.6,0 C-35.6,-38.8 35.6,-38.8 35.6,0 C21.4,26.9 -21.4,26.9 -35.6,0Z" transform="translate(-16.0 14.9) rotate(227)" fill="url(#r6)" stroke="#ae5b6a" stroke-opacity=".22" stroke-width=".8"/><path d="M-28.5,-20.9 C-10.7,-31.3 10.7,-31.3 28.5,-20.9" transform="translate(-16.0 14.9) rotate(227)" fill="none" stroke="#fff" stroke-opacity=".35" stroke-width="1.7"/><path d="M-35.6,0 C-35.6,-38.8 35.6,-38.8 35.6,0 C21.4,26.9 -21.4,26.9 -35.6,0Z" transform="translate(-21.4 -4.5) rotate(282)" fill="url(#r6)" stroke="#ae5b6a" stroke-opacity=".22" stroke-width=".8"/><path d="M-28.5,-20.9 C-10.7,-31.3 10.7,-31.3 28.5,-20.9" transform="translate(-21.4 -4.5) rotate(282)" fill="none" stroke="#fff" stroke-opacity=".35" stroke-width="1.7"/><path d="M-35.6,0 C-35.6,-38.8 35.6,-38.8 35.6,0 C21.4,26.9 -21.4,26.9 -35.6,0Z" transform="translate(-6.7 -20.8) rotate(342)" fill="url(#r6)" stroke="#ae5b6a" stroke-opacity=".22" stroke-width=".8"/><path d="M-28.5,-20.9 C-10.7,-31.3 10.7,-31.3 28.5,-20.9" transform="translate(-6.7 -20.8) rotate(342)" fill="none" stroke="#fff" stroke-opacity=".35" stroke-width="1.7"/><path d="M-35.6,0 C-35.6,-38.8 35.6,-38.8 35.6,0 C21.4,26.9 -21.4,26.9 -35.6,0Z" transform="translate(15.9 -14.9) rotate(407)" fill="url(#r6)" stroke="#ae5b6a" stroke-opacity=".22" stroke-width=".8"/><path d="M-28.5,-20.9 C-10.7,-31.3 10.7,-31.3 28.5,-20.9" transform="translate(15.9 -14.9) rotate(407)" fill="none" stroke="#fff" stroke-opacity=".35" stroke-width="1.7"/><path d="M-27.8,0 C-27.8,-30.3 27.8,-30.3 27.8,0 C16.7,21.0 -16.7,21.0 -27.8,0Z" transform="translate(12.9 11.1) rotate(131)" fill="url(#r7)" stroke="#ae5b6a" stroke-opacity=".22" stroke-width=".8"/><path d="M-22.2,-16.3 C-8.3,-24.5 8.3,-24.5 22.2,-16.3" transform="translate(12.9 11.1) rotate(131)" fill="none" stroke="#fff" stroke-opacity=".35" stroke-width="1.3"/><path d="M-27.8,0 C-27.8,-30.3 27.8,-30.3 27.8,0 C16.7,21.0 -16.7,21.0 -27.8,0Z" transform="translate(-0.2 17.0) rotate(181)" fill="url(#r7)" stroke="#ae5b6a" stroke-opacity=".22" stroke-width=".8"/><path d="M-22.2,-16.3 C-8.3,-24.5 8.3,-24.5 22.2,-16.3" transform="translate(-0.2 17.0) rotate(181)" fill="none" stroke="#fff" stroke-opacity=".35" stroke-width="1.3"/><path d="M-27.8,0 C-27.8,-30.3 27.8,-30.3 27.8,0 C16.7,21.0 -16.7,21.0 -27.8,0Z" transform="translate(-15.0 8.0) rotate(242)" fill="url(#r7)" stroke="#ae5b6a" stroke-opacity=".22" stroke-width=".8"/><path d="M-22.2,-16.3 C-8.3,-24.5 8.3,-24.5 22.2,-16.3" transform="translate(-15.0 8.0) rotate(242)" fill="none" stroke="#fff" stroke-opacity=".35" stroke-width="1.3"/><path d="M-27.8,0 C-27.8,-30.3 27.8,-30.3 27.8,0 C16.7,21.0 -16.7,21.0 -27.8,0Z" transform="translate(-13.4 -10.4) rotate(308)" fill="url(#r7)" stroke="#ae5b6a" stroke-opacity=".22" stroke-width=".8"/><path d="M-22.2,-16.3 C-8.3,-24.5 8.3,-24.5 22.2,-16.3" transform="translate(-13.4 -10.4) rotate(308)" fill="none" stroke="#fff" stroke-opacity=".35" stroke-width="1.3"/><path d="M-27.8,0 C-27.8,-30.3 27.8,-30.3 27.8,0 C16.7,21.0 -16.7,21.0 -27.8,0Z" transform="translate(3.7 -16.6) rotate(372)" fill="url(#r7)" stroke="#ae5b6a" stroke-opacity=".22" stroke-width=".8"/><path d="M-22.2,-16.3 C-8.3,-24.5 8.3,-24.5 22.2,-16.3" transform="translate(3.7 -16.6) rotate(372)" fill="none" stroke="#fff" stroke-opacity=".35" stroke-width="1.3"/><path d="M-27.8,0 C-27.8,-30.3 27.8,-30.3 27.8,0 C16.7,21.0 -16.7,21.0 -27.8,0Z" transform="translate(15.7 -6.6) rotate(427)" fill="url(#r7)" stroke="#ae5b6a" stroke-opacity=".22" stroke-width=".8"/><path d="M-22.2,-16.3 C-8.3,-24.5 8.3,-24.5 22.2,-16.3" transform="translate(15.7 -6.6) rotate(427)" fill="none" stroke="#fff" stroke-opacity=".35" stroke-width="1.3"/><path d="M-20.4,0 C-20.4,-22.2 20.4,-22.2 20.4,0 C12.2,15.4 -12.2,15.4 -20.4,0Z" transform="translate(12.2 2.7) rotate(103)" fill="url(#r8)" stroke="#ae5b6a" stroke-opacity=".22" stroke-width=".8"/><path d="M-16.3,-12.0 C-6.1,-18.0 6.1,-18.0 16.3,-12.0" transform="translate(12.2 2.7) rotate(103)" fill="none" stroke="#fff" stroke-opacity=".35" stroke-width="1.0"/><path d="M-20.4,0 C-20.4,-22.2 20.4,-22.2 20.4,0 C12.2,15.4 -12.2,15.4 -20.4,0Z" transform="translate(-1.0 12.5) rotate(185)" fill="url(#r8)" stroke="#ae5b6a" stroke-opacity=".22" stroke-width=".8"/><path d="M-16.3,-12.0 C-6.1,-18.0 6.1,-18.0 16.3,-12.0" transform="translate(-1.0 12.5) rotate(185)" fill="none" stroke="#fff" stroke-opacity=".35" stroke-width="1.0"/><path d="M-20.4,0 C-20.4,-22.2 20.4,-22.2 20.4,0 C12.2,15.4 -12.2,15.4 -20.4,0Z" transform="translate(-10.9 6.1) rotate(241)" fill="url(#r8)" stroke="#ae5b6a" stroke-opacity=".22" stroke-width=".8"/><path d="M-16.3,-12.0 C-6.1,-18.0 6.1,-18.0 16.3,-12.0" transform="translate(-10.9 6.1) rotate(241)" fill="none" stroke="#fff" stroke-opacity=".35" stroke-width="1.0"/><path d="M-20.4,0 C-20.4,-22.2 20.4,-22.2 20.4,0 C12.2,15.4 -12.2,15.4 -20.4,0Z" transform="translate(-6.9 -10.4) rotate(327)" fill="url(#r8)" stroke="#ae5b6a" stroke-opacity=".22" stroke-width=".8"/><path d="M-16.3,-12.0 C-6.1,-18.0 6.1,-18.0 16.3,-12.0" transform="translate(-6.9 -10.4) rotate(327)" fill="none" stroke="#fff" stroke-opacity=".35" stroke-width="1.0"/><path d="M-20.4,0 C-20.4,-22.2 20.4,-22.2 20.4,0 C12.2,15.4 -12.2,15.4 -20.4,0Z" transform="translate(6.0 -11.0) rotate(389)" fill="url(#r8)" stroke="#ae5b6a" stroke-opacity=".22" stroke-width=".8"/><path d="M-16.3,-12.0 C-6.1,-18.0 6.1,-18.0 16.3,-12.0" transform="translate(6.0 -11.0) rotate(389)" fill="none" stroke="#fff" stroke-opacity=".35" stroke-width="1.0"/><path d="M-13.9,0 C-13.9,-15.1 13.9,-15.1 13.9,0 C8.3,10.5 -8.3,10.5 -13.9,0Z" transform="translate(6.8 5.2) rotate(127)" fill="url(#r9)" stroke="#ae5b6a" stroke-opacity=".22" stroke-width=".8"/><path d="M-11.1,-8.2 C-4.2,-12.2 4.2,-12.2 11.1,-8.2" transform="translate(6.8 5.2) rotate(127)" fill="none" stroke="#fff" stroke-opacity=".35" stroke-width="0.8"/><path d="M-13.9,0 C-13.9,-15.1 13.9,-15.1 13.9,0 C8.3,10.5 -8.3,10.5 -13.9,0Z" transform="translate(-5.1 6.8) rotate(217)" fill="url(#r9)" stroke="#ae5b6a" stroke-opacity=".22" stroke-width=".8"/><path d="M-11.1,-8.2 C-4.2,-12.2 4.2,-12.2 11.1,-8.2" transform="translate(-5.1 6.8) rotate(217)" fill="none" stroke="#fff" stroke-opacity=".35" stroke-width="0.8"/><path d="M-13.9,0 C-13.9,-15.1 13.9,-15.1 13.9,0 C8.3,10.5 -8.3,10.5 -13.9,0Z" transform="translate(-6.4 -5.6) rotate(311)" fill="url(#r9)" stroke="#ae5b6a" stroke-opacity=".22" stroke-width=".8"/><path d="M-11.1,-8.2 C-4.2,-12.2 4.2,-12.2 11.1,-8.2" transform="translate(-6.4 -5.6) rotate(311)" fill="none" stroke="#fff" stroke-opacity=".35" stroke-width="0.8"/><path d="M-13.9,0 C-13.9,-15.1 13.9,-15.1 13.9,0 C8.3,10.5 -8.3,10.5 -13.9,0Z" transform="translate(6.7 -5.3) rotate(412)" fill="url(#r9)" stroke="#ae5b6a" stroke-opacity=".22" stroke-width=".8"/><path d="M-11.1,-8.2 C-4.2,-12.2 4.2,-12.2 11.1,-8.2" transform="translate(6.7 -5.3) rotate(412)" fill="none" stroke="#fff" stroke-opacity=".35" stroke-width="0.8"/><path d="M-15.4,3.1 C-15.4,-18.5 15.4,-18.5 15.4,1.5" fill="none" stroke="#9d525f" stroke-opacity=".25" stroke-width="1.8" transform="rotate(0)"/><path d="M-12.2,2.5 C-12.2,-14.7 12.2,-14.7 12.2,1.2" fill="none" stroke="#9d525f" stroke-opacity=".25" stroke-width="1.8" transform="rotate(70)"/><path d="M-9.1,1.8 C-9.1,-10.9 9.1,-10.9 9.1,0.9" fill="none" stroke="#9d525f" stroke-opacity=".25" stroke-width="1.8" transform="rotate(140)"/><path d="M-5.9,1.2 C-5.9,-7.1 5.9,-7.1 5.9,0.6" fill="none" stroke="#9d525f" stroke-opacity=".25" stroke-width="1.8" transform="rotate(210)"/><circle r="4.9" fill="#8b4955" opacity=".6"/></g><path d="M60.0,420.0 Q97.8,436.2 116.4,399.5 Q84.7,400.2 60.0,420.0z" fill="url(#l10)"/><path d="M60.0,420.0 Q91.3,418.2 116.4,399.5" stroke="#b8c9ad" stroke-width="0.8" fill="none" opacity=".6"/><path d="M79.5,420.9 q12.6,8.2 19.4,9.5" stroke="#aabf9e" stroke-width="0.5" fill="none" opacity=".35"/><path d="M79.5,420.9 q4.4,-14.4 8.8,-19.8" stroke="#aabf9e" stroke-width="0.5" fill="none" opacity=".35"/><path d="M91.3,418.2 q12.6,8.2 19.4,9.5" stroke="#aabf9e" stroke-width="0.5" fill="none" opacity=".35"/><path d="M91.3,418.2 q4.4,-14.4 8.8,-19.8" stroke="#aabf9e" stroke-width="0.5" fill="none" opacity=".35"/><path d="M102.1,412.7 q12.6,8.2 19.4,9.5" stroke="#aabf9e" stroke-width="0.5" fill="none" opacity=".35"/><path d="M102.1,412.7 q4.4,-14.4 8.8,-19.8" stroke="#aabf9e" stroke-width="0.5" fill="none" opacity=".35"/><path d="M60.0,420.0 Q94.6,427.2 116.4,399.5" stroke="#fff" stroke-width="1.2" fill="none" opacity="0.25"/><ellipse cx="310" cy="426.75" rx="150.0" ry="24.750000000000004" fill="#53393d" opacity="0.3" filter="url(#blur20)"/><path d="M185.0,294.6 L185.0,397.5 A125.0,22.5 0 0 0 435.0,397.5 L435.0,294.6Z" fill="url(#l11)"/><path d="M185.0,388.5 A125.0,22.5 0 0 0 435.0,388.5" fill="none" stroke="#ffffff" stroke-opacity=".35" stroke-width="2"/><text x="310" y="357.3" font-family="Georgia, 'Times New Roman', serif" font-size="32.5" font-weight="400" fill="#fff3f2" text-anchor="middle" letter-spacing="0" opacity="1">Lunéa</text><text x="310" y="384.925" font-family="Helvetica, Arial, sans-serif" font-size="13.65" font-weight="400" fill="#fff3f2" text-anchor="middle" letter-spacing="1.625" opacity="0.85">MASQUE ROSE</text><rect x="241.2" y="401.2" width="137.5" height="2.925" rx="1.4625" fill="#fff3f2" opacity="0.4"/><rect x="261.7" y="411.6" width="96.5" height="2.925" rx="1.4625" fill="#fff3f2" opacity="0.4"/><rect x="202.5" y="307.1" width="12.5" height="90.3" rx="6.2" fill="url(#l12)"/><path d="M181.25,230.0 L181.25,294.6 A128.75,22.5 0 0 0 438.75,294.6 L438.75,230.0Z" fill="url(#l13)"/><ellipse cx="310" cy="230.0" rx="128.75" ry="22.5" fill="url(#l14)"/><ellipse cx="310" cy="230.0" rx="126.75" ry="21.0" fill="none" stroke="#ffffff" stroke-opacity=".6" stroke-width="1.4"/><rect x="198.8" y="237.8" width="12.5" height="50.4" rx="6.2" fill="url(#l15)"/><path d="M181.25,293.6 A128.75,22.5 0 0 0 438.75,293.6" fill="none" stroke="#000" stroke-opacity=".12" stroke-width="2"/></svg>