<svg xmlns="http://www.w3.org/2000/svg" viewBox="0 0 600 500" width="600" height="500"><defs><filter id="blur8" x="-50%" y="-50%" width="200%" height="200%"><feGaussianBlur stdDeviation="8"/></filter><filter id="blur20" x="-50%" y="-50%" width="200%" height="200%"><feGaussianBlur stdDeviation="20"/></filter><filter id="blur40" x="-50%" y="-50%" width="200%" height="200%"><feGaussianBlur stdDeviation="40"/></filter><filter id="blur3" x="-50%" y="-50%" width="200%" height="200%"><feGaussianBlur stdDeviation="3"/></filter><filter id="grain" x="0" y="0" width="100%" height="100%"><feTurbulence type="fractalNoise" baseFrequency=".9" numOctaves="2" stitchTiles="stitch"/><feColorMatrix values="0 0 0 0 0  0 0 0 0 0  0 0 0 0 0  0 0 0 .06 0"/></filter><linearGradient id="l1" x1="0.500" y1="0.000" x2="0.500" y2="1.000"><stop offset="0.0" stop-color="#fdf0ec" stop-opacity="1"/><stop offset="1.0" stop-color="#f8dcd8" stop-opacity="1"/></linearGradient><radialGradient id="r2" cx="0.5" cy="0.5" r="0.5"><stop offset="0" stop-color="#ffffff" stop-opacity="0.75"/><stop offset="1" stop-color="#ffffff" stop-opacity="0"/></radialGradient><linearGradient id="l3" x1="0.500" y1="0.000" x2="0.500" y2="1.000"><stop offset="0.0" stop-color="#fae6e4" stop-opacity="1"/><stop offset="1.0" stop-color="#f3d8d4" stop-opacity="1"/></linearGradient><radialGradient id="r4" cx="0.4" cy="0.35" r="0.5"><stop offset="0" stop-color="#ffffff" stop-opacity="1"/><stop offset="0.6" stop-color="#fffaf7" stop-opacity="1"/><stop offset="1" stop-color="#e6e1de" stop-opacity="1"/></radialGradient><radialGradient id="r5" cx="0.5" cy="0.5" r="0.5"><stop offset="0" stop-color="#ffffff" stop-opacity="0.1"/><stop offset="0.7" stop-color="#f9d9b0" stop-opacity="0.25"/><stop offset="1" stop-color="#ffffff" stop-opacity="0.9"/></radialGradient><radialGradient id="r6" cx="0.5" cy="0.5" r="0.5"><stop offset="0" stop-color="#ffffff" stop-opacity="0.1"/><stop offset="0.7" stop-color="#f9d9b0" stop-opacity="0.25"/><stop offset="1" stop-color="#ffffff" stop-opacity="0.9"/></radialGradient><radialGradient id="r7" cx="0.5" cy="0.5" r="0.5"><stop offset="0" stop-color="#ffffff" stop-opacity="0.1"/><stop offset="0.7" stop-color="#f9d9b0" stop-opacity="0.25"/><stop offset="1" stop-color="#ffffff" stop-opacity="0.9"/></radialGradient><radialGradient id="r8" cx="0.5" cy="0.5" r="0.5"><stop offset="0" stop-color="#ffffff" stop-opacity="0.1"/><stop offset="0.7" stop-color="#f9d9b0" stop-opacity="0.25"/><stop offset="1" stop-color="#ffffff" stop-opacity="0.9"/></radialGradient><radialGradient id="r9" cx="0.5" cy="0.5" r="0.5"><stop offset="0" stop-color="#ffffff" stop-opacity="0.1"/><stop offset="0.7" stop-color="#f9d9b0" stop-opacity="0.25"/><stop offset="1" stop-color="#ffffff" stop-opacity="0.9"/></radialGradient><radialGradient id="r10" cx="0.5" cy="0.5" r="0.5"><stop offset="0" stop-color="#ffffff" stop-opacity="0.1"/><stop offset="0.7" stop-color="#f9d9b0" stop-opacity="0.25"/><stop offset="1" stop-color="#ffffff" stop-opacity="0.9"/></radialGradient><linearGradient id="l11" x1="0.000" y1="0.500" x2="1.000" y2="0.500"><stop offset="0.0" stop-color="#cc9f66" stop-opacity="1"/><stop offset="0.2" stop-color="#fac889" stop-opacity="1"/><stop offset="0.4" stop-color="#fce4c4" stop-opacity="1"/><stop offset="0.6" stop-color="#face96" stop-opacity="1"/><stop offset="0.8" stop-color="#f9c27c" stop-opacity="1"/><stop offset="1.0" stop-color="#c29761" stop-opacity="1"/></linearGradient><linearGradient id="l12" x1="0.000" y1="0.500" x2="1.000" y2="0.500"><stop offset="0.0" stop-color="#9d6930" stop-opacity="1"/><stop offset="0.25" stop-color="#f2a24a" stop-opacity="1"/><stop offset="0.5" stop-color="#f6be80" stop-opacity="1"/><stop offset="0.75" stop-color="#f3a753" stop-opacity="1"/><stop offset="1.0" stop-color="#91612c" stop-opacity="1"/></linearGradient><linearGradient id="l13" x1="0.500" y1="0.000" x2="0.500" y2="1.000"><stop offset="0" stop-color="#ffffff" stop-opacity="0"/><stop offset="0.25" stop-color="#ffffff" stop-opacity="0.7"/><stop offset="0.8" stop-color="#ffffff" stop-opacity="0.42"/><stop offset="1" stop-color="#ffffff" stop-opacity="0"/></linearGradient><linearGradient id="l14" x1="0.500" y1="0.000" x2="0.500" y2="1.000"><stop offset="0" stop-color="#ffffff" stop-opacity="0"/><stop offset="0.25" stop-color="#ffffff" stop-opacity="0.5"/><stop offset="0.8" stop-color="#ffffff" stop-opacity="0.3"/><stop offset="1" stop-color="#ffffff" stop-opacity="0"/></linearGradient><linearGradient id="l15" x1="0.000" y1="0.500" x2="1.000" y2="0.500"><stop offset="0.0" stop-color="#9e6656" stop-opacity="1"/><stop offset="0.2" stop-color="#d9a593" stop-opacity="1"/><stop offset="0.4" stop-color="#fbe4da" stop-opacity="1"/><stop offset="0.6" stop-color="#e3b19f" stop-opacity="1"/><stop offset="0.8" stop-color="#a86e5d" stop-opacity="1"/><stop offset="1.0" stop-color="#c99282" stop-opacity="1"/></linearGradient><linearGradient id="l16" x1="0.500" y1="0.000" x2="0.500" y2="1.000"><stop offset="0" stop-color="#ffffff" stop-opacity="0"/><stop offset="0.25" stop-color="#ffffff" stop-opacity="0.65"/><stop offset="0.8" stop-color="#ffffff" stop-opacity="0.39"/><stop offset="1" stop-color="#ffffff" stop-opacity="0"/></linearGradient><linearGradient id="l17" x1="0.000" y1="0.500" x2="1.000" y2="0.500"><stop offset="0.0" stop-color="#b49288" stop-opacity="1"/><stop offset="0.2" stop-color="#e3b8ac" stop-opacity="1"/><stop offset="0.4" stop-color="#f5d8cf" stop-opacity="1"/><stop offset="0.6" stop-color="#f2c9be" stop-opacity="1"/><stop offset="0.8" stop-color="#f0c3b6" stop-opacity="1"/><stop offset="1.0" stop-color="#af8e85" stop-opacity="1"/></linearGradient><linearGradient id="l18" x1="0.500" y1="0.000" x2="0.500" y2="1.000"><stop offset="0" stop-color="#ffffff" stop-opacity="0"/><stop offset="0.25" stop-color="#ffffff" stop-opacity="0.7"/><stop offset="0.8" stop-color="#ffffff" stop-opacity="0.42"/><stop offset="1" stop-color="#ffffff" stop-opacity="0"/></linearGradient><linearGradient id="l19" x1="0.000" y1="0.500" x2="1.000" y2="0.500"><stop offset="0.0" stop-color="#c19d92" stop-opacity="1"/><stop offset="0.2" stop-color="#e6bbae" stop-opacity="1"/><stop offset="0.4" stop-color="#f4d3c9" stop-opacity="1"/><stop offset="0.6" stop-color="#f1c8bc" stop-opacity="1"/><stop offset="0.8" stop-color="#f0c3b6" stop-opacity="1"/><stop offset="1.0" stop-color="#be9a90" stop-opacity="1"/></linearGradient></defs><rect width="600" height="500" fill="url(#l1)"/><circle cx="270.0" cy="175.0" r="300.0" fill="url(#r2)"/><rect x="0" y="370.0" width="600" height="130.0" fill="url(#l3)"/><rect x="0" y="370.0" width="600" height="3" fill="#fff" opacity=".6"/><path d="M345.0,417.0 C337.5,363.0 405.0,327.0 442.5,349.5 C495.0,336.0 513.0,390 495.0,417.0 Q420,439.5 345.0,417.0Z" fill="url(#r4)"/><path d="M375.0,381.0 C405.0,354.0 435.0,358.5 462.0,381.0" fill="none" stroke="#e0dcd9" stroke-width="4.5" stroke-linecap="round" opacity=".7"/><path d="M390.0,400.8 C420,385.5 450.0,390 468.0,403.5" fill="none" stroke="#ffffff" stroke-width="4.5" stroke-linecap="round"/><circle cx="177" cy="296" r="5.8" fill="url(#r5)"/><circle cx="174.9" cy="294.1" r="1.6" fill="#fff" opacity=".95"/><circle cx="202" cy="308" r="4.3" fill="url(#r6)"/><circle cx="201.0" cy="306.1" r="1.2" fill="#fff" opacity=".95"/><circle cx="161" cy="337" r="5.3" fill="url(#r7)"/><circle cx="159.3" cy="335.4" r="1.5" fill="#fff" opacity=".95"/><circle cx="176" cy="359" r="6.4" fill="url(#r8)"/><circle cx="174.5" cy="357.2" r="1.8" fill="#fff" opacity=".95"/><circle cx="219" cy="287" r="7.2" fill="url(#r9)"/><circle cx="216.4" cy="284.2" r="2.0" fill="#fff" opacity=".95"/><circle cx="171" cy="309" r="8.3" fill="url(#r10)"/><circle cx="168.0" cy="306.0" r="2.3" fill="#fff" opacity=".95"/><ellipse cx="300" cy="424" rx="74.4" ry="8.4" fill="#644e32" opacity="0.28" filter="url(#blur20)"/><path d="M240.0,408.0 L240.0,247.2 Q240.0,216.0 271.2,216.0 L328.8,216.0 Q360.0,216.0 360.0,247.2 L360.0,408.0 Q360.0,420 348.0,420 L252.0,420 Q240.0,420 240.0,408.0Z" fill="url(#l11)" opacity="0.96"/><path d="M248.4,404.64 L248.4,260.88 L351.6,260.88 L351.6,404.64 Q351.6,411.6 339.6,411.6 L260.4,411.6 Q248.4,411.6 248.4,404.64Z" fill="url(#l12)" opacity=".93"/><ellipse cx="300" cy="260.88" rx="51.6" ry="4.2" fill="#f8cc9b" opacity=".8"/><rect x="295.8" y="209.2" width="8.4" height="167.28" rx="4.2" fill="#ffffff" opacity=".28"/><g fill="none" stroke="#8a4b2b" stroke-width="0.80" stroke-linejoin="round"><path d="M300,296.94239999999996 C303.6288,300.9744 302.4192,305.0064 300,306.6192 C297.5808,305.0064 296.3712,300.9744 300,296.94239999999996z"/><path d="M298.7904,306.45792 C292.7424,305.8128 291.936,301.7808 293.1456,300.168 C295.968,301.7808 297.5808,304.2 299.1936,306.216"/><path d="M301.2096,306.45792 C307.2576,305.8128 308.064,301.7808 306.8544,300.168 C304.032,301.7808 302.4192,304.2 300.8064,306.216"/></g><text x="300" y="328.2" font-family="Georgia, 'Times New Roman', serif" font-size="19.2" font-weight="400" fill="#8a4b2b" text-anchor="middle" letter-spacing="0" opacity="1">Lunéa</text><text x="300" y="344.52" font-family="Helvetica, Arial, sans-serif" font-size="8.064" font-weight="400" fill="#8a4b2b" text-anchor="middle" letter-spacing="0.96" opacity="0.85">SÉRUM ÉCLAT</text><rect x="267.0" y="354.1" width="66.0" height="1.728" rx="0.864" fill="#8a4b2b" opacity="0.4"/><rect x="276.8" y="360.3" width="46.3" height="1.728" rx="0.864" fill="#8a4b2b" opacity="0.4"/><rect x="252.0" y="234.7" width="10.8" height="159.1" rx="5.4" fill="url(#l13)"/><rect x="343.2" y="237.8" width="4.2" height="142.8" rx="2.1" fill="url(#l14)"/><path d="M240.0,408.0 L240.0,247.2 Q240.0,216.0 271.2,216.0 L328.8,216.0 Q360.0,216.0 360.0,247.2 L360.0,408.0 Q360.0,420 348.0,420 L252.0,420 Q240.0,420 240.0,408.0Z" fill="none" stroke="#ffffff" stroke-opacity=".5" stroke-width="1.4"/><rect x="276.0" y="205.8" width="48.0" height="13.6" fill="#e0af70"/><rect x="270.0" y="158.20000000000002" width="60.0" height="47.6" rx="3.5999999999999996" fill="url(#l15)"/><rect x="270.0" y="166.1" width="60.0" height="1.0" fill="#000" opacity=".08"/><rect x="270.0" y="174.1" width="60.0" height="1.0" fill="#000" opacity=".08"/><rect x="270.0" y="182.0" width="60.0" height="1.0" fill="#000" opacity=".08"/><rect x="270.0" y="189.9" width="60.0" height="1.0" fill="#000" opacity=".08"/><rect x="270.0" y="197.9" width="60.0" height="1.0" fill="#000" opacity=".08"/><rect x="279.6" y="162.0" width="6.0" height="40.0" rx="3.0" fill="url(#l16)"/><path d="M279.6,158.20000000000002 L279.6,93.60000000000002 C279.6,71.16000000000001 320.4,71.16000000000001 320.4,93.60000000000002 L320.4,158.20000000000002Z" fill="url(#l17)"/><rect x="286.9" y="81.4" width="5.7" height="55.2" rx="2.9" fill="url(#l18)"/><rect x="274.704" y="152.08" width="50.592000000000006" height="7.4799999999999995" rx="3.7399999999999998" fill="url(#l19)"/></svg>