<svg xmlns="http://www.w3.org/2000/svg" viewBox="0 0 900 1000" width="900" height="1000"><defs><filter id="blur8" x="-50%" y="-50%" width="200%" height="200%"><feGaussianBlur stdDeviation="8"/></filter><filter id="blur20" x="-50%" y="-50%" width="200%" height="200%"><feGaussianBlur stdDeviation="20"/></filter><filter id="blur40" x="-50%" y="-50%" width="200%" height="200%"><feGaussianBlur stdDeviation="40"/></filter><filter id="blur3" x="-50%" y="-50%" width="200%" height="200%"><feGaussianBlur stdDeviation="3"/></filter><filter id="grain" x="0" y="0" width="100%" height="100%"><feTurbulence type="fractalNoise" baseFrequency=".9" numOctaves="2" stitchTiles="stitch"/><feColorMatrix values="0 0 0 0 0  0 0 0 0 0  0 0 0 0 0  0 0 0 .06 0"/></filter><filter id="smoke" x="-30%" y="-30%" width="160%" height="160%"><feTurbulence type="fractalNoise" baseFrequency=".012" numOctaves="3" seed="2" result="n"/><feDisplacementMap in="SourceGraphic" in2="n" scale="140"/><feGaussianBlur stdDeviation="18"/></filter><filter id="spark" x="-50%" y="-50%" width="200%" height="200%"><feGaussianBlur stdDeviation="1.2"/></filter><linearGradient id="l1" x1="0.500" y1="0.000" x2="0.500" y2="1.000"><stop offset="0.0" stop-color="#151517" stop-opacity="1"/><stop offset="1.0" stop-color="#0b0b0c" stop-opacity="1"/></linearGradient><radialGradient id="r2" cx="0.5" cy="0.5" r="0.5"><stop offset="0" stop-color="#fff3e6" stop-opacity="0.25"/><stop offset="1" stop-color="#fff3e6" stop-opacity="0"/></radialGradient><radialGradient id="r3" cx="0.5" cy="0.5" r="0.5"><stop offset="0" stop-color="#fff3e6" stop-opacity="0.25"/><stop offset="1" stop-color="#fff3e6" stop-opacity="0"/></radialGradient><radialGradient id="r4" cx="0.5" cy="0.5" r="0.5"><stop offset="0" stop-color="#fff3e6" stop-opacity="0.25"/><stop offset="1" stop-color="#fff3e6" stop-opacity="0"/></radialGradient><radialGradient id="r5" cx="0.5" cy="0.5" r="0.5"><stop offset="0" stop-color="#fff3e6" stop-opacity="0.25"/><stop offset="1" stop-color="#fff3e6" stop-opacity="0"/></radialGradient><radialGradient id="r6" cx="0.5" cy="0.5" r="0.5"><stop offset="0" stop-color="#fff3e6" stop-opacity="0.25"/><stop offset="1" stop-color="#fff3e6" stop-opacity="0"/></radialGradient><radialGradient id="r7" cx="0.5" cy="0.5" r="0.5"><stop offset="0" stop-color="#fff3e6" stop-opacity="0.25"/><stop offset="1" stop-color="#fff3e6" stop-opacity="0"/></radialGradient><radialGradient id="r8" cx="0.5" cy="0.5" r="0.5"><stop offset="0" stop-color="#fff3e6" stop-opacity="0.25"/><stop offset="1" stop-color="#fff3e6" stop-opacity="0"/></radialGradient><radialGradient id="r9" cx="0.5" cy="0.5" r="0.5"><stop offset="0" stop-color="#ff5a1f" stop-opacity="0.21"/><stop offset="1" stop-color="#ff5a1f" stop-opacity="0"/></radialGradient><linearGradient id="l10" x1="0.500" y1="0.000" x2="0.500" y2="1.000"><stop offset="0.0" stop-color="#1a1a1c" stop-opacity="1"/><stop offset="1.0" stop-color="#060606" stop-opacity="1"/></linearGradient><linearGradient id="l11" x1="0.500" y1="0.000" x2="0.500" y2="1.000"><stop offset="0.0" stop-color="#2a2c30" stop-opacity="1"/><stop offset="0.25" stop-color="#cfd3d8" stop-opacity="1"/><stop offset="0.5" stop-color="#f6f7f8" stop-opacity="1"/><stop offset="0.75" stop-color="#7d8187" stop-opacity="1"/><stop offset="1.0" stop-color="#1e2023" stop-opacity="1"/></linearGradient><linearGradient id="l12" x1="0.500" y1="0.000" x2="0.500" y2="1.000"><stop offset="0.0" stop-color="#3a3b3f" stop-opacity="1"/><stop offset="0.25" stop-color="#1a1b1d" stop-opacity="1"/><stop offset="0.5" stop-color="#0d0d0e" stop-opacity="1"/><stop offset="0.75" stop-color="#232427" stop-opacity="1"/><stop offset="1.0" stop-color="#060606" stop-opacity="1"/></linearGradient><linearGradient id="l13" x1="0.500" y1="0.000" x2="0.500" y2="1.000"><stop offset="0.0" stop-color="#5c5f65" stop-opacity="1"/><stop offset="0.3333333333333333" stop-color="#d9dce0" stop-opacity="1"/><stop offset="0.6666666666666666" stop-color="#8a8d93" stop-opacity="1"/><stop offset="1.0" stop-color="#2a2c30" stop-opacity="1"/></linearGradient><linearGradient id="l14" x1="0.500" y1="0.000" x2="0.500" y2="1.000"><stop offset="0.0" stop-color="#5c5f65" stop-opacity="1"/><stop offset="0.3333333333333333" stop-color="#d9dce0" stop-opacity="1"/><stop offset="0.6666666666666666" stop-color="#8a8d93" stop-opacity="1"/><stop offset="1.0" stop-color="#2a2c30" stop-opacity="1"/></linearGradient><linearGradient id="l15" x1="0.500" y1="0.000" x2="0.500" y2="1.000"><stop offset="0.0" stop-color="#2a2c30" stop-opacity="1"/><stop offset="0.25" stop-color="#cfd3d8" stop-opacity="1"/><stop offset="0.5" stop-color="#f6f7f8" stop-opacity="1"/><stop offset="0.75" stop-color="#7d8187" stop-opacity="1"/><stop offset="1.0" stop-color="#1e2023" stop-opacity="1"/></linearGradient><linearGradient id="l16" x1="0.500" y1="0.000" x2="0.500" y2="1.000"><stop offset="0.0" stop-color="#3a3b3f" stop-opacity="1"/><stop offset="0.25" stop-color="#1a1b1d" stop-opacity="1"/><stop offset="0.5" stop-color="#0d0d0e" stop-opacity="1"/><stop offset="0.75" stop-color="#232427" stop-opacity="1"/><stop offset="1.0" stop-color="#060606" stop-opacity="1"/></linearGradient><linearGradient id="l17" x1="0.500" y1="0.000" x2="0.500" y2="1.000"><stop offset="0.0" stop-color="#5c5f65" stop-opacity="1"/><stop offset="0.3333333333333333" stop-color="#d9dce0" stop-opacity="1"/><stop offset="0.6666666666666666" stop-color="#8a8d93" stop-opacity="1"/><stop offset="1.0" stop-color="#2a2c30" stop-opacity="1"/></linearGradient><linearGradient id="l18" x1="0.500" y1="0.000" x2="0.500" y2="1.000"><stop offset="0.0" stop-color="#5c5f65" stop-opacity="1"/><stop offset="0.3333333333333333" stop-color="#d9dce0" stop-opacity="1"/><stop offset="0.6666666666666666" stop-color="#8a8d93" stop-opacity="1"/><stop offset="1.0" stop-color="#2a2c30" stop-opacity="1"/></linearGradient><linearGradient id="l19" x1="0.500" y1="0.000" x2="0.500" y2="1.000"><stop offset="0.0" stop-color="#2a2c30" stop-opacity="1"/><stop offset="0.25" stop-color="#cfd3d8" stop-opacity="1"/><stop offset="0.5" stop-color="#f6f7f8" stop-opacity="1"/><stop offset="0.75" stop-color="#7d8187" stop-opacity="1"/><stop offset="1.0" stop-color="#1e2023" stop-opacity="1"/></linearGradient><linearGradient id="l20" x1="0.500" y1="0.000" x2="0.500" y2="1.000"><stop offset="0.0" stop-color="#3a3b3f" stop-opacity="1"/><stop offset="0.25" stop-color="#1a1b1d" stop-opacity="1"/><stop offset="0.5" stop-color="#0d0d0e" stop-opacity="1"/><stop offset="0.75" stop-color="#232427" stop-opacity="1"/><stop offset="1.0" stop-color="#060606" stop-opacity="1"/></linearGradient><linearGradient id="l21" x1="0.500" y1="0.000" x2="0.500" y2="1.000"><stop offset="0.0" stop-color="#5c5f65" stop-opacity="1"/><stop offset="0.3333333333333333" stop-color="#d9dce0" stop-opacity="1"/><stop offset="0.6666666666666666" stop-color="#8a8d93" stop-opacity="1"/><stop offset="1.0" stop-color="#2a2c30" stop-opacity="1"/></linearGradient><linearGradient id="l22" x1="0.500" y1="0.000" x2="0.500" y2="1.000"><stop offset="0.0" stop-color="#5c5f65" stop-opacity="1"/><stop offset="0.3333333333333333" stop-color="#d9dce0" stop-opacity="1"/><stop offset="0.6666666666666666" stop-color="#8a8d93" stop-opacity="1"/><stop offset="1.0" stop-color="#2a2c30" stop-opacity="1"/></linearGradient><radialGradient id="r23" cx="0.5" cy="0.5" r="0.75"><stop offset="0.55" stop-color="#000000" stop-opacity="0"/><stop offset="1" stop-color="#000000" stop-opacity="0.55"/></radialGradient></defs><rect width="900" height="1000" fill="url(#l1)"/><circle cx="212.44328076369106" cy="25.79150855767895" r="59.802912130534054" fill="url(#r2)"/><circle cx="139.47504372216923" cy="16.628773919897476" r="60.07955072425374" fill="url(#r3)"/><circle cx="826.159538778947" cy="200.11308787395214" r="78.25813012527192" fill="url(#r4)"/><circle cx="199.73535812128588" cy="134.1700020437034" r="53.834132172072515" fill="url(#r5)"/><circle cx="155.398076356832" cy="26.545823107882534" r="50.72002162894582" fill="url(#r6)"/><circle cx="834.7280682852544" cy="207.23001219460485" r="80.33261733511617" fill="url(#r7)"/><circle cx="720.4030546886696" cy="48.358904504810006" r="55.49249786497678" fill="url(#r8)"/><circle cx="450.0" cy="550.0" r="540.0" fill="url(#r9)"/><g filter="url(#smoke)"><ellipse cx="180.0" cy="500.0" rx="225.0" ry="200.0" fill="#cfd2d6" opacity="0.12"/><ellipse cx="720.0" cy="400.0" rx="180.0" ry="200.0" fill="#cfd2d6" opacity="0.1"/></g><rect y="820" width="900" height="180" fill="url(#l10)"/><rect y="820" width="900" height="3" fill="#ff5a1f" opacity=".4"/><ellipse cx="450" cy="830" rx="330" ry="22" fill="#000000" opacity="0.7" filter="url(#blur20)"/><g transform="translate(300 620) rotate(-90)"><rect x="-71.2" y="-11.2" width="142.4" height="22.4" rx="6.9" fill="url(#l11)"/><path d="M-53.8,-8.6l4,17.2M-49.8,-8.6l-4,17.2M-47.8,-8.6l4,17.2M-43.8,-8.6l-4,17.2M-41.8,-8.6l4,17.2M-37.8,-8.6l-4,17.2M-35.8,-8.6l4,17.2M-31.8,-8.6l-4,17.2M-29.8,-8.6l4,17.2M-25.8,-8.6l-4,17.2M-23.8,-8.6l4,17.2M-19.8,-8.6l-4,17.2M-17.8,-8.6l4,17.2M-13.8,-8.6l-4,17.2M-11.8,-8.6l4,17.2M-7.8,-8.6l-4,17.2M-5.8,-8.6l4,17.2M-1.8,-8.6l-4,17.2M0.2,-8.6l4,17.2M4.2,-8.6l-4,17.2M6.2,-8.6l4,17.2M10.2,-8.6l-4,17.2M12.2,-8.6l4,17.2M16.2,-8.6l-4,17.2M18.2,-8.6l4,17.2M22.2,-8.6l-4,17.2M24.2,-8.6l4,17.2M28.2,-8.6l-4,17.2M30.2,-8.6l4,17.2M34.2,-8.6l-4,17.2M36.2,-8.6l4,17.2M40.2,-8.6l-4,17.2M42.2,-8.6l4,17.2M46.2,-8.6l-4,17.2" stroke="#3b3d41" stroke-width=".9" opacity=".7"/><rect x="-85.8" y="-86.0" width="17.6" height="172.0" rx="5.9" fill="url(#l12)"/><rect x="-85.8" y="-86.0" width="17.6" height="18.9" rx="5.9" fill="#fff" opacity=".07"/><rect x="-81.9" y="-67.1" width="8.8" height="134.2" rx="2" fill="#ff5a1f" opacity=".95"/><rect x="-105.3" y="-83.0" width="17.6" height="166.0" rx="5.9" fill="url(#l12)"/><rect x="-105.3" y="-83.0" width="17.6" height="18.3" rx="5.9" fill="#fff" opacity=".07"/><rect x="-124.9" y="-80.0" width="17.6" height="160.0" rx="5.9" fill="url(#l12)"/><rect x="-124.9" y="-80.0" width="17.6" height="17.6" rx="5.9" fill="#fff" opacity=".07"/><rect x="-144.4" y="-77.0" width="17.6" height="153.9" rx="5.9" fill="url(#l12)"/><rect x="-144.4" y="-77.0" width="17.6" height="16.9" rx="5.9" fill="#fff" opacity=".07"/><rect x="-164.0" y="-74.0" width="17.6" height="147.9" rx="5.9" fill="url(#l12)"/><rect x="-164.0" y="-74.0" width="17.6" height="16.3" rx="5.9" fill="#fff" opacity=".07"/><rect x="-183.6" y="-71.0" width="17.6" height="141.9" rx="5.9" fill="url(#l12)"/><rect x="-183.6" y="-71.0" width="17.6" height="15.6" rx="5.9" fill="#fff" opacity=".07"/><rect x="-210.0" y="-53.3" width="25.4" height="106.6" rx="9.8" fill="url(#l13)"/><rect x="-206.1" y="-17.2" width="17.6" height="34.4" rx="3" fill="#ff5a1f"/><rect x="68.2" y="-86.0" width="17.6" height="172.0" rx="5.9" fill="url(#l12)"/><rect x="68.2" y="-86.0" width="17.6" height="18.9" rx="5.9" fill="#fff" opacity=".07"/><rect x="72.1" y="-67.1" width="8.8" height="134.2" rx="2" fill="#ff5a1f" opacity=".95"/><rect x="87.8" y="-83.0" width="17.6" height="166.0" rx="5.9" fill="url(#l12)"/><rect x="87.8" y="-83.0" width="17.6" height="18.3" rx="5.9" fill="#fff" opacity=".07"/><rect x="107.3" y="-80.0" width="17.6" height="160.0" rx="5.9" fill="url(#l12)"/><rect x="107.3" y="-80.0" width="17.6" height="17.6" rx="5.9" fill="#fff" opacity=".07"/><rect x="126.9" y="-77.0" width="17.6" height="153.9" rx="5.9" fill="url(#l12)"/><rect x="126.9" y="-77.0" width="17.6" height="16.9" rx="5.9" fill="#fff" opacity=".07"/><rect x="146.4" y="-74.0" width="17.6" height="147.9" rx="5.9" fill="url(#l12)"/><rect x="146.4" y="-74.0" width="17.6" height="16.3" rx="5.9" fill="#fff" opacity=".07"/><rect x="166.0" y="-71.0" width="17.6" height="141.9" rx="5.9" fill="url(#l12)"/><rect x="166.0" y="-71.0" width="17.6" height="15.6" rx="5.9" fill="#fff" opacity=".07"/><rect x="184.6" y="-53.3" width="25.4" height="106.6" rx="9.8" fill="url(#l14)"/><rect x="188.5" y="-17.2" width="17.6" height="34.4" rx="3" fill="#ff5a1f"/><path d="M-206.0,-80.0 L-67.2,-85.1 M67.2,-85.1 L206.0,-80.0" stroke="#ff5a1f" stroke-width="2.5" opacity=".55"/></g><g transform="translate(600 650) rotate(-90)"><rect x="-64.8" y="-10.4" width="129.6" height="20.8" rx="6.4" fill="url(#l15)"/><path d="M-48.6,-8.0l4,16.0M-44.6,-8.0l-4,16.0M-42.6,-8.0l4,16.0M-38.6,-8.0l-4,16.0M-36.6,-8.0l4,16.0M-32.6,-8.0l-4,16.0M-30.6,-8.0l4,16.0M-26.6,-8.0l-4,16.0M-24.6,-8.0l4,16.0M-20.6,-8.0l-4,16.0M-18.6,-8.0l4,16.0M-14.6,-8.0l-4,16.0M-12.6,-8.0l4,16.0M-8.6,-8.0l-4,16.0M-6.6,-8.0l4,16.0M-2.6,-8.0l-4,16.0M-0.6,-8.0l4,16.0M3.4,-8.0l-4,16.0M5.4,-8.0l4,16.0M9.4,-8.0l-4,16.0M11.4,-8.0l4,16.0M15.4,-8.0l-4,16.0M17.4,-8.0l4,16.0M21.4,-8.0l-4,16.0M23.4,-8.0l4,16.0M27.4,-8.0l-4,16.0M29.4,-8.0l4,16.0M33.4,-8.0l-4,16.0M35.4,-8.0l4,16.0M39.4,-8.0l-4,16.0M41.4,-8.0l4,16.0M45.4,-8.0l-4,16.0" stroke="#3b3d41" stroke-width=".9" opacity=".7"/><rect x="-77.5" y="-80.0" width="15.7" height="160.0" rx="5.3" fill="url(#l16)"/><rect x="-77.5" y="-80.0" width="15.7" height="17.6" rx="5.3" fill="#fff" opacity=".07"/><rect x="-74.1" y="-62.4" width="7.8" height="124.8" rx="2" fill="#ff5a1f" opacity=".95"/><rect x="-95.2" y="-77.2" width="15.7" height="154.4" rx="5.3" fill="url(#l16)"/><rect x="-95.2" y="-77.2" width="15.7" height="17.0" rx="5.3" fill="#fff" opacity=".07"/><rect x="-112.9" y="-74.4" width="15.7" height="148.8" rx="5.3" fill="url(#l16)"/><rect x="-112.9" y="-74.4" width="15.7" height="16.4" rx="5.3" fill="#fff" opacity=".07"/><rect x="-130.6" y="-71.6" width="15.7" height="143.2" rx="5.3" fill="url(#l16)"/><rect x="-130.6" y="-71.6" width="15.7" height="15.8" rx="5.3" fill="#fff" opacity=".07"/><rect x="-148.3" y="-68.8" width="15.7" height="137.6" rx="5.3" fill="url(#l16)"/><rect x="-148.3" y="-68.8" width="15.7" height="15.1" rx="5.3" fill="#fff" opacity=".07"/><rect x="-166.0" y="-66.0" width="15.7" height="132.0" rx="5.3" fill="url(#l16)"/><rect x="-166.0" y="-66.0" width="15.7" height="14.5" rx="5.3" fill="#fff" opacity=".07"/><rect x="-190.0" y="-49.6" width="23.0" height="99.2" rx="8.8" fill="url(#l17)"/><rect x="-186.5" y="-16.0" width="15.9" height="32.0" rx="3" fill="#ff5a1f"/><rect x="61.8" y="-80.0" width="15.7" height="160.0" rx="5.3" fill="url(#l16)"/><rect x="61.8" y="-80.0" width="15.7" height="17.6" rx="5.3" fill="#fff" opacity=".07"/><rect x="65.2" y="-62.4" width="7.8" height="124.8" rx="2" fill="#ff5a1f" opacity=".95"/><rect x="79.5" y="-77.2" width="15.7" height="154.4" rx="5.3" fill="url(#l16)"/><rect x="79.5" y="-77.2" width="15.7" height="17.0" rx="5.3" fill="#fff" opacity=".07"/><rect x="97.2" y="-74.4" width="15.7" height="148.8" rx="5.3" fill="url(#l16)"/><rect x="97.2" y="-74.4" width="15.7" height="16.4" rx="5.3" fill="#fff" opacity=".07"/><rect x="114.9" y="-71.6" width="15.7" height="143.2" rx="5.3" fill="url(#l16)"/><rect x="114.9" y="-71.6" width="15.7" height="15.8" rx="5.3" fill="#fff" opacity=".07"/><rect x="132.6" y="-68.8" width="15.7" height="137.6" rx="5.3" fill="url(#l16)"/><rect x="132.6" y="-68.8" width="15.7" height="15.1" rx="5.3" fill="#fff" opacity=".07"/><rect x="150.3" y="-66.0" width="15.7" height="132.0" rx="5.3" fill="url(#l16)"/><rect x="150.3" y="-66.0" width="15.7" height="14.5" rx="5.3" fill="#fff" opacity=".07"/><rect x="167.0" y="-49.6" width="23.0" height="99.2" rx="8.8" fill="url(#l18)"/><rect x="170.5" y="-16.0" width="15.9" height="32.0" rx="3" fill="#ff5a1f"/><path d="M-186.0,-74.4 L-60.8,-79.2 M60.8,-79.2 L186.0,-74.4" stroke="#ff5a1f" stroke-width="2.5" opacity=".55"/></g><g transform="translate(450 790) rotate(0)"><rect x="-77.6" y="-7.8" width="155.2" height="15.6" rx="4.8" fill="url(#l19)"/><path d="M-58.9,-6.0l4,12.0M-54.9,-6.0l-4,12.0M-52.9,-6.0l4,12.0M-48.9,-6.0l-4,12.0M-46.9,-6.0l4,12.0M-42.9,-6.0l-4,12.0M-40.9,-6.0l4,12.0M-36.9,-6.0l-4,12.0M-34.9,-6.0l4,12.0M-30.9,-6.0l-4,12.0M-28.9,-6.0l4,12.0M-24.9,-6.0l-4,12.0M-22.9,-6.0l4,12.0M-18.9,-6.0l-4,12.0M-16.9,-6.0l4,12.0M-12.9,-6.0l-4,12.0M-10.9,-6.0l4,12.0M-6.9,-6.0l-4,12.0M-4.9,-6.0l4,12.0M-0.9,-6.0l-4,12.0M1.1,-6.0l4,12.0M5.1,-6.0l-4,12.0M7.1,-6.0l4,12.0M11.1,-6.0l-4,12.0M13.1,-6.0l4,12.0M17.1,-6.0l-4,12.0M19.1,-6.0l4,12.0M23.1,-6.0l-4,12.0M25.1,-6.0l4,12.0M29.1,-6.0l-4,12.0M31.1,-6.0l4,12.0M35.1,-6.0l-4,12.0M37.1,-6.0l4,12.0M41.1,-6.0l-4,12.0M43.1,-6.0l4,12.0M47.1,-6.0l-4,12.0M49.1,-6.0l4,12.0M53.1,-6.0l-4,12.0" stroke="#3b3d41" stroke-width=".9" opacity=".7"/><rect x="-94.0" y="-60.0" width="19.4" height="120.0" rx="6.4" fill="url(#l20)"/><rect x="-94.0" y="-60.0" width="19.4" height="13.2" rx="6.4" fill="#fff" opacity=".07"/><rect x="-89.7" y="-46.8" width="9.7" height="93.6" rx="2" fill="#ff5a1f" opacity=".95"/><rect x="-115.4" y="-57.9" width="19.4" height="115.8" rx="6.4" fill="url(#l20)"/><rect x="-115.4" y="-57.9" width="19.4" height="12.7" rx="6.4" fill="#fff" opacity=".07"/><rect x="-136.9" y="-55.8" width="19.4" height="111.6" rx="6.4" fill="url(#l20)"/><rect x="-136.9" y="-55.8" width="19.4" height="12.3" rx="6.4" fill="#fff" opacity=".07"/><rect x="-158.3" y="-53.7" width="19.4" height="107.4" rx="6.4" fill="url(#l20)"/><rect x="-158.3" y="-53.7" width="19.4" height="11.8" rx="6.4" fill="#fff" opacity=".07"/><rect x="-179.7" y="-51.6" width="19.4" height="103.2" rx="6.4" fill="url(#l20)"/><rect x="-179.7" y="-51.6" width="19.4" height="11.4" rx="6.4" fill="#fff" opacity=".07"/><rect x="-201.1" y="-49.5" width="19.4" height="99.0" rx="6.4" fill="url(#l20)"/><rect x="-201.1" y="-49.5" width="19.4" height="10.9" rx="6.4" fill="#fff" opacity=".07"/><rect x="-230.0" y="-37.2" width="27.9" height="74.4" rx="10.7" fill="url(#l21)"/><rect x="-225.7" y="-12.0" width="19.3" height="24.0" rx="3" fill="#ff5a1f"/><rect x="74.6" y="-60.0" width="19.4" height="120.0" rx="6.4" fill="url(#l20)"/><rect x="74.6" y="-60.0" width="19.4" height="13.2" rx="6.4" fill="#fff" opacity=".07"/><rect x="79.0" y="-46.8" width="9.7" height="93.6" rx="2" fill="#ff5a1f" opacity=".95"/><rect x="96.0" y="-57.9" width="19.4" height="115.8" rx="6.4" fill="url(#l20)"/><rect x="96.0" y="-57.9" width="19.4" height="12.7" rx="6.4" fill="#fff" opacity=".07"/><rect x="117.4" y="-55.8" width="19.4" height="111.6" rx="6.4" fill="url(#l20)"/><rect x="117.4" y="-55.8" width="19.4" height="12.3" rx="6.4" fill="#fff" opacity=".07"/><rect x="138.9" y="-53.7" width="19.4" height="107.4" rx="6.4" fill="url(#l20)"/><rect x="138.9" y="-53.7" width="19.4" height="11.8" rx="6.4" fill="#fff" opacity=".07"/><rect x="160.3" y="-51.6" width="19.4" height="103.2" rx="6.4" fill="url(#l20)"/><rect x="160.3" y="-51.6" width="19.4" height="11.4" rx="6.4" fill="#fff" opacity=".07"/><rect x="181.7" y="-49.5" width="19.4" height="99.0" rx="6.4" fill="url(#l20)"/><rect x="181.7" y="-49.5" width="19.4" height="10.9" rx="6.4" fill="#fff" opacity=".07"/><rect x="202.1" y="-37.2" width="27.9" height="74.4" rx="10.7" fill="url(#l22)"/><rect x="206.4" y="-12.0" width="19.3" height="24.0" rx="3" fill="#ff5a1f"/><path d="M-226.0,-55.8 L-73.6,-59.4 M73.6,-59.4 L226.0,-55.8" stroke="#ff5a1f" stroke-width="2.5" opacity=".55"/></g><g filter="url(#spark)"><path d="M407,512 l10.2,-11.1" stroke="#ff8a3d" stroke-width="1.9" opacity="0.75" stroke-linecap="round"/><path d="M166,478 l9.8,-6.2" stroke="#ff8a3d" stroke-width="1.3" opacity="0.58" stroke-linecap="round"/><path d="M82,687 l4.8,-11.3" stroke="#ff8a3d" stroke-width="2.6" opacity="0.98" stroke-linecap="round"/><path d="M589,551 l2.2,-5.5" stroke="#ff8a3d" stroke-width="1.9" opacity="0.44" stroke-linecap="round"/><path d="M171,289 l2.9,-3.2" stroke="#ff8a3d" stroke-width="1.8" opacity="0.91" stroke-linecap="round"/><path d="M467,568 l7.8,-6.2" stroke="#ff8a3d" stroke-width="1.8" opacity="0.57" stroke-linecap="round"/><path d="M898,817 l11.3,-8.3" stroke="#ff8a3d" stroke-width="1.6" opacity="0.54" stroke-linecap="round"/><path d="M260,169 l8.4,-10.2" stroke="#ff8a3d" stroke-width="2.4" opacity="0.63" stroke-linecap="round"/><path d="M862,713 l2.1,-3.4" stroke="#ff8a3d" stroke-width="2.5" opacity="0.68" stroke-linecap="round"/><path d="M882,398 l3.7,-3.1" stroke="#ff8a3d" stroke-width="2.3" opacity="0.56" stroke-linecap="round"/><path d="M78,353 l12.9,-8.7" stroke="#ff8a3d" stroke-width="1.4" opacity="0.55" stroke-linecap="round"/><path d="M91,162 l6.7,-11.8" stroke="#ff8a3d" stroke-width="2.0" opacity="0.67" stroke-linecap="round"/><path d="M172,632 l4.3,-3.5" stroke="#ff8a3d" stroke-width="1.4" opacity="0.65" stroke-linecap="round"/><path d="M192,309 l13.3,-8.3" stroke="#ff8a3d" stroke-width="1.6" opacity="0.93" stroke-linecap="round"/><path d="M190,396 l11.0,-9.0" stroke="#ff8a3d" stroke-width="1.3" opacity="0.99" stroke-linecap="round"/><path d="M192,301 l7.9,-10.7" stroke="#ff8a3d" stroke-width="1.6" opacity="0.44" stroke-linecap="round"/><path d="M81,528 l5.2,-4.6" stroke="#ff8a3d" stroke-width="1.7" opacity="0.67" stroke-linecap="round"/><path d="M863,459 l9.5,-5.3" stroke="#ff8a3d" stroke-width="1.5" opacity="0.49" stroke-linecap="round"/><path d="M818,692 l3.5,-6.1" stroke="#ff8a3d" stroke-width="2.2" opacity="0.96" stroke-linecap="round"/><path d="M177,785 l11.0,-9.6" stroke="#ff8a3d" stroke-width="1.8" opacity="0.46" stroke-linecap="round"/><path d="M35,794 l5.5,-4.1" stroke="#ff8a3d" stroke-width="1.6" opacity="0.89" stroke-linecap="round"/><path d="M537,325 l5.0,-3.6" stroke="#ff8a3d" stroke-width="1.3" opacity="0.54" stroke-linecap="round"/><path d="M503,717 l6.4,-9.4" stroke="#ff8a3d" stroke-width="2.5" opacity="0.52" stroke-linecap="round"/><path d="M15,308 l3.8,-8.5" stroke="#ff8a3d" stroke-width="1.4" opacity="0.62" stroke-linecap="round"/><path d="M515,212 l7.4,-3.9" stroke="#ff8a3d" stroke-width="2.6" opacity="0.79" stroke-linecap="round"/><path d="M622,529 l2.2,-5.2" stroke="#ff8a3d" stroke-width="1.2" opacity="0.95" stroke-linecap="round"/><path d="M631,794 l3.3,-2.7" stroke="#ff8a3d" stroke-width="1.9" opacity="0.84" stroke-linecap="round"/><path d="M287,820 l3.5,-3.4" stroke="#ff8a3d" stroke-width="2.2" opacity="0.94" stroke-linecap="round"/><path d="M663,613 l12.1,-6.1" stroke="#ff8a3d" stroke-width="1.7" opacity="0.81" stroke-linecap="round"/><path d="M811,730 l7.6,-4.8" stroke="#ff8a3d" stroke-width="2.4" opacity="0.74" stroke-linecap="round"/><path d="M562,388 l8.3,-7.2" stroke="#ff8a3d" stroke-width="1.3" opacity="0.78" stroke-linecap="round"/><path d="M894,736 l8.0,-9.9" stroke="#ff8a3d" stroke-width="2.2" opacity="0.75" stroke-linecap="round"/><path d="M396,707 l4.1,-2.8" stroke="#ff8a3d" stroke-width="1.2" opacity="0.76" stroke-linecap="round"/><path d="M433,281 l8.6,-8.9" stroke="#ff8a3d" stroke-width="2.1" opacity="0.95" stroke-linecap="round"/><path d="M230,128 l6.0,-4.7" stroke="#ff8a3d" stroke-width="1.5" opacity="0.50" stroke-linecap="round"/><path d="M815,582 l8.2,-4.4" stroke="#ff8a3d" stroke-width="1.7" opacity="0.80" stroke-linecap="round"/><path d="M179,422 l12.2,-6.2" stroke="#ff8a3d" stroke-width="2.4" opacity="0.63" stroke-linecap="round"/><path d="M525,342 l3.9,-4.1" stroke="#ff8a3d" stroke-width="2.4" opacity="0.91" stroke-linecap="round"/><path d="M640,785 l3.5,-6.4" stroke="#ff8a3d" stroke-width="1.8" opacity="0.57" stroke-linecap="round"/><path d="M193,410 l8.0,-8.3" stroke="#ff8a3d" stroke-width="1.6" opacity="0.90" stroke-linecap="round"/><path d="M884,437 l1.9,-4.5" stroke="#ff8a3d" stroke-width="2.4" opacity="0.42" stroke-linecap="round"/><path d="M638,519 l6.5,-4.1" stroke="#ff8a3d" stroke-width="1.2" opacity="0.48" stroke-linecap="round"/><path d="M409,137 l7.4,-11.8" stroke="#ff8a3d" stroke-width="1.4" opacity="0.43" stroke-linecap="round"/><path d="M566,433 l9.0,-7.2" stroke="#ff8a3d" stroke-width="2.3" opacity="0.98" stroke-linecap="round"/><path d="M616,260 l4.8,-8.4" stroke="#ff8a3d" stroke-width="1.2" opacity="0.68" stroke-linecap="round"/><path d="M643,245 l4.4,-5.8" stroke="#ff8a3d" stroke-width="2.2" opacity="0.71" stroke-linecap="round"/><path d="M553,649 l7.4,-4.7" stroke="#ff8a3d" stroke-width="2.5" opacity="0.45" stroke-linecap="round"/><path d="M839,626 l3.7,-4.1" stroke="#ff8a3d" stroke-width="2.1" opacity="0.95" stroke-linecap="round"/><path d="M339,518 l12.3,-7.8" stroke="#ff8a3d" stroke-width="2.5" opacity="0.68" stroke-linecap="round"/><path d="M586,263 l10.8,-6.6" stroke="#ff8a3d" stroke-width="2.1" opacity="0.83" stroke-linecap="round"/><path d="M192,750 l14.4,-6.4" stroke="#ff8a3d" stroke-width="2.0" opacity="0.87" stroke-linecap="round"/><path d="M288,757 l8.6,-11.4" stroke="#ff8a3d" stroke-width="1.3" opacity="0.66" stroke-linecap="round"/><path d="M495,658 l3.8,-9.1" stroke="#ff8a3d" stroke-width="2.3" opacity="0.44" stroke-linecap="round"/><path d="M720,241 l6.8,-4.3" stroke="#ff8a3d" stroke-width="1.4" opacity="0.49" stroke-linecap="round"/><path d="M465,626 l11.2,-8.5" stroke="#ff8a3d" stroke-width="2.5" opacity="0.70" stroke-linecap="round"/><path d="M854,180 l4.7,-4.7" stroke="#ff8a3d" stroke-width="1.6" opacity="0.84" stroke-linecap="round"/><path d="M575,486 l10.3,-9.6" stroke="#ff8a3d" stroke-width="1.6" opacity="0.63" stroke-linecap="round"/><path d="M761,750 l5.6,-3.2" stroke="#ff8a3d" stroke-width="2.6" opacity="0.71" stroke-linecap="round"/><path d="M516,261 l7.3,-7.5" stroke="#ff8a3d" stroke-width="2.0" opacity="0.42" stroke-linecap="round"/><path d="M872,481 l7.5,-4.7" stroke="#ff8a3d" stroke-width="2.0" opacity="0.69" stroke-linecap="round"/></g><g><path d="M407,512 l10.2,-11.1" stroke="#ff8a3d" stroke-width="1.9" opacity="0.75" stroke-linecap="round"/><path d="M166,478 l9.8,-6.2" stroke="#ff8a3d" stroke-width="1.3" opacity="0.58" stroke-linecap="round"/><path d="M82,687 l4.8,-11.3" stroke="#ff8a3d" stroke-width="2.6" opacity="0.98" stroke-linecap="round"/><path d="M589,551 l2.2,-5.5" stroke="#ff8a3d" stroke-width="1.9" opacity="0.44" stroke-linecap="round"/><path d="M171,289 l2.9,-3.2" stroke="#ff8a3d" stroke-width="1.8" opacity="0.91" stroke-linecap="round"/><path d="M467,568 l7.8,-6.2" stroke="#ff8a3d" stroke-width="1.8" opacity="0.57" stroke-linecap="round"/><path d="M898,817 l11.3,-8.3" stroke="#ff8a3d" stroke-width="1.6" opacity="0.54" stroke-linecap="round"/><path d="M260,169 l8.4,-10.2" stroke="#ff8a3d" stroke-width="2.4" opacity="0.63" stroke-linecap="round"/><path d="M862,713 l2.1,-3.4" stroke="#ff8a3d" stroke-width="2.5" opacity="0.68" stroke-linecap="round"/><path d="M882,398 l3.7,-3.1" stroke="#ff8a3d" stroke-width="2.3" opacity="0.56" stroke-linecap="round"/><path d="M78,353 l12.9,-8.7" stroke="#ff8a3d" stroke-width="1.4" opacity="0.55" stroke-linecap="round"/><path d="M91,162 l6.7,-11.8" stroke="#ff8a3d" stroke-width="2.0" opacity="0.67" stroke-linecap="round"/><path d="M172,632 l4.3,-3.5" stroke="#ff8a3d" stroke-width="1.4" opacity="0.65" stroke-linecap="round"/><path d="M192,309 l13.3,-8.3" stroke="#ff8a3d" stroke-width="1.6" opacity="0.93" stroke-linecap="round"/><path d="M190,396 l11.0,-9.0" stroke="#ff8a3d" stroke-width="1.3" opacity="0.99" stroke-linecap="round"/><path d="M192,301 l7.9,-10.7" stroke="#ff8a3d" stroke-width="1.6" opacity="0.44" stroke-linecap="round"/><path d="M81,528 l5.2,-4.6" stroke="#ff8a3d" stroke-width="1.7" opacity="0.67" stroke-linecap="round"/><path d="M863,459 l9.5,-5.3" stroke="#ff8a3d" stroke-width="1.5" opacity="0.49" stroke-linecap="round"/><path d="M818,692 l3.5,-6.1" stroke="#ff8a3d" stroke-width="2.2" opacity="0.96" stroke-linecap="round"/><path d="M177,785 l11.0,-9.6" stroke="#ff8a3d" stroke-width="1.8" opacity="0.46" stroke-linecap="round"/><path d="M35,794 l5.5,-4.1" stroke="#ff8a3d" stroke-width="1.6" opacity="0.89" stroke-linecap="round"/><path d="M537,325 l5.0,-3.6" stroke="#ff8a3d" stroke-width="1.3" opacity="0.54" stroke-linecap="round"/><path d="M503,717 l6.4,-9.4" stroke="#ff8a3d" stroke-width="2.5" opacity="0.52" stroke-linecap="round"/><path d="M15,308 l3.8,-8.5" stroke="#ff8a3d" stroke-width="1.4" opacity="0.62" stroke-linecap="round"/><path d="M515,212 l7.4,-3.9" stroke="#ff8a3d" stroke-width="2.6" opacity="0.79" stroke-linecap="round"/><path d="M622,529 l2.2,-5.2" stroke="#ff8a3d" stroke-width="1.2" opacity="0.95" stroke-linecap="round"/><path d="M631,794 l3.3,-2.7" stroke="#ff8a3d" stroke-width="1.9" opacity="0.84" stroke-linecap="round"/><path d="M287,820 l3.5,-3.4" stroke="#ff8a3d" stroke-width="2.2" opacity="0.94" stroke-linecap="round"/><path d="M663,613 l12.1,-6.1" stroke="#ff8a3d" stroke-width="1.7" opacity="0.81" stroke-linecap="round"/><path d="M811,730 l7.6,-4.8" stroke="#ff8a3d" stroke-width="2.4" opacity="0.74" stroke-linecap="round"/></g><g filter="url(#smoke)"><ellipse cx="150" cy="820" rx="260" ry="60" fill="#cfd2d6" opacity="0.2"/><ellipse cx="760" cy="830" rx="260" ry="50" fill="#cfd2d6" opacity="0.16"/></g><rect width="900" height="1000" fill="url(#r23)"/><rect width="900" height="1000" filter="url(#grain)" opacity="0.7"/></svg>