<svg xmlns="http://www.w3.org/2000/svg" viewBox="0 0 600 820" width="600" height="820"><defs><filter id="blur8" x="-50%" y="-50%" width="200%" height="200%"><feGaussianBlur stdDeviation="8"/></filter><filter id="blur20" x="-50%" y="-50%" width="200%" height="200%"><feGaussianBlur stdDeviation="20"/></filter><filter id="blur40" x="-50%" y="-50%" width="200%" height="200%"><feGaussianBlur stdDeviation="40"/></filter><filter id="blur3" x="-50%" y="-50%" width="200%" height="200%"><feGaussianBlur stdDeviation="3"/></filter><filter id="grain" x="0" y="0" width="100%" height="100%"><feTurbulence type="fractalNoise" baseFrequency=".9" numOctaves="2" stitchTiles="stitch"/><feColorMatrix values="0 0 0 0 0  0 0 0 0 0  0 0 0 0 0  0 0 0 .06 0"/></filter><linearGradient id="l1" x1="0.500" y1="0.000" x2="0.500" y2="1.000"><stop offset="0.0" stop-color="#2a64c8" stop-opacity="1"/><stop offset="0.5" stop-color="#6998dd" stop-opacity="1"/><stop offset="1.0" stop-color="#a8cdf2" stop-opacity="1"/></linearGradient><linearGradient id="l2" x1="0.000" y1="0.500" x2="1.000" y2="0.500"><stop offset="0.0" stop-color="#c9ccd0" stop-opacity="1"/><stop offset="0.5" stop-color="#eef0f2" stop-opacity="1"/><stop offset="1.0" stop-color="#9da2a8" stop-opacity="1"/></linearGradient><linearGradient id="l3" x1="0.500" y1="0.000" x2="0.500" y2="1.000"><stop offset="0.0" stop-color="#55524d" stop-opacity="1"/><stop offset="1.0" stop-color="#2c2b29" stop-opacity="1"/></linearGradient><linearGradient id="l4" x1="0.000" y1="0.500" x2="1.000" y2="0.500"><stop offset="0.0" stop-color="#393939" stop-opacity="1"/><stop offset="1.0" stop-color="#101010" stop-opacity="1"/></linearGradient><clipPath id="c5"><path d="M40,472 C28,420 60,382 140,366 C230,350 300,330 380,292 L520,150 C535,240 548,210 562,202 C620,186 700,182 760,184 C830,188 880,212 905,250 C935,320 948,260 954,330 C960,400 962,440 958,472 Z"/></clipPath><linearGradient id="l6" x1="0.500" y1="0.000" x2="0.500" y2="1.000"><stop offset="0.0" stop-color="#323232" stop-opacity="1"/><stop offset="0.5" stop-color="#161616" stop-opacity="1"/><stop offset="1.0" stop-color="#121212" stop-opacity="1"/></linearGradient><linearGradient id="l7" x1="0.500" y1="0.000" x2="0.500" y2="1.000"><stop offset="0.0" stop-color="#383838" stop-opacity="1"/><stop offset="0.5" stop-color="#1d1d1d" stop-opacity="1"/><stop offset="1.0" stop-color="#151515" stop-opacity="1"/></linearGradient><linearGradient id="l8" x1="0.500" y1="0.000" x2="0.500" y2="1.000"><stop offset="0.0" stop-color="#323232" stop-opacity="1"/><stop offset="0.5" stop-color="#1b1b1b" stop-opacity="1"/><stop offset="1.0" stop-color="#131313" stop-opacity="1"/></linearGradient><linearGradient id="l9" x1="0.500" y1="0.000" x2="0.500" y2="1.000"><stop offset="0.0" stop-color="#2e2e2e" stop-opacity="1"/><stop offset="0.5" stop-color="#121212" stop-opacity="1"/><stop offset="1.0" stop-color="#0e0e0e" stop-opacity="1"/></linearGradient><linearGradient id="l10" x1="0.500" y1="0.000" x2="0.500" y2="1.000"><stop offset="0.0" stop-color="#333333" stop-opacity="1"/><stop offset="0.5" stop-color="#0f0f0f" stop-opacity="1"/><stop offset="1.0" stop-color="#0b0b0b" stop-opacity="1"/></linearGradient><linearGradient id="l11" x1="0.500" y1="0.000" x2="0.500" y2="1.000"><stop offset="0" stop-color="#ffffff" stop-opacity="0.22"/><stop offset="0.45" stop-color="#ffffff" stop-opacity="0"/><stop offset="0.8" stop-color="#000000" stop-opacity="0"/><stop offset="1" stop-color="#000000" stop-opacity="0.3"/></linearGradient><linearGradient id="l12" x1="0.500" y1="0.000" x2="0.500" y2="1.000"><stop offset="0.0" stop-color="#ddf143" stop-opacity="1"/><stop offset="0.5" stop-color="#d4ee14" stop-opacity="1"/><stop offset="1.0" stop-color="#aec310" stop-opacity="1"/></linearGradient><linearGradient id="l13" x1="0.500" y1="0.000" x2="0.500" y2="1.000"><stop offset="0.0" stop-color="#bcd11a" stop-opacity="1"/><stop offset="1.0" stop-color="#81910a" stop-opacity="1"/></linearGradient><linearGradient id="l14" x1="0.000" y1="0.500" x2="1.000" y2="0.500"><stop offset="0.0" stop-color="#353535" stop-opacity="1"/><stop offset="0.5" stop-color="#141414" stop-opacity="1"/><stop offset="1.0" stop-color="#101010" stop-opacity="1"/></linearGradient><linearGradient id="l15" x1="0.000" y1="0.500" x2="1.000" y2="0.500"><stop offset="0.0" stop-color="#393939" stop-opacity="1"/><stop offset="1.0" stop-color="#101010" stop-opacity="1"/></linearGradient><clipPath id="c16"><path d="M40,472 C28,420 60,382 140,366 C230,350 300,330 380,292 L520,150 C535,240 548,210 562,202 C620,186 700,182 760,184 C830,188 880,212 905,250 C935,320 948,260 954,330 C960,400 962,440 958,472 Z"/></clipPath><linearGradient id="l17" x1="0.500" y1="0.000" x2="0.500" y2="1.000"><stop offset="0.0" stop-color="#323232" stop-opacity="1"/><stop offset="0.5" stop-color="#161616" stop-opacity="1"/><stop offset="1.0" stop-color="#121212" stop-opacity="1"/></linearGradient><linearGradient id="l18" x1="0.500" y1="0.000" x2="0.500" y2="1.000"><stop offset="0.0" stop-color="#383838" stop-opacity="1"/><stop offset="0.5" stop-color="#1d1d1d" stop-opacity="1"/><stop offset="1.0" stop-color="#151515" stop-opacity="1"/></linearGradient><linearGradient id="l19" x1="0.500" y1="0.000" x2="0.500" y2="1.000"><stop offset="0.0" stop-color="#323232" stop-opacity="1"/><stop offset="0.5" stop-color="#1b1b1b" stop-opacity="1"/><stop offset="1.0" stop-color="#131313" stop-opacity="1"/></linearGradient><linearGradient id="l20" x1="0.500" y1="0.000" x2="0.500" y2="1.000"><stop offset="0.0" stop-color="#2e2e2e" stop-opacity="1"/><stop offset="0.5" stop-color="#121212" stop-opacity="1"/><stop offset="1.0" stop-color="#0e0e0e" stop-opacity="1"/></linearGradient><linearGradient id="l21" x1="0.500" y1="0.000" x2="0.500" y2="1.000"><stop offset="0.0" stop-color="#333333" stop-opacity="1"/><stop offset="0.5" stop-color="#0f0f0f" stop-opacity="1"/><stop offset="1.0" stop-color="#0b0b0b" stop-opacity="1"/></linearGradient><linearGradient id="l22" x1="0.500" y1="0.000" x2="0.500" y2="1.000"><stop offset="0" stop-color="#ffffff" stop-opacity="0.22"/><stop offset="0.45" stop-color="#ffffff" stop-opacity="0"/><stop offset="0.8" stop-color="#000000" stop-opacity="0"/><stop offset="1" stop-color="#000000" stop-opacity="0.3"/></linearGradient><linearGradient id="l23" x1="0.500" y1="0.000" x2="0.500" y2="1.000"><stop offset="0.0" stop-color="#ddf143" stop-opacity="1"/><stop offset="0.5" stop-color="#d4ee14" stop-opacity="1"/><stop offset="1.0" stop-color="#aec310" stop-opacity="1"/></linearGradient><linearGradient id="l24" x1="0.500" y1="0.000" x2="0.500" y2="1.000"><stop offset="0.0" stop-color="#bcd11a" stop-opacity="1"/><stop offset="1.0" stop-color="#81910a" stop-opacity="1"/></linearGradient><radialGradient id="r25" cx="0.5" cy="0.5" r="0.5" fx="0.4" fy="0.35"><stop offset="0.0" stop-color="#be9274" stop-opacity="1"/><stop offset="0.5" stop-color="#b07a55" stop-opacity="1"/><stop offset="1.0" stop-color="#7b553c" stop-opacity="1"/></radialGradient></defs><rect width="600" height="820" fill="url(#l1)"/><ellipse cx="115" cy="459" rx="51" ry="31" fill="#ffffff" opacity=".75" filter="url(#blur8)"/><ellipse cx="136" cy="460" rx="65" ry="22" fill="#ffffff" opacity=".75" filter="url(#blur8)"/><ellipse cx="39" cy="456" rx="69" ry="19" fill="#ffffff" opacity=".75" filter="url(#blur8)"/><ellipse cx="134" cy="452" rx="52" ry="19" fill="#ffffff" opacity=".75" filter="url(#blur8)"/><ellipse cx="159" cy="466" rx="84" ry="28" fill="#ffffff" opacity=".75" filter="url(#blur8)"/><ellipse cx="43" cy="455" rx="65" ry="20" fill="#ffffff" opacity=".75" filter="url(#blur8)"/><ellipse cx="530" cy="350" rx="46" ry="33" fill="#ffffff" opacity=".75" filter="url(#blur8)"/><ellipse cx="566" cy="342" rx="57" ry="26" fill="#ffffff" opacity=".75" filter="url(#blur8)"/><ellipse cx="534" cy="328" rx="83" ry="22" fill="#ffffff" opacity=".75" filter="url(#blur8)"/><ellipse cx="605" cy="333" rx="88" ry="32" fill="#ffffff" opacity=".75" filter="url(#blur8)"/><ellipse cx="602" cy="348" rx="69" ry="30" fill="#ffffff" opacity=".75" filter="url(#blur8)"/><ellipse cx="526" cy="340" rx="81" ry="21" fill="#ffffff" opacity=".75" filter="url(#blur8)"/><ellipse cx="543" cy="529" rx="63" ry="24" fill="#ffffff" opacity=".75" filter="url(#blur8)"/><ellipse cx="613" cy="529" rx="41" ry="19" fill="#ffffff" opacity=".75" filter="url(#blur8)"/><ellipse cx="580" cy="546" rx="65" ry="26" fill="#ffffff" opacity=".75" filter="url(#blur8)"/><ellipse cx="560" cy="539" rx="51" ry="28" fill="#ffffff" opacity=".75" filter="url(#blur8)"/><ellipse cx="561" cy="536" rx="49" ry="21" fill="#ffffff" opacity=".75" filter="url(#blur8)"/><ellipse cx="536" cy="544" rx="57" ry="28" fill="#ffffff" opacity=".75" filter="url(#blur8)"/><ellipse cx="132" cy="252" rx="79" ry="24" fill="#ffffff" opacity=".75" filter="url(#blur8)"/><ellipse cx="206" cy="248" rx="85" ry="33" fill="#ffffff" opacity=".75" filter="url(#blur8)"/><ellipse cx="173" cy="257" rx="88" ry="27" fill="#ffffff" opacity=".75" filter="url(#blur8)"/><ellipse cx="230" cy="243" rx="59" ry="22" fill="#ffffff" opacity=".75" filter="url(#blur8)"/><ellipse cx="229" cy="234" rx="43" ry="31" fill="#ffffff" opacity=".75" filter="url(#blur8)"/><ellipse cx="217" cy="243" rx="82" ry="19" fill="#ffffff" opacity=".75" filter="url(#blur8)"/><ellipse cx="145" cy="303" rx="43" ry="23" fill="#ffffff" opacity=".75" filter="url(#blur8)"/><ellipse cx="203" cy="326" rx="77" ry="26" fill="#ffffff" opacity=".75" filter="url(#blur8)"/><ellipse cx="125" cy="325" rx="66" ry="30" fill="#ffffff" opacity=".75" filter="url(#blur8)"/><ellipse cx="98" cy="304" rx="82" ry="31" fill="#ffffff" opacity=".75" filter="url(#blur8)"/><ellipse cx="201" cy="315" rx="61" ry="27" fill="#ffffff" opacity=".75" filter="url(#blur8)"/><ellipse cx="197" cy="307" rx="67" ry="22" fill="#ffffff" opacity=".75" filter="url(#blur8)"/><path d="M0,0 L470,0 L560,820 L0,820 Z" fill="url(#l2)"/><path d="M0,0 L0,820" stroke="#000" stroke-opacity="0.08" stroke-width="7"/><path d="M16,0 L19,820" stroke="#000" stroke-opacity="0.18" stroke-width="7"/><path d="M32,0 L38,820" stroke="#000" stroke-opacity="0.08" stroke-width="7"/><path d="M48,0 L57,820" stroke="#000" stroke-opacity="0.18" stroke-width="7"/><path d="M64,0 L76,820" stroke="#000" stroke-opacity="0.08" stroke-width="7"/><path d="M80,0 L95,820" stroke="#000" stroke-opacity="0.18" stroke-width="7"/><path d="M96,0 L114,820" stroke="#000" stroke-opacity="0.08" stroke-width="7"/><path d="M112,0 L133,820" stroke="#000" stroke-opacity="0.18" stroke-width="7"/><path d="M128,0 L152,820" stroke="#000" stroke-opacity="0.08" stroke-width="7"/><path d="M144,0 L171,820" stroke="#000" stroke-opacity="0.18" stroke-width="7"/><path d="M160,0 L190,820" stroke="#000" stroke-opacity="0.08" stroke-width="7"/><path d="M176,0 L209,820" stroke="#000" stroke-opacity="0.18" stroke-width="7"/><path d="M192,0 L228,820" stroke="#000" stroke-opacity="0.08" stroke-width="7"/><path d="M208,0 L248,820" stroke="#000" stroke-opacity="0.18" stroke-width="7"/><path d="M224,0 L267,820" stroke="#000" stroke-opacity="0.08" stroke-width="7"/><path d="M240,0 L286,820" stroke="#000" stroke-opacity="0.18" stroke-width="7"/><path d="M256,0 L305,820" stroke="#000" stroke-opacity="0.08" stroke-width="7"/><path d="M272,0 L324,820" stroke="#000" stroke-opacity="0.18" stroke-width="7"/><path d="M288,0 L343,820" stroke="#000" stroke-opacity="0.08" stroke-width="7"/><path d="M304,0 L362,820" stroke="#000" stroke-opacity="0.18" stroke-width="7"/><path d="M320,0 L381,820" stroke="#000" stroke-opacity="0.08" stroke-width="7"/><path d="M336,0 L400,820" stroke="#000" stroke-opacity="0.18" stroke-width="7"/><path d="M352,0 L419,820" stroke="#000" stroke-opacity="0.08" stroke-width="7"/><path d="M368,0 L438,820" stroke="#000" stroke-opacity="0.18" stroke-width="7"/><path d="M384,0 L457,820" stroke="#000" stroke-opacity="0.08" stroke-width="7"/><path d="M400,0 L476,820" stroke="#000" stroke-opacity="0.18" stroke-width="7"/><path d="M416,0 L495,820" stroke="#000" stroke-opacity="0.08" stroke-width="7"/><path d="M432,0 L514,820" stroke="#000" stroke-opacity="0.18" stroke-width="7"/><path d="M448,0 L533,820" stroke="#000" stroke-opacity="0.08" stroke-width="7"/><path d="M464,0 L552,820" stroke="#000" stroke-opacity="0.18" stroke-width="7"/><path d="M480,0 L571,820" stroke="#000" stroke-opacity="0.08" stroke-width="7"/><path d="M496,0 L590,820" stroke="#000" stroke-opacity="0.18" stroke-width="7"/><path d="M512,0 L609,820" stroke="#000" stroke-opacity="0.08" stroke-width="7"/><path d="M528,0 L628,820" stroke="#000" stroke-opacity="0.18" stroke-width="7"/><rect x="0" y="690" width="600" height="130" fill="url(#l3)"/><circle cx="575" cy="708" r="1.0" fill="#000" opacity="0.30"/><circle cx="111" cy="706" r="2.3" fill="#000" opacity="0.17"/><circle cx="534" cy="720" r="2.9" fill="#000" opacity="0.16"/><circle cx="361" cy="811" r="2.4" fill="#000" opacity="0.28"/><circle cx="425" cy="696" r="2.8" fill="#000" opacity="0.22"/><circle cx="186" cy="715" r="2.7" fill="#000" opacity="0.22"/><circle cx="563" cy="791" r="2.9" fill="#000" opacity="0.21"/><circle cx="419" cy="770" r="1.5" fill="#000" opacity="0.29"/><circle cx="187" cy="792" r="2.9" fill="#000" opacity="0.23"/><circle cx="85" cy="797" r="2.3" fill="#000" opacity="0.14"/><circle cx="29" cy="759" r="1.1" fill="#000" opacity="0.29"/><circle cx="304" cy="757" r="1.8" fill="#000" opacity="0.23"/><circle cx="550" cy="730" r="1.7" fill="#000" opacity="0.22"/><circle cx="178" cy="767" r="2.1" fill="#000" opacity="0.19"/><circle cx="404" cy="759" r="1.2" fill="#000" opacity="0.30"/><circle cx="213" cy="746" r="1.8" fill="#000" opacity="0.29"/><circle cx="571" cy="757" r="1.8" fill="#000" opacity="0.12"/><circle cx="537" cy="712" r="2.1" fill="#000" opacity="0.17"/><circle cx="197" cy="736" r="1.4" fill="#000" opacity="0.11"/><circle cx="321" cy="793" r="2.3" fill="#000" opacity="0.14"/><circle cx="416" cy="697" r="1.8" fill="#000" opacity="0.27"/><circle cx="553" cy="750" r="2.7" fill="#000" opacity="0.20"/><circle cx="314" cy="766" r="3.0" fill="#000" opacity="0.25"/><circle cx="284" cy="785" r="2.3" fill="#000" opacity="0.17"/><circle cx="471" cy="797" r="2.2" fill="#000" opacity="0.29"/><circle cx="11" cy="755" r="2.3" fill="#000" opacity="0.17"/><circle cx="103" cy="780" r="1.9" fill="#000" opacity="0.15"/><circle cx="25" cy="816" r="1.7" fill="#000" opacity="0.12"/><circle cx="130" cy="723" r="2.7" fill="#000" opacity="0.14"/><circle cx="166" cy="703" r="1.9" fill="#000" opacity="0.14"/><circle cx="206" cy="786" r="2.9" fill="#000" opacity="0.27"/><circle cx="23" cy="739" r="2.7" fill="#000" opacity="0.11"/><circle cx="122" cy="754" r="1.8" fill="#000" opacity="0.25"/><circle cx="431" cy="750" r="1.5" fill="#000" opacity="0.15"/><circle cx="160" cy="698" r="2.3" fill="#000" opacity="0.13"/><circle cx="534" cy="774" r="1.1" fill="#000" opacity="0.20"/><circle cx="362" cy="695" r="2.0" fill="#000" opacity="0.11"/><circle cx="460" cy="691" r="2.3" fill="#000" opacity="0.30"/><circle cx="508" cy="720" r="2.1" fill="#000" opacity="0.13"/><circle cx="205" cy="802" r="2.6" fill="#000" opacity="0.10"/><circle cx="228" cy="773" r="1.4" fill="#000" opacity="0.26"/><circle cx="536" cy="762" r="1.7" fill="#000" opacity="0.27"/><circle cx="308" cy="714" r="1.6" fill="#000" opacity="0.13"/><circle cx="503" cy="756" r="2.4" fill="#000" opacity="0.26"/><circle cx="584" cy="715" r="1.8" fill="#000" opacity="0.27"/><circle cx="457" cy="740" r="2.3" fill="#000" opacity="0.14"/><circle cx="97" cy="697" r="1.8" fill="#000" opacity="0.15"/><circle cx="311" cy="816" r="1.3" fill="#000" opacity="0.21"/><circle cx="519" cy="768" r="2.1" fill="#000" opacity="0.25"/><circle cx="13" cy="813" r="2.4" fill="#000" opacity="0.26"/><circle cx="495" cy="703" r="1.1" fill="#000" opacity="0.14"/><circle cx="303" cy="812" r="2.8" fill="#000" opacity="0.18"/><circle cx="373" cy="786" r="1.7" fill="#000" opacity="0.29"/><circle cx="565" cy="785" r="2.8" fill="#000" opacity="0.26"/><circle cx="391" cy="732" r="1.6" fill="#000" opacity="0.15"/><circle cx="34" cy="810" r="1.6" fill="#000" opacity="0.10"/><circle cx="190" cy="703" r="1.9" fill="#000" opacity="0.17"/><circle cx="105" cy="752" r="1.8" fill="#000" opacity="0.17"/><circle cx="488" cy="730" r="2.1" fill="#000" opacity="0.28"/><circle cx="575" cy="739" r="1.1" fill="#000" opacity="0.29"/><circle cx="308" cy="718" r="1.3" fill="#000" opacity="0.15"/><circle cx="186" cy="708" r="1.1" fill="#000" opacity="0.30"/><circle cx="492" cy="705" r="2.0" fill="#000" opacity="0.26"/><circle cx="303" cy="699" r="1.7" fill="#000" opacity="0.18"/><circle cx="549" cy="766" r="1.9" fill="#000" opacity="0.23"/><circle cx="29" cy="779" r="2.6" fill="#000" opacity="0.23"/><circle cx="217" cy="727" r="1.0" fill="#000" opacity="0.12"/><circle cx="93" cy="749" r="2.6" fill="#000" opacity="0.14"/><circle cx="283" cy="773" r="2.3" fill="#000" opacity="0.10"/><circle cx="552" cy="766" r="1.6" fill="#000" opacity="0.15"/><circle cx="413" cy="811" r="1.7" fill="#000" opacity="0.18"/><circle cx="334" cy="713" r="1.8" fill="#000" opacity="0.28"/><circle cx="334" cy="797" r="1.5" fill="#000" opacity="0.27"/><circle cx="470" cy="719" r="2.1" fill="#000" opacity="0.24"/><circle cx="344" cy="768" r="1.5" fill="#000" opacity="0.21"/><circle cx="213" cy="794" r="1.7" fill="#000" opacity="0.30"/><circle cx="348" cy="720" r="1.8" fill="#000" opacity="0.13"/><circle cx="442" cy="696" r="2.2" fill="#000" opacity="0.16"/><circle cx="466" cy="706" r="2.4" fill="#000" opacity="0.24"/><circle cx="140" cy="707" r="1.7" fill="#000" opacity="0.23"/><circle cx="157" cy="691" r="1.9" fill="#000" opacity="0.26"/><circle cx="95" cy="812" r="2.0" fill="#000" opacity="0.13"/><circle cx="60" cy="738" r="2.0" fill="#000" opacity="0.14"/><circle cx="50" cy="755" r="1.5" fill="#000" opacity="0.19"/><circle cx="270" cy="781" r="2.2" fill="#000" opacity="0.15"/><circle cx="108" cy="802" r="1.1" fill="#000" opacity="0.12"/><circle cx="42" cy="797" r="2.1" fill="#000" opacity="0.28"/><circle cx="376" cy="734" r="1.9" fill="#000" opacity="0.25"/><circle cx="139" cy="794" r="1.8" fill="#000" opacity="0.11"/><circle cx="206" cy="763" r="1.3" fill="#000" opacity="0.28"/><circle cx="556" cy="756" r="2.8" fill="#000" opacity="0.24"/><circle cx="323" cy="711" r="2.9" fill="#000" opacity="0.28"/><circle cx="271" cy="740" r="1.1" fill="#000" opacity="0.22"/><circle cx="513" cy="741" r="1.6" fill="#000" opacity="0.22"/><circle cx="476" cy="712" r="1.6" fill="#000" opacity="0.23"/><circle cx="25" cy="796" r="1.6" fill="#000" opacity="0.27"/><circle cx="273" cy="712" r="1.0" fill="#000" opacity="0.12"/><circle cx="156" cy="788" r="2.6" fill="#000" opacity="0.23"/><circle cx="184" cy="776" r="2.5" fill="#000" opacity="0.17"/><circle cx="49" cy="751" r="1.4" fill="#000" opacity="0.14"/><circle cx="234" cy="700" r="2.8" fill="#000" opacity="0.16"/><circle cx="539" cy="786" r="1.0" fill="#000" opacity="0.28"/><circle cx="486" cy="758" r="2.8" fill="#000" opacity="0.20"/><circle cx="15" cy="709" r="1.6" fill="#000" opacity="0.27"/><circle cx="498" cy="705" r="1.7" fill="#000" opacity="0.12"/><circle cx="137" cy="736" r="1.8" fill="#000" opacity="0.13"/><circle cx="395" cy="721" r="2.8" fill="#000" opacity="0.20"/><circle cx="258" cy="790" r="1.7" fill="#000" opacity="0.15"/><circle cx="74" cy="728" r="1.5" fill="#000" opacity="0.25"/><circle cx="213" cy="782" r="1.6" fill="#000" opacity="0.11"/><circle cx="183" cy="741" r="2.8" fill="#000" opacity="0.14"/><circle cx="127" cy="710" r="1.5" fill="#000" opacity="0.29"/><circle cx="559" cy="720" r="1.1" fill="#000" opacity="0.20"/><circle cx="351" cy="705" r="1.8" fill="#000" opacity="0.25"/><circle cx="1" cy="783" r="2.4" fill="#000" opacity="0.26"/><circle cx="292" cy="750" r="2.0" fill="#000" opacity="0.13"/><circle cx="308" cy="721" r="1.6" fill="#000" opacity="0.11"/><circle cx="95" cy="697" r="2.1" fill="#000" opacity="0.15"/><circle cx="333" cy="755" r="1.5" fill="#000" opacity="0.13"/><circle cx="358" cy="778" r="2.4" fill="#000" opacity="0.20"/><circle cx="348" cy="693" r="1.6" fill="#000" opacity="0.26"/><circle cx="226" cy="704" r="1.8" fill="#000" opacity="0.27"/><circle cx="59" cy="705" r="2.0" fill="#000" opacity="0.27"/><circle cx="234" cy="722" r="2.5" fill="#000" opacity="0.12"/><circle cx="177" cy="768" r="2.7" fill="#000" opacity="0.27"/><circle cx="195" cy="725" r="1.7" fill="#000" opacity="0.12"/><circle cx="164" cy="790" r="3.0" fill="#000" opacity="0.15"/><circle cx="43" cy="786" r="2.9" fill="#000" opacity="0.26"/><circle cx="248" cy="787" r="2.5" fill="#000" opacity="0.25"/><circle cx="296" cy="820" r="2.6" fill="#000" opacity="0.15"/><circle cx="258" cy="702" r="1.7" fill="#000" opacity="0.26"/><circle cx="292" cy="758" r="2.6" fill="#000" opacity="0.12"/><circle cx="212" cy="753" r="2.0" fill="#000" opacity="0.24"/><circle cx="562" cy="794" r="2.1" fill="#000" opacity="0.24"/><circle cx="323" cy="818" r="2.2" fill="#000" opacity="0.22"/><circle cx="238" cy="745" r="2.5" fill="#000" opacity="0.17"/><circle cx="542" cy="785" r="2.9" fill="#000" opacity="0.24"/><circle cx="342" cy="738" r="1.0" fill="#000" opacity="0.23"/><circle cx="451" cy="784" r="2.5" fill="#000" opacity="0.11"/><circle cx="410" cy="726" r="1.8" fill="#000" opacity="0.27"/><circle cx="243" cy="751" r="1.1" fill="#000" opacity="0.14"/><circle cx="126" cy="718" r="2.0" fill="#000" opacity="0.11"/><circle cx="53" cy="701" r="2.5" fill="#000" opacity="0.29"/><circle cx="450" cy="757" r="1.3" fill="#000" opacity="0.26"/><circle cx="78" cy="700" r="2.0" fill="#000" opacity="0.27"/><circle cx="186" cy="802" r="1.7" fill="#000" opacity="0.29"/><circle cx="443" cy="802" r="3.0" fill="#000" opacity="0.26"/><circle cx="118" cy="757" r="2.1" fill="#000" opacity="0.24"/><circle cx="138" cy="765" r="1.6" fill="#000" opacity="0.14"/><circle cx="270" cy="794" r="2.1" fill="#000" opacity="0.17"/><circle cx="135" cy="737" r="1.8" fill="#000" opacity="0.15"/><circle cx="187" cy="720" r="1.6" fill="#000" opacity="0.23"/><circle cx="375" cy="771" r="2.8" fill="#000" opacity="0.23"/><circle cx="78" cy="742" r="2.0" fill="#000" opacity="0.25"/><circle cx="318" cy="702" r="2.0" fill="#000" opacity="0.23"/><circle cx="471" cy="748" r="1.4" fill="#000" opacity="0.11"/><circle cx="302" cy="787" r="1.2" fill="#000" opacity="0.20"/><circle cx="358" cy="763" r="1.5" fill="#000" opacity="0.12"/><circle cx="13" cy="730" r="2.8" fill="#000" opacity="0.18"/><circle cx="592" cy="797" r="2.2" fill="#000" opacity="0.19"/><circle cx="337" cy="799" r="1.7" fill="#000" opacity="0.13"/><circle cx="539" cy="772" r="1.8" fill="#000" opacity="0.18"/><circle cx="61" cy="764" r="2.6" fill="#000" opacity="0.20"/><circle cx="418" cy="786" r="1.7" fill="#000" opacity="0.23"/><circle cx="583" cy="783" r="1.4" fill="#000" opacity="0.23"/><circle cx="387" cy="791" r="2.4" fill="#000" opacity="0.28"/><circle cx="586" cy="717" r="2.0" fill="#000" opacity="0.11"/><circle cx="592" cy="704" r="1.9" fill="#000" opacity="0.22"/><circle cx="258" cy="712" r="2.0" fill="#000" opacity="0.14"/><circle cx="294" cy="783" r="1.6" fill="#000" opacity="0.19"/><circle cx="379" cy="759" r="2.6" fill="#000" opacity="0.28"/><circle cx="580" cy="711" r="2.0" fill="#000" opacity="0.12"/><circle cx="419" cy="741" r="2.7" fill="#000" opacity="0.20"/><circle cx="479" cy="694" r="2.2" fill="#000" opacity="0.18"/><circle cx="500" cy="703" r="1.2" fill="#000" opacity="0.24"/><circle cx="196" cy="747" r="1.8" fill="#000" opacity="0.30"/><circle cx="374" cy="798" r="2.7" fill="#000" opacity="0.27"/><circle cx="268" cy="728" r="2.0" fill="#000" opacity="0.28"/><circle cx="530" cy="752" r="2.8" fill="#000" opacity="0.25"/><circle cx="24" cy="772" r="2.6" fill="#000" opacity="0.11"/><circle cx="227" cy="774" r="2.0" fill="#000" opacity="0.21"/><circle cx="54" cy="724" r="2.7" fill="#000" opacity="0.17"/><circle cx="287" cy="767" r="1.6" fill="#000" opacity="0.18"/><circle cx="303" cy="803" r="2.7" fill="#000" opacity="0.14"/><circle cx="302" cy="788" r="2.8" fill="#000" opacity="0.21"/><circle cx="379" cy="774" r="2.3" fill="#000" opacity="0.28"/><circle cx="591" cy="819" r="1.2" fill="#000" opacity="0.24"/><circle cx="233" cy="726" r="1.2" fill="#000" opacity="0.28"/><circle cx="536" cy="759" r="2.0" fill="#000" opacity="0.14"/><circle cx="556" cy="788" r="1.3" fill="#000" opacity="0.21"/><circle cx="598" cy="724" r="1.7" fill="#000" opacity="0.17"/><circle cx="223" cy="705" r="2.3" fill="#000" opacity="0.15"/><circle cx="408" cy="751" r="2.7" fill="#000" opacity="0.25"/><circle cx="515" cy="710" r="2.6" fill="#000" opacity="0.25"/><circle cx="175" cy="690" r="1.2" fill="#000" opacity="0.25"/><circle cx="581" cy="699" r="1.5" fill="#000" opacity="0.18"/><circle cx="41" cy="773" r="2.7" fill="#000" opacity="0.27"/><circle cx="107" cy="808" r="2.6" fill="#000" opacity="0.13"/><circle cx="512" cy="811" r="2.8" fill="#000" opacity="0.25"/><circle cx="490" cy="759" r="1.0" fill="#000" opacity="0.24"/><ellipse cx="330" cy="760" rx="200" ry="20" fill="#000000" opacity="0.6" filter="url(#blur20)"/><path d="M370,248 L420,330 L460,260" stroke="#141414" stroke-width="48.300000000000004" stroke-linecap="round" stroke-linejoin="round" fill="none"/><path d="M361,243 L411,325 L451,255" stroke="#5f5f5f" stroke-width="15" stroke-linecap="round" stroke-linejoin="round" fill="none" opacity=".55"/><circle cx="460" cy="260" r="20" fill="#111111"/><ellipse cx="468" cy="281" rx="16" ry="23" fill="#b07a55"/><path d="M350,470 L400,570 L420,720" stroke="#141414" stroke-width="67.2" stroke-linecap="round" stroke-linejoin="round" fill="none"/><path d="M338,463 L388,563 L408,713" stroke="#5f5f5f" stroke-width="22" stroke-linecap="round" stroke-linejoin="round" fill="none" opacity=".55"/><rect x="356" y="505" width="38" height="29" rx="4" fill="#2c2c2c" opacity=".8" transform="rotate(-27 375 520)"/><path d="M420,693 L420,733" stroke="#f2f2f2" stroke-width="42" stroke-linecap="round"/><g transform="translate(283.91999999999996 691.65) rotate(6 94.5 56.7) scale(0.189)"><ellipse cx="500" cy="585" rx="470" ry="22" fill="#000" opacity=".45" filter="url(#blur8)"/><path d="M500,200 C505,225 520,165 560,157 C600,151 640,159 650,185 L640,260 Z" fill="url(#l4)"/><rect x="555" y="169" width="60" height="34" rx="6" fill="#1d1d1d" transform="rotate(-8 585 185)"/><rect x="565" y="177" width="40" height="5" rx="2" fill="#fff" opacity=".8" transform="rotate(-8 585 185)"/><path d="M40,472 C28,420 60,382 140,366 C230,350 300,330 380,292 L520,150 C535,240 548,210 562,202 C620,186 700,182 760,184 C830,188 880,212 905,250 C935,320 948,260 954,330 C960,400 962,440 958,472 Z" fill="url(#l6)"/><g clip-path="url(#c5)"><path d="M20,480 C18,420 60,376 140,362 C205,352 248,360 275,388 C305,418 335,428 410,430 L705,432 C722,434 732,452 735,480 Z" fill="url(#l7)"/><path d="M700,480 C688,420 700,338 765,305 C830,276 905,300 970,330 L970,480 Z" fill="url(#l8)"/><path d="M548,170 L990,150 L990,286 C900,264 760,252 640,254 C600,254 575,242 548,230 Z" fill="url(#l9)"/><path d="M362,306 L512,156 C528,240 545,212 560,202 L622,212 C606,270 596,310 572,208 L446,338 C420,350 390,345 362,306 Z" fill="url(#l10)"/><path d="M330,430 L520,300 L505,352 L690,236 L560,392 L575,346 Z" fill="#f1f1ee"/><path d="M400,430 L590,300 L575,352 L760,236 L630,392 L645,346 Z" fill="#f1f1ee"/><path d="M60,452 C50,410 80,388 140,378 C200,368 240,372 262,398 C292,432 330,442 410,444 L700,446" fill="none" stroke="#ffffff" stroke-opacity=".28" stroke-width="3" stroke-dasharray="9 7"/><path d="M716,456 C708,410 716,348 770,320 C830,292 900,312 950,342" fill="none" stroke="#ffffff" stroke-opacity=".28" stroke-width="3" stroke-dasharray="9 7"/><path d="M380,316 L522,170" fill="none" stroke="#ffffff" stroke-opacity=".28" stroke-width="3" stroke-dasharray="9 7"/><path d="M600,220 C590,280 580,320 560,212" fill="none" stroke="#ffffff" stroke-opacity=".28" stroke-width="3" stroke-dasharray="9 7"/><rect x="0" y="0" width="1000" height="600" fill="url(#l11)"/><path d="M80,420 C90,392 120,382 170,376" stroke="#fff" stroke-opacity=".55" stroke-width="10" stroke-linecap="round" fill="none"/></g><path d="M560,202 C640,188 760,186 905,250 C860,230 760,224 640,230 C600,232 575,220 560,202 Z" fill="#0b0b0b"/><circle cx="414" cy="318" r="7" fill="#222" stroke="#999" stroke-width="2"/><path d="M366,284 L422,314" stroke="#121212" stroke-width="15" stroke-linecap="round"/><path d="M374,310 L418,280" stroke="#101010" stroke-width="13" stroke-linecap="round"/><circle cx="453" cy="302" r="7" fill="#222" stroke="#999" stroke-width="2"/><path d="M405,268 L461,298" stroke="#121212" stroke-width="15" stroke-linecap="round"/><path d="M413,294 L457,264" stroke="#101010" stroke-width="13" stroke-linecap="round"/><circle cx="492" cy="287" r="7" fill="#222" stroke="#999" stroke-width="2"/><path d="M444,253 L500,283" stroke="#121212" stroke-width="15" stroke-linecap="round"/><path d="M452,279 L496,249" stroke="#101010" stroke-width="13" stroke-linecap="round"/><circle cx="531" cy="272" r="7" fill="#222" stroke="#999" stroke-width="2"/><path d="M483,238 L539,268" stroke="#121212" stroke-width="15" stroke-linecap="round"/><path d="M491,264 L535,234" stroke="#101010" stroke-width="13" stroke-linecap="round"/><circle cx="570" cy="256" r="7" fill="#222" stroke="#999" stroke-width="2"/><path d="M522,222 L578,252" stroke="#121212" stroke-width="15" stroke-linecap="round"/><path d="M530,248 L574,218" stroke="#101010" stroke-width="13" stroke-linecap="round"/><path d="M905,250 C930,230 950,250 945,300" stroke="#161616" stroke-width="12" fill="none" stroke-linecap="round"/><path d="M24,468 C18,500 30,528 66,534 L934,534 C960,530 968,505 962,466 C700,476 300,476 24,468 Z" fill="url(#l12)"/><path d="M40,505 L950,505" stroke="#9fb20f" stroke-width="3" opacity=".7"/><path d="M30,526 C26,560 60,580 112,580 L880,580 C930,580 966,562 962,526 Z" fill="url(#l13)"/><path d="M70,560 l14,18" stroke="#000" stroke-opacity=".25" stroke-width="5"/><path d="M110,560 l14,18" stroke="#000" stroke-opacity=".25" stroke-width="5"/><path d="M150,560 l14,18" stroke="#000" stroke-opacity=".25" stroke-width="5"/><path d="M190,560 l14,18" stroke="#000" stroke-opacity=".25" stroke-width="5"/><path d="M230,560 l14,18" stroke="#000" stroke-opacity=".25" stroke-width="5"/><path d="M270,560 l14,18" stroke="#000" stroke-opacity=".25" stroke-width="5"/><path d="M310,560 l14,18" stroke="#000" stroke-opacity=".25" stroke-width="5"/><path d="M350,560 l14,18" stroke="#000" stroke-opacity=".25" stroke-width="5"/><path d="M390,560 l14,18" stroke="#000" stroke-opacity=".25" stroke-width="5"/><path d="M430,560 l14,18" stroke="#000" stroke-opacity=".25" stroke-width="5"/><path d="M470,560 l14,18" stroke="#000" stroke-opacity=".25" stroke-width="5"/><path d="M510,560 l14,18" stroke="#000" stroke-opacity=".25" stroke-width="5"/><path d="M550,560 l14,18" stroke="#000" stroke-opacity=".25" stroke-width="5"/><path d="M590,560 l14,18" stroke="#000" stroke-opacity=".25" stroke-width="5"/><path d="M630,560 l14,18" stroke="#000" stroke-opacity=".25" stroke-width="5"/><path d="M670,560 l14,18" stroke="#000" stroke-opacity=".25" stroke-width="5"/><path d="M710,560 l14,18" stroke="#000" stroke-opacity=".25" stroke-width="5"/><path d="M750,560 l14,18" stroke="#000" stroke-opacity=".25" stroke-width="5"/><path d="M790,560 l14,18" stroke="#000" stroke-opacity=".25" stroke-width="5"/><path d="M830,560 l14,18" stroke="#000" stroke-opacity=".25" stroke-width="5"/><path d="M870,560 l14,18" stroke="#000" stroke-opacity=".25" stroke-width="5"/><path d="M910,560 l14,18" stroke="#000" stroke-opacity=".25" stroke-width="5"/></g><path d="M265,250 L370,248 L350,470 L285,470 Z" fill="url(#l14)" stroke="#141414" stroke-width="46" stroke-linejoin="round"/><rect x="263" y="376" width="109" height="61" rx="13" fill="#121212" opacity=".9"/><path d="M303,255 l-3,63" stroke="#7e7e7e" stroke-width="4.2" stroke-linecap="round"/><path d="M332,255 l3,63" stroke="#7e7e7e" stroke-width="4.2" stroke-linecap="round"/><path d="M279,470 L356,470" stroke="#101010" stroke-width="17" stroke-linecap="round"/><path d="M285,470 L220,590 L150,700" stroke="#141414" stroke-width="67.2" stroke-linecap="round" stroke-linejoin="round" fill="none"/><path d="M273,463 L208,583 L138,693" stroke="#5f5f5f" stroke-width="22" stroke-linecap="round" stroke-linejoin="round" fill="none" opacity=".55"/><rect x="234" y="515" width="38" height="29" rx="4" fill="#2c2c2c" opacity=".8" transform="rotate(28 252 530)"/><path d="M150,673 L150,713" stroke="#f2f2f2" stroke-width="42" stroke-linecap="round"/><g transform="translate(13.919999999999987 671.65) rotate(-14 94.5 56.7) scale(0.189)"><ellipse cx="500" cy="585" rx="470" ry="22" fill="#000" opacity=".45" filter="url(#blur8)"/><path d="M500,200 C505,225 520,165 560,157 C600,151 640,159 650,185 L640,260 Z" fill="url(#l15)"/><rect x="555" y="169" width="60" height="34" rx="6" fill="#1d1d1d" transform="rotate(-8 585 185)"/><rect x="565" y="177" width="40" height="5" rx="2" fill="#fff" opacity=".8" transform="rotate(-8 585 185)"/><path d="M40,472 C28,420 60,382 140,366 C230,350 300,330 380,292 L520,150 C535,240 548,210 562,202 C620,186 700,182 760,184 C830,188 880,212 905,250 C935,320 948,260 954,330 C960,400 962,440 958,472 Z" fill="url(#l17)"/><g clip-path="url(#c16)"><path d="M20,480 C18,420 60,376 140,362 C205,352 248,360 275,388 C305,418 335,428 410,430 L705,432 C722,434 732,452 735,480 Z" fill="url(#l18)"/><path d="M700,480 C688,420 700,338 765,305 C830,276 905,300 970,330 L970,480 Z" fill="url(#l19)"/><path d="M548,170 L990,150 L990,286 C900,264 760,252 640,254 C600,254 575,242 548,230 Z" fill="url(#l20)"/><path d="M362,306 L512,156 C528,240 545,212 560,202 L622,212 C606,270 596,310 572,208 L446,338 C420,350 390,345 362,306 Z" fill="url(#l21)"/><path d="M330,430 L520,300 L505,352 L690,236 L560,392 L575,346 Z" fill="#f1f1ee"/><path d="M400,430 L590,300 L575,352 L760,236 L630,392 L645,346 Z" fill="#f1f1ee"/><path d="M60,452 C50,410 80,388 140,378 C200,368 240,372 262,398 C292,432 330,442 410,444 L700,446" fill="none" stroke="#ffffff" stroke-opacity=".28" stroke-width="3" stroke-dasharray="9 7"/><path d="M716,456 C708,410 716,348 770,320 C830,292 900,312 950,342" fill="none" stroke="#ffffff" stroke-opacity=".28" stroke-width="3" stroke-dasharray="9 7"/><path d="M380,316 L522,170" fill="none" stroke="#ffffff" stroke-opacity=".28" stroke-width="3" stroke-dasharray="9 7"/><path d="M600,220 C590,280 580,320 560,212" fill="none" stroke="#ffffff" stroke-opacity=".28" stroke-width="3" stroke-dasharray="9 7"/><rect x="0" y="0" width="1000" height="600" fill="url(#l22)"/><path d="M80,420 C90,392 120,382 170,376" stroke="#fff" stroke-opacity=".55" stroke-width="10" stroke-linecap="round" fill="none"/></g><path d="M560,202 C640,188 760,186 905,250 C860,230 760,224 640,230 C600,232 575,220 560,202 Z" fill="#0b0b0b"/><circle cx="414" cy="318" r="7" fill="#222" stroke="#999" stroke-width="2"/><path d="M366,284 L422,314" stroke="#121212" stroke-width="15" stroke-linecap="round"/><path d="M374,310 L418,280" stroke="#101010" stroke-width="13" stroke-linecap="round"/><circle cx="453" cy="302" r="7" fill="#222" stroke="#999" stroke-width="2"/><path d="M405,268 L461,298" stroke="#121212" stroke-width="15" stroke-linecap="round"/><path d="M413,294 L457,264" stroke="#101010" stroke-width="13" stroke-linecap="round"/><circle cx="492" cy="287" r="7" fill="#222" stroke="#999" stroke-width="2"/><path d="M444,253 L500,283" stroke="#121212" stroke-width="15" stroke-linecap="round"/><path d="M452,279 L496,249" stroke="#101010" stroke-width="13" stroke-linecap="round"/><circle cx="531" cy="272" r="7" fill="#222" stroke="#999" stroke-width="2"/><path d="M483,238 L539,268" stroke="#121212" stroke-width="15" stroke-linecap="round"/><path d="M491,264 L535,234" stroke="#101010" stroke-width="13" stroke-linecap="round"/><circle cx="570" cy="256" r="7" fill="#222" stroke="#999" stroke-width="2"/><path d="M522,222 L578,252" stroke="#121212" stroke-width="15" stroke-linecap="round"/><path d="M530,248 L574,218" stroke="#101010" stroke-width="13" stroke-linecap="round"/><path d="M905,250 C930,230 950,250 945,300" stroke="#161616" stroke-width="12" fill="none" stroke-linecap="round"/><path d="M24,468 C18,500 30,528 66,534 L934,534 C960,530 968,505 962,466 C700,476 300,476 24,468 Z" fill="url(#l23)"/><path d="M40,505 L950,505" stroke="#9fb20f" stroke-width="3" opacity=".7"/><path d="M30,526 C26,560 60,580 112,580 L880,580 C930,580 966,562 962,526 Z" fill="url(#l24)"/><path d="M70,560 l14,18" stroke="#000" stroke-opacity=".25" stroke-width="5"/><path d="M110,560 l14,18" stroke="#000" stroke-opacity=".25" stroke-width="5"/><path d="M150,560 l14,18" stroke="#000" stroke-opacity=".25" stroke-width="5"/><path d="M190,560 l14,18" stroke="#000" stroke-opacity=".25" stroke-width="5"/><path d="M230,560 l14,18" stroke="#000" stroke-opacity=".25" stroke-width="5"/><path d="M270,560 l14,18" stroke="#000" stroke-opacity=".25" stroke-width="5"/><path d="M310,560 l14,18" stroke="#000" stroke-opacity=".25" stroke-width="5"/><path d="M350,560 l14,18" stroke="#000" stroke-opacity=".25" stroke-width="5"/><path d="M390,560 l14,18" stroke="#000" stroke-opacity=".25" stroke-width="5"/><path d="M430,560 l14,18" stroke="#000" stroke-opacity=".25" stroke-width="5"/><path d="M470,560 l14,18" stroke="#000" stroke-opacity=".25" stroke-width="5"/><path d="M510,560 l14,18" stroke="#000" stroke-opacity=".25" stroke-width="5"/><path d="M550,560 l14,18" stroke="#000" stroke-opacity=".25" stroke-width="5"/><path d="M590,560 l14,18" stroke="#000" stroke-opacity=".25" stroke-width="5"/><path d="M630,560 l14,18" stroke="#000" stroke-opacity=".25" stroke-width="5"/><path d="M670,560 l14,18" stroke="#000" stroke-opacity=".25" stroke-width="5"/><path d="M710,560 l14,18" stroke="#000" stroke-opacity=".25" stroke-width="5"/><path d="M750,560 l14,18" stroke="#000" stroke-opacity=".25" stroke-width="5"/><path d="M790,560 l14,18" stroke="#000" stroke-opacity=".25" stroke-width="5"/><path d="M830,560 l14,18" stroke="#000" stroke-opacity=".25" stroke-width="5"/><path d="M870,560 l14,18" stroke="#000" stroke-opacity=".25" stroke-width="5"/><path d="M910,560 l14,18" stroke="#000" stroke-opacity=".25" stroke-width="5"/></g><path d="M320,182 L318,210" stroke="#966848" stroke-width="32" stroke-linecap="round"/><ellipse cx="318" cy="216" rx="61" ry="25" fill="#0f0f0f"/><ellipse cx="320" cy="150" rx="38" ry="46" fill="url(#r25)"/><ellipse cx="326" cy="169" rx="29" ry="21" fill="#724f37" opacity=".35"/><path d="M298,142 h17" stroke="#463122" stroke-width="4.2" stroke-linecap="round"/><path d="M325,142 h17" stroke="#463122" stroke-width="4.2" stroke-linecap="round"/><path d="M278,135 C278,81 362,81 362,135 Z" fill="#111111"/><path d="M274,135 C299,146 352,144 375,133" stroke="#0c0c0c" stroke-width="10" stroke-linecap="round" fill="none"/><path d="M265,250 L220,350 L250,440" stroke="#141414" stroke-width="48.300000000000004" stroke-linecap="round" stroke-linejoin="round" fill="none"/><path d="M256,245 L211,345 L241,435" stroke="#5f5f5f" stroke-width="15" stroke-linecap="round" stroke-linejoin="round" fill="none" opacity=".55"/><circle cx="250" cy="440" r="20" fill="#111111"/><ellipse cx="258" cy="461" rx="16" ry="23" fill="#b07a55"/><rect width="600" height="820" filter="url(#grain)" opacity="0.6"/></svg>