<svg xmlns="http://www.w3.org/2000/svg" viewBox="0 0 700 300" width="700" height="300"><defs><filter id="blur8" x="-50%" y="-50%" width="200%" height="200%"><feGaussianBlur stdDeviation="8"/></filter><filter id="blur20" x="-50%" y="-50%" width="200%" height="200%"><feGaussianBlur stdDeviation="20"/></filter><filter id="blur40" x="-50%" y="-50%" width="200%" height="200%"><feGaussianBlur stdDeviation="40"/></filter><filter id="blur3" x="-50%" y="-50%" width="200%" height="200%"><feGaussianBlur stdDeviation="3"/></filter><filter id="grain" x="0" y="0" width="100%" height="100%"><feTurbulence type="fractalNoise" baseFrequency=".9" numOctaves="2" stitchTiles="stitch"/><feColorMatrix values="0 0 0 0 0  0 0 0 0 0  0 0 0 0 0  0 0 0 .06 0"/></filter><linearGradient id="l1" x1="0.000" y1="0.500" x2="1.000" y2="0.500"><stop offset="0.0" stop-color="#5a0f22" stop-opacity="1"/><stop offset="1.0" stop-color="#4a0a1b" stop-opacity="1"/></linearGradient><radialGradient id="r2" cx="0.5" cy="0.5" r="0.5" fx="0.4" fy="0.35"><stop offset="0" stop-color="#f5c6d3" stop-opacity="1"/><stop offset="0.6" stop-color="#f0a8bb" stop-opacity="1"/><stop offset="1" stop-color="#9c6d7a" stop-opacity="1"/></radialGradient><radialGradient id="r3" cx="0.5" cy="0.5" r="0.5" fx="0.4" fy="0.35"><stop offset="0" stop-color="#f5c6d3" stop-opacity="1"/><stop offset="0.6" stop-color="#f0a8bb" stop-opacity="1"/><stop offset="1" stop-color="#9c6d7a" stop-opacity="1"/></radialGradient><radialGradient id="r4" cx="0.5" cy="0.5" r="0.5" fx="0.4" fy="0.35"><stop offset="0" stop-color="#f5c6d3" stop-opacity="1"/><stop offset="0.6" stop-color="#f0a8bb" stop-opacity="1"/><stop offset="1" stop-color="#9c6d7a" stop-opacity="1"/></radialGradient><radialGradient id="r5" cx="0.5" cy="0.5" r="0.5" fx="0.4" fy="0.35"><stop offset="0" stop-color="#f5c6d3" stop-opacity="1"/><stop offset="0.6" stop-color="#f0a8bb" stop-opacity="1"/><stop offset="1" stop-color="#9c6d7a" stop-opacity="1"/></radialGradient><radialGradient id="r6" cx="0.5" cy="0.5" r="0.5" fx="0.4" fy="0.35"><stop offset="0" stop-color="#f5c6d3" stop-opacity="1"/><stop offset="0.6" stop-color="#f0a8bb" stop-opacity="1"/><stop offset="1" stop-color="#9c6d7a" stop-opacity="1"/></radialGradient><radialGradient id="r7" cx="0.5" cy="0.5" r="0.5" fx="0.4" fy="0.35"><stop offset="0" stop-color="#f2c1ce" stop-opacity="1"/><stop offset="0.6" stop-color="#eba0b4" stop-opacity="1"/><stop offset="1" stop-color="#996875" stop-opacity="1"/></radialGradient><radialGradient id="r8" cx="0.5" cy="0.5" r="0.5" fx="0.4" fy="0.35"><stop offset="0" stop-color="#f2c1ce" stop-opacity="1"/><stop offset="0.6" stop-color="#eba0b4" stop-opacity="1"/><stop offset="1" stop-color="#996875" stop-opacity="1"/></radialGradient><radialGradient id="r9" cx="0.5" cy="0.5" r="0.5" fx="0.4" fy="0.35"><stop offset="0" stop-color="#f2c1ce" stop-opacity="1"/><stop offset="0.6" stop-color="#eba0b4" stop-opacity="1"/><stop offset="1" stop-color="#996875" stop-opacity="1"/></radialGradient><radialGradient id="r10" cx="0.5" cy="0.5" r="0.5" fx="0.4" fy="0.35"><stop offset="0" stop-color="#f2c1ce" stop-opacity="1"/><stop offset="0.6" stop-color="#eba0b4" stop-opacity="1"/><stop offset="1" stop-color="#996875" stop-opacity="1"/></radialGradient><radialGradient id="r11" cx="0.5" cy="0.5" r="0.5" fx="0.4" fy="0.35"><stop offset="0" stop-color="#f2c1ce" stop-opacity="1"/><stop offset="0.6" stop-color="#eba0b4" stop-opacity="1"/><stop offset="1" stop-color="#996875" stop-opacity="1"/></radialGradient><radialGradient id="r12" cx="0.5" cy="0.5" r="0.5" fx="0.4" fy="0.35"><stop offset="0" stop-color="#f7d0da" stop-opacity="1"/><stop offset="0.6" stop-color="#f3b7c6" stop-opacity="1"/><stop offset="1" stop-color="#9e7781" stop-opacity="1"/></radialGradient><radialGradient id="r13" cx="0.5" cy="0.5" r="0.5" fx="0.4" fy="0.35"><stop offset="0" stop-color="#f7d0da" stop-opacity="1"/><stop offset="0.6" stop-color="#f3b7c6" stop-opacity="1"/><stop offset="1" stop-color="#9e7781" stop-opacity="1"/></radialGradient><radialGradient id="r14" cx="0.5" cy="0.5" r="0.5" fx="0.4" fy="0.35"><stop offset="0" stop-color="#f7d0da" stop-opacity="1"/><stop offset="0.6" stop-color="#f3b7c6" stop-opacity="1"/><stop offset="1" stop-color="#9e7781" stop-opacity="1"/></radialGradient><radialGradient id="r15" cx="0.5" cy="0.5" r="0.5" fx="0.4" fy="0.35"><stop offset="0" stop-color="#f7d0da" stop-opacity="1"/><stop offset="0.6" stop-color="#f3b7c6" stop-opacity="1"/><stop offset="1" stop-color="#9e7781" stop-opacity="1"/></radialGradient><radialGradient id="r16" cx="0.5" cy="0.5" r="0.5" fx="0.4" fy="0.35"><stop offset="0" stop-color="#f7d0da" stop-opacity="1"/><stop offset="0.6" stop-color="#f3b7c6" stop-opacity="1"/><stop offset="1" stop-color="#9e7781" stop-opacity="1"/></radialGradient><linearGradient id="l17" x1="0.250" y1="0.067" x2="0.750" y2="0.933"><stop offset="0.0" stop-color="#879e6b" stop-opacity="1"/><stop offset="0.5" stop-color="#5f7d3a" stop-opacity="1"/><stop offset="1.0" stop-color="#425829" stop-opacity="1"/></linearGradient></defs><rect width="700" height="300" fill="url(#l1)"/><ellipse cx="213.6" cy="146.2" rx="66.0" ry="48.0" transform="rotate(97 213.6 146.2)" fill="url(#r2)" stroke="#9c6d7a" stroke-opacity=".35" stroke-width="1"/><ellipse cx="197.1" cy="179.2" rx="66.0" ry="48.0" transform="rotate(137 197.1 179.2)" fill="url(#r2)" stroke="#9c6d7a" stroke-opacity=".35" stroke-width="1"/><ellipse cx="163.2" cy="193.9" rx="66.0" ry="48.0" transform="rotate(177 163.2 193.9)" fill="url(#r2)" stroke="#9c6d7a" stroke-opacity=".35" stroke-width="1"/><ellipse cx="127.8" cy="183.4" rx="66.0" ry="48.0" transform="rotate(217 127.8 183.4)" fill="url(#r2)" stroke="#9c6d7a" stroke-opacity=".35" stroke-width="1"/><ellipse cx="107.5" cy="152.5" rx="66.0" ry="48.0" transform="rotate(257 107.5 152.5)" fill="url(#r2)" stroke="#9c6d7a" stroke-opacity=".35" stroke-width="1"/><ellipse cx="111.7" cy="115.8" rx="66.0" ry="48.0" transform="rotate(297 111.7 115.8)" fill="url(#r2)" stroke="#9c6d7a" stroke-opacity=".35" stroke-width="1"/><ellipse cx="138.6" cy="90.4" rx="66.0" ry="48.0" transform="rotate(337 138.6 90.4)" fill="url(#r2)" stroke="#9c6d7a" stroke-opacity=".35" stroke-width="1"/><ellipse cx="175.4" cy="88.3" rx="66.0" ry="48.0" transform="rotate(377 175.4 88.3)" fill="url(#r2)" stroke="#9c6d7a" stroke-opacity=".35" stroke-width="1"/><ellipse cx="205.1" cy="110.3" rx="66.0" ry="48.0" transform="rotate(417 205.1 110.3)" fill="url(#r2)" stroke="#9c6d7a" stroke-opacity=".35" stroke-width="1"/><ellipse cx="196.1" cy="161.7" rx="51.5" ry="37.4" transform="rotate(121 196.1 161.7)" fill="url(#r3)" stroke="#9c6d7a" stroke-opacity=".35" stroke-width="1"/><ellipse cx="170.2" cy="180.9" rx="51.5" ry="37.4" transform="rotate(166 170.2 180.9)" fill="url(#r3)" stroke="#9c6d7a" stroke-opacity=".35" stroke-width="1"/><ellipse cx="138.3" cy="176.1" rx="51.5" ry="37.4" transform="rotate(211 138.3 176.1)" fill="url(#r3)" stroke="#9c6d7a" stroke-opacity=".35" stroke-width="1"/><ellipse cx="119.1" cy="150.2" rx="51.5" ry="37.4" transform="rotate(256 119.1 150.2)" fill="url(#r3)" stroke="#9c6d7a" stroke-opacity=".35" stroke-width="1"/><ellipse cx="123.9" cy="118.3" rx="51.5" ry="37.4" transform="rotate(301 123.9 118.3)" fill="url(#r3)" stroke="#9c6d7a" stroke-opacity=".35" stroke-width="1"/><ellipse cx="149.8" cy="99.1" rx="51.5" ry="37.4" transform="rotate(346 149.8 99.1)" fill="url(#r3)" stroke="#9c6d7a" stroke-opacity=".35" stroke-width="1"/><ellipse cx="181.7" cy="103.9" rx="51.5" ry="37.4" transform="rotate(391 181.7 103.9)" fill="url(#r3)" stroke="#9c6d7a" stroke-opacity=".35" stroke-width="1"/><ellipse cx="200.9" cy="129.8" rx="51.5" ry="37.4" transform="rotate(436 200.9 129.8)" fill="url(#r3)" stroke="#9c6d7a" stroke-opacity=".35" stroke-width="1"/><ellipse cx="186.4" cy="156.9" rx="38.3" ry="27.8" transform="rotate(123 186.4 156.9)" fill="url(#r4)" stroke="#9c6d7a" stroke-opacity=".35" stroke-width="1"/><ellipse cx="163.2" cy="171.2" rx="38.3" ry="27.8" transform="rotate(174 163.2 171.2)" fill="url(#r4)" stroke="#9c6d7a" stroke-opacity=".35" stroke-width="1"/><ellipse cx="137.7" cy="161.9" rx="38.3" ry="27.8" transform="rotate(226 137.7 161.9)" fill="url(#r4)" stroke="#9c6d7a" stroke-opacity=".35" stroke-width="1"/><ellipse cx="128.9" cy="136.2" rx="38.3" ry="27.8" transform="rotate(277 128.9 136.2)" fill="url(#r4)" stroke="#9c6d7a" stroke-opacity=".35" stroke-width="1"/><ellipse cx="143.6" cy="113.3" rx="38.3" ry="27.8" transform="rotate(328 143.6 113.3)" fill="url(#r4)" stroke="#9c6d7a" stroke-opacity=".35" stroke-width="1"/><ellipse cx="170.6" cy="110.5" rx="38.3" ry="27.8" transform="rotate(380 170.6 110.5)" fill="url(#r4)" stroke="#9c6d7a" stroke-opacity=".35" stroke-width="1"/><ellipse cx="189.7" cy="129.9" rx="38.3" ry="27.8" transform="rotate(431 189.7 129.9)" fill="url(#r4)" stroke="#9c6d7a" stroke-opacity=".35" stroke-width="1"/><ellipse cx="178.9" cy="150.4" rx="26.4" ry="19.2" transform="rotate(119 178.9 150.4)" fill="url(#r5)" stroke="#9c6d7a" stroke-opacity=".35" stroke-width="1"/><ellipse cx="160.5" cy="161.6" rx="26.4" ry="19.2" transform="rotate(179 160.5 161.6)" fill="url(#r5)" stroke="#9c6d7a" stroke-opacity=".35" stroke-width="1"/><ellipse cx="141.5" cy="151.2" rx="26.4" ry="19.2" transform="rotate(239 141.5 151.2)" fill="url(#r5)" stroke="#9c6d7a" stroke-opacity=".35" stroke-width="1"/><ellipse cx="141.1" cy="129.6" rx="26.4" ry="19.2" transform="rotate(299 141.1 129.6)" fill="url(#r5)" stroke="#9c6d7a" stroke-opacity=".35" stroke-width="1"/><ellipse cx="159.5" cy="118.4" rx="26.4" ry="19.2" transform="rotate(359 159.5 118.4)" fill="url(#r5)" stroke="#9c6d7a" stroke-opacity=".35" stroke-width="1"/><ellipse cx="178.5" cy="128.8" rx="26.4" ry="19.2" transform="rotate(419 178.5 128.8)" fill="url(#r5)" stroke="#9c6d7a" stroke-opacity=".35" stroke-width="1"/><ellipse cx="172.5" cy="143.5" rx="15.8" ry="11.5" transform="rotate(106 172.5 143.5)" fill="url(#r6)" stroke="#9c6d7a" stroke-opacity=".35" stroke-width="1"/><ellipse cx="160.6" cy="152.9" rx="15.8" ry="11.5" transform="rotate(178 160.6 152.9)" fill="url(#r6)" stroke="#9c6d7a" stroke-opacity=".35" stroke-width="1"/><ellipse cx="147.9" cy="144.5" rx="15.8" ry="11.5" transform="rotate(250 147.9 144.5)" fill="url(#r6)" stroke="#9c6d7a" stroke-opacity=".35" stroke-width="1"/><ellipse cx="151.9" cy="129.8" rx="15.8" ry="11.5" transform="rotate(322 151.9 129.8)" fill="url(#r6)" stroke="#9c6d7a" stroke-opacity=".35" stroke-width="1"/><ellipse cx="167.2" cy="129.2" rx="15.8" ry="11.5" transform="rotate(394 167.2 129.2)" fill="url(#r6)" stroke="#9c6d7a" stroke-opacity=".35" stroke-width="1"/><circle cx="160" cy="140" r="14.399999999999999" fill="#9c6d7a"/><ellipse cx="397.1" cy="219.3" rx="57.8" ry="42.0" transform="rotate(128 397.1 219.3)" fill="url(#r7)" stroke="#996875" stroke-opacity=".35" stroke-width="1"/><ellipse cx="369.6" cy="236.3" rx="57.8" ry="42.0" transform="rotate(168 369.6 236.3)" fill="url(#r7)" stroke="#996875" stroke-opacity=".35" stroke-width="1"/><ellipse cx="337.6" cy="231.6" rx="57.8" ry="42.0" transform="rotate(208 337.6 231.6)" fill="url(#r7)" stroke="#996875" stroke-opacity=".35" stroke-width="1"/><ellipse cx="316.1" cy="207.4" rx="57.8" ry="42.0" transform="rotate(248 316.1 207.4)" fill="url(#r7)" stroke="#996875" stroke-opacity=".35" stroke-width="1"/><ellipse cx="315.1" cy="175.1" rx="57.8" ry="42.0" transform="rotate(288 315.1 175.1)" fill="url(#r7)" stroke="#996875" stroke-opacity=".35" stroke-width="1"/><ellipse cx="335.2" cy="149.8" rx="57.8" ry="42.0" transform="rotate(328 335.2 149.8)" fill="url(#r7)" stroke="#996875" stroke-opacity=".35" stroke-width="1"/><ellipse cx="366.8" cy="143.2" rx="57.8" ry="42.0" transform="rotate(368 366.8 143.2)" fill="url(#r7)" stroke="#996875" stroke-opacity=".35" stroke-width="1"/><ellipse cx="395.3" cy="158.6" rx="57.8" ry="42.0" transform="rotate(408 395.3 158.6)" fill="url(#r7)" stroke="#996875" stroke-opacity=".35" stroke-width="1"/><ellipse cx="407.2" cy="188.6" rx="57.8" ry="42.0" transform="rotate(448 407.2 188.6)" fill="url(#r7)" stroke="#996875" stroke-opacity=".35" stroke-width="1"/><ellipse cx="396.6" cy="194.1" rx="45.0" ry="32.8" transform="rotate(96 396.6 194.1)" fill="url(#r8)" stroke="#996875" stroke-opacity=".35" stroke-width="1"/><ellipse cx="383.0" cy="218.8" rx="45.0" ry="32.8" transform="rotate(141 383.0 218.8)" fill="url(#r8)" stroke="#996875" stroke-opacity=".35" stroke-width="1"/><ellipse cx="355.9" cy="226.6" rx="45.0" ry="32.8" transform="rotate(186 355.9 226.6)" fill="url(#r8)" stroke="#996875" stroke-opacity=".35" stroke-width="1"/><ellipse cx="331.2" cy="213.0" rx="45.0" ry="32.8" transform="rotate(231 331.2 213.0)" fill="url(#r8)" stroke="#996875" stroke-opacity=".35" stroke-width="1"/><ellipse cx="323.4" cy="185.9" rx="45.0" ry="32.8" transform="rotate(276 323.4 185.9)" fill="url(#r8)" stroke="#996875" stroke-opacity=".35" stroke-width="1"/><ellipse cx="337.0" cy="161.2" rx="45.0" ry="32.8" transform="rotate(321 337.0 161.2)" fill="url(#r8)" stroke="#996875" stroke-opacity=".35" stroke-width="1"/><ellipse cx="364.1" cy="153.4" rx="45.0" ry="32.8" transform="rotate(366 364.1 153.4)" fill="url(#r8)" stroke="#996875" stroke-opacity=".35" stroke-width="1"/><ellipse cx="388.8" cy="167.0" rx="45.0" ry="32.8" transform="rotate(411 388.8 167.0)" fill="url(#r8)" stroke="#996875" stroke-opacity=".35" stroke-width="1"/><ellipse cx="387.4" cy="190.6" rx="33.5" ry="24.4" transform="rotate(91 387.4 190.6)" fill="url(#r9)" stroke="#996875" stroke-opacity=".35" stroke-width="1"/><ellipse cx="376.6" cy="211.8" rx="33.5" ry="24.4" transform="rotate(143 376.6 211.8)" fill="url(#r9)" stroke="#996875" stroke-opacity=".35" stroke-width="1"/><ellipse cx="353.3" cy="216.6" rx="33.5" ry="24.4" transform="rotate(194 353.3 216.6)" fill="url(#r9)" stroke="#996875" stroke-opacity=".35" stroke-width="1"/><ellipse cx="335.1" cy="201.4" rx="33.5" ry="24.4" transform="rotate(246 335.1 201.4)" fill="url(#r9)" stroke="#996875" stroke-opacity=".35" stroke-width="1"/><ellipse cx="335.6" cy="177.6" rx="33.5" ry="24.4" transform="rotate(297 335.6 177.6)" fill="url(#r9)" stroke="#996875" stroke-opacity=".35" stroke-width="1"/><ellipse cx="354.5" cy="163.2" rx="33.5" ry="24.4" transform="rotate(348 354.5 163.2)" fill="url(#r9)" stroke="#996875" stroke-opacity=".35" stroke-width="1"/><ellipse cx="377.5" cy="168.9" rx="33.5" ry="24.4" transform="rotate(400 377.5 168.9)" fill="url(#r9)" stroke="#996875" stroke-opacity=".35" stroke-width="1"/><ellipse cx="369.5" cy="206.4" rx="23.1" ry="16.8" transform="rotate(150 369.5 206.4)" fill="url(#r10)" stroke="#996875" stroke-opacity=".35" stroke-width="1"/><ellipse cx="350.6" cy="206.4" rx="23.1" ry="16.8" transform="rotate(210 350.6 206.4)" fill="url(#r10)" stroke="#996875" stroke-opacity=".35" stroke-width="1"/><ellipse cx="341.1" cy="190.0" rx="23.1" ry="16.8" transform="rotate(270 341.1 190.0)" fill="url(#r10)" stroke="#996875" stroke-opacity=".35" stroke-width="1"/><ellipse cx="350.5" cy="173.6" rx="23.1" ry="16.8" transform="rotate(330 350.5 173.6)" fill="url(#r10)" stroke="#996875" stroke-opacity=".35" stroke-width="1"/><ellipse cx="369.4" cy="173.6" rx="23.1" ry="16.8" transform="rotate(390 369.4 173.6)" fill="url(#r10)" stroke="#996875" stroke-opacity=".35" stroke-width="1"/><ellipse cx="378.9" cy="190.0" rx="23.1" ry="16.8" transform="rotate(450 378.9 190.0)" fill="url(#r10)" stroke="#996875" stroke-opacity=".35" stroke-width="1"/><ellipse cx="371.0" cy="192.6" rx="13.9" ry="10.1" transform="rotate(103 371.0 192.6)" fill="url(#r11)" stroke="#996875" stroke-opacity=".35" stroke-width="1"/><ellipse cx="360.9" cy="201.3" rx="13.9" ry="10.1" transform="rotate(175 360.9 201.3)" fill="url(#r11)" stroke="#996875" stroke-opacity=".35" stroke-width="1"/><ellipse cx="349.5" cy="194.4" rx="13.9" ry="10.1" transform="rotate(247 349.5 194.4)" fill="url(#r11)" stroke="#996875" stroke-opacity=".35" stroke-width="1"/><ellipse cx="352.6" cy="181.4" rx="13.9" ry="10.1" transform="rotate(319 352.6 181.4)" fill="url(#r11)" stroke="#996875" stroke-opacity=".35" stroke-width="1"/><ellipse cx="365.9" cy="180.3" rx="13.9" ry="10.1" transform="rotate(391 365.9 180.3)" fill="url(#r11)" stroke="#996875" stroke-opacity=".35" stroke-width="1"/><circle cx="360" cy="190" r="12.6" fill="#996875"/><ellipse cx="108.8" cy="281.7" rx="44.0" ry="32.0" transform="rotate(127 108.8 281.7)" fill="url(#r12)" stroke="#9e7781" stroke-opacity=".35" stroke-width="1"/><ellipse cx="88.1" cy="295.1" rx="44.0" ry="32.0" transform="rotate(167 88.1 295.1)" fill="url(#r12)" stroke="#9e7781" stroke-opacity=".35" stroke-width="1"/><ellipse cx="63.7" cy="292.1" rx="44.0" ry="32.0" transform="rotate(207 63.7 292.1)" fill="url(#r12)" stroke="#9e7781" stroke-opacity=".35" stroke-width="1"/><ellipse cx="46.9" cy="274.1" rx="44.0" ry="32.0" transform="rotate(247 46.9 274.1)" fill="url(#r12)" stroke="#9e7781" stroke-opacity=".35" stroke-width="1"/><ellipse cx="45.6" cy="249.5" rx="44.0" ry="32.0" transform="rotate(287 45.6 249.5)" fill="url(#r12)" stroke="#9e7781" stroke-opacity=".35" stroke-width="1"/><ellipse cx="60.4" cy="229.8" rx="44.0" ry="32.0" transform="rotate(327 60.4 229.8)" fill="url(#r12)" stroke="#9e7781" stroke-opacity=".35" stroke-width="1"/><ellipse cx="84.4" cy="224.3" rx="44.0" ry="32.0" transform="rotate(367 84.4 224.3)" fill="url(#r12)" stroke="#9e7781" stroke-opacity=".35" stroke-width="1"/><ellipse cx="106.3" cy="235.4" rx="44.0" ry="32.0" transform="rotate(407 106.3 235.4)" fill="url(#r12)" stroke="#9e7781" stroke-opacity=".35" stroke-width="1"/><ellipse cx="116.0" cy="258.1" rx="44.0" ry="32.0" transform="rotate(447 116.0 258.1)" fill="url(#r12)" stroke="#9e7781" stroke-opacity=".35" stroke-width="1"/><ellipse cx="100.6" cy="279.0" rx="34.3" ry="25.0" transform="rotate(133 100.6 279.0)" fill="url(#r13)" stroke="#9e7781" stroke-opacity=".35" stroke-width="1"/><ellipse cx="81.1" cy="288.1" rx="34.3" ry="25.0" transform="rotate(178 81.1 288.1)" fill="url(#r13)" stroke="#9e7781" stroke-opacity=".35" stroke-width="1"/><ellipse cx="61.0" cy="280.6" rx="34.3" ry="25.0" transform="rotate(223 61.0 280.6)" fill="url(#r13)" stroke="#9e7781" stroke-opacity=".35" stroke-width="1"/><ellipse cx="51.9" cy="261.1" rx="34.3" ry="25.0" transform="rotate(268 51.9 261.1)" fill="url(#r13)" stroke="#9e7781" stroke-opacity=".35" stroke-width="1"/><ellipse cx="59.4" cy="241.0" rx="34.3" ry="25.0" transform="rotate(313 59.4 241.0)" fill="url(#r13)" stroke="#9e7781" stroke-opacity=".35" stroke-width="1"/><ellipse cx="78.9" cy="231.9" rx="34.3" ry="25.0" transform="rotate(358 78.9 231.9)" fill="url(#r13)" stroke="#9e7781" stroke-opacity=".35" stroke-width="1"/><ellipse cx="99.0" cy="239.4" rx="34.3" ry="25.0" transform="rotate(403 99.0 239.4)" fill="url(#r13)" stroke="#9e7781" stroke-opacity=".35" stroke-width="1"/><ellipse cx="108.1" cy="258.9" rx="34.3" ry="25.0" transform="rotate(448 108.1 258.9)" fill="url(#r13)" stroke="#9e7781" stroke-opacity=".35" stroke-width="1"/><ellipse cx="94.5" cy="275.0" rx="25.5" ry="18.6" transform="rotate(136 94.5 275.0)" fill="url(#r14)" stroke="#9e7781" stroke-opacity=".35" stroke-width="1"/><ellipse cx="77.3" cy="280.7" rx="25.5" ry="18.6" transform="rotate(187 77.3 280.7)" fill="url(#r14)" stroke="#9e7781" stroke-opacity=".35" stroke-width="1"/><ellipse cx="62.1" cy="270.8" rx="25.5" ry="18.6" transform="rotate(239 62.1 270.8)" fill="url(#r14)" stroke="#9e7781" stroke-opacity=".35" stroke-width="1"/><ellipse cx="60.4" cy="252.8" rx="25.5" ry="18.6" transform="rotate(290 60.4 252.8)" fill="url(#r14)" stroke="#9e7781" stroke-opacity=".35" stroke-width="1"/><ellipse cx="73.4" cy="240.2" rx="25.5" ry="18.6" transform="rotate(342 73.4 240.2)" fill="url(#r14)" stroke="#9e7781" stroke-opacity=".35" stroke-width="1"/><ellipse cx="91.4" cy="242.5" rx="25.5" ry="18.6" transform="rotate(393 91.4 242.5)" fill="url(#r14)" stroke="#9e7781" stroke-opacity=".35" stroke-width="1"/><ellipse cx="100.8" cy="258.0" rx="25.5" ry="18.6" transform="rotate(444 100.8 258.0)" fill="url(#r14)" stroke="#9e7781" stroke-opacity=".35" stroke-width="1"/><ellipse cx="94.3" cy="261.3" rx="17.6" ry="12.8" transform="rotate(95 94.3 261.3)" fill="url(#r15)" stroke="#9e7781" stroke-opacity=".35" stroke-width="1"/><ellipse cx="86.1" cy="273.1" rx="17.6" ry="12.8" transform="rotate(155 86.1 273.1)" fill="url(#r15)" stroke="#9e7781" stroke-opacity=".35" stroke-width="1"/><ellipse cx="71.7" cy="271.8" rx="17.6" ry="12.8" transform="rotate(215 71.7 271.8)" fill="url(#r15)" stroke="#9e7781" stroke-opacity=".35" stroke-width="1"/><ellipse cx="65.7" cy="258.7" rx="17.6" ry="12.8" transform="rotate(275 65.7 258.7)" fill="url(#r15)" stroke="#9e7781" stroke-opacity=".35" stroke-width="1"/><ellipse cx="73.9" cy="246.9" rx="17.6" ry="12.8" transform="rotate(335 73.9 246.9)" fill="url(#r15)" stroke="#9e7781" stroke-opacity=".35" stroke-width="1"/><ellipse cx="88.3" cy="248.2" rx="17.6" ry="12.8" transform="rotate(395 88.3 248.2)" fill="url(#r15)" stroke="#9e7781" stroke-opacity=".35" stroke-width="1"/><ellipse cx="86.4" cy="265.9" rx="10.6" ry="7.7" transform="rotate(133 86.4 265.9)" fill="url(#r16)" stroke="#9e7781" stroke-opacity=".35" stroke-width="1"/><ellipse cx="76.4" cy="267.9" rx="10.6" ry="7.7" transform="rotate(205 76.4 267.9)" fill="url(#r16)" stroke="#9e7781" stroke-opacity=".35" stroke-width="1"/><ellipse cx="71.4" cy="259.0" rx="10.6" ry="7.7" transform="rotate(277 71.4 259.0)" fill="url(#r16)" stroke="#9e7781" stroke-opacity=".35" stroke-width="1"/><ellipse cx="78.3" cy="251.5" rx="10.6" ry="7.7" transform="rotate(349 78.3 251.5)" fill="url(#r16)" stroke="#9e7781" stroke-opacity=".35" stroke-width="1"/><ellipse cx="87.5" cy="255.8" rx="10.6" ry="7.7" transform="rotate(421 87.5 255.8)" fill="url(#r16)" stroke="#9e7781" stroke-opacity=".35" stroke-width="1"/><circle cx="80" cy="260" r="9.6" fill="#9e7781"/><path d="M260.0,70.0 Q326.9,75.8 355.3,15.0 Q288.4,9.2 260.0,70.0z" fill="url(#l17)"/><path d="M260.0,70.0 L355.3,15.0" stroke="#394b23" stroke-width="1.2" opacity=".5"/></svg>