<svg xmlns="http://www.w3.org/2000/svg" viewBox="0 0 600 500" width="600" height="500"><defs><filter id="blur8" x="-50%" y="-50%" width="200%" height="200%"><feGaussianBlur stdDeviation="8"/></filter><filter id="blur20" x="-50%" y="-50%" width="200%" height="200%"><feGaussianBlur stdDeviation="20"/></filter><filter id="blur40" x="-50%" y="-50%" width="200%" height="200%"><feGaussianBlur stdDeviation="40"/></filter><filter id="blur3" x="-50%" y="-50%" width="200%" height="200%"><feGaussianBlur stdDeviation="3"/></filter><filter id="grain" x="0" y="0" width="100%" height="100%"><feTurbulence type="fractalNoise" baseFrequency=".9" numOctaves="2" stitchTiles="stitch"/><feColorMatrix values="0 0 0 0 0  0 0 0 0 0  0 0 0 0 0  0 0 0 .06 0"/></filter><linearGradient id="l1" x1="0.500" y1="0.000" x2="0.500" y2="1.000"><stop offset="0.0" stop-color="#fde4ec" stop-opacity="1"/><stop offset="1.0" stop-color="#fbd3df" stop-opacity="1"/></linearGradient><radialGradient id="r2" cx="0.5" cy="0.5" r="0.5"><stop offset="0" stop-color="#ffffff" stop-opacity="0.7"/><stop offset="1" stop-color="#ffffff" stop-opacity="0"/></radialGradient><linearGradient id="l3" x1="0.500" y1="0.000" x2="0.500" y2="1.000"><stop offset="0" stop-color="#ffffff" stop-opacity="0.6"/><stop offset="1" stop-color="#ffffff" stop-opacity="0"/></linearGradient><linearGradient id="l4" x1="0.000" y1="0.500" x2="1.000" y2="0.500"><stop offset="0.0" stop-color="#bd8175" stop-opacity="1"/><stop offset="0.25" stop-color="#f3aea0" stop-opacity="1"/><stop offset="0.5" stop-color="#f7c4bb" stop-opacity="1"/><stop offset="0.75" stop-color="#f2a596" stop-opacity="1"/><stop offset="1.0" stop-color="#a97469" stop-opacity="1"/></linearGradient><linearGradient id="l5" x1="0.000" y1="0.500" x2="1.000" y2="0.500"><stop offset="0.0" stop-color="#a38d8d" stop-opacity="1"/><stop offset="0.3333333333333333" stop-color="#e9c9c9" stop-opacity="1"/><stop offset="0.6666666666666666" stop-color="#ffffff" stop-opacity="1"/><stop offset="1.0" stop-color="#af9797" stop-opacity="1"/></linearGradient><linearGradient id="l6" x1="0.000" y1="0.500" x2="1.000" y2="0.500"><stop offset="0.0" stop-color="#bbb" stop-opacity="1"/><stop offset="0.5" stop-color="#f4f4f4" stop-opacity="1"/><stop offset="1.0" stop-color="#999" stop-opacity="1"/></linearGradient><linearGradient id="l7" x1="0.500" y1="0.000" x2="0.500" y2="1.000"><stop offset="0.0" stop-color="#1d1d1d" stop-opacity="1"/><stop offset="0.5" stop-color="#5a5a5a" stop-opacity="1"/><stop offset="1.0" stop-color="#111" stop-opacity="1"/></linearGradient><linearGradient id="l8" x1="0.000" y1="0.500" x2="1.000" y2="0.500"><stop offset="0.0" stop-color="#aa767f" stop-opacity="1"/><stop offset="0.3333333333333333" stop-color="#f3a8b6" stop-opacity="1"/><stop offset="0.6666666666666666" stop-color="#f7c6d0" stop-opacity="1"/><stop offset="1.0" stop-color="#b67e88" stop-opacity="1"/></linearGradient><linearGradient id="l9" x1="0.000" y1="0.500" x2="1.000" y2="0.500"><stop offset="0.0" stop-color="#ba949b" stop-opacity="1"/><stop offset="0.25" stop-color="#f8c6cf" stop-opacity="1"/><stop offset="0.5" stop-color="#fbdde2" stop-opacity="1"/><stop offset="0.75" stop-color="#f8c6cf" stop-opacity="1"/><stop offset="1.0" stop-color="#ae8b91" stop-opacity="1"/></linearGradient><radialGradient id="r10" cx="0.4" cy="0.35" r="0.5"><stop offset="0.0" stop-color="#f8d2b0" stop-opacity="1"/><stop offset="0.5" stop-color="#ebb388" stop-opacity="1"/><stop offset="1.0" stop-color="#c98a5e" stop-opacity="1"/></radialGradient><radialGradient id="r11" cx="0.5" cy="0.5" r="0.5" fx="0.4" fy="0.35"><stop offset="0" stop-color="#fac6d4" stop-opacity="1"/><stop offset="0.6" stop-color="#f7a8bd" stop-opacity="1"/><stop offset="1" stop-color="#a16d7b" stop-opacity="1"/></radialGradient><radialGradient id="r12" cx="0.5" cy="0.5" r="0.5" fx="0.4" fy="0.35"><stop offset="0" stop-color="#fac6d4" stop-opacity="1"/><stop offset="0.6" stop-color="#f7a8bd" stop-opacity="1"/><stop offset="1" stop-color="#a16d7b" stop-opacity="1"/></radialGradient><radialGradient id="r13" cx="0.5" cy="0.5" r="0.5" fx="0.4" fy="0.35"><stop offset="0" stop-color="#fac6d4" stop-opacity="1"/><stop offset="0.6" stop-color="#f7a8bd" stop-opacity="1"/><stop offset="1" stop-color="#a16d7b" stop-opacity="1"/></radialGradient><radialGradient id="r14" cx="0.5" cy="0.5" r="0.5" fx="0.4" fy="0.35"><stop offset="0" stop-color="#fac6d4" stop-opacity="1"/><stop offset="0.6" stop-color="#f7a8bd" stop-opacity="1"/><stop offset="1" stop-color="#a16d7b" stop-opacity="1"/></radialGradient><radialGradient id="r15" cx="0.5" cy="0.5" r="0.5" fx="0.4" fy="0.35"><stop offset="0" stop-color="#fac6d4" stop-opacity="1"/><stop offset="0.6" stop-color="#f7a8bd" stop-opacity="1"/><stop offset="1" stop-color="#a16d7b" stop-opacity="1"/></radialGradient><radialGradient id="r16" cx="0.5" cy="0.5" r="0.5" fx="0.4" fy="0.35"><stop offset="0" stop-color="#f8bdcd" stop-opacity="1"/><stop offset="0.6" stop-color="#f49ab2" stop-opacity="1"/><stop offset="1" stop-color="#9f6474" stop-opacity="1"/></radialGradient><radialGradient id="r17" cx="0.5" cy="0.5" r="0.5" fx="0.4" fy="0.35"><stop offset="0" stop-color="#f8bdcd" stop-opacity="1"/><stop offset="0.6" stop-color="#f49ab2" stop-opacity="1"/><stop offset="1" stop-color="#9f6474" stop-opacity="1"/></radialGradient><radialGradient id="r18" cx="0.5" cy="0.5" r="0.5" fx="0.4" fy="0.35"><stop offset="0" stop-color="#f8bdcd" stop-opacity="1"/><stop offset="0.6" stop-color="#f49ab2" stop-opacity="1"/><stop offset="1" stop-color="#9f6474" stop-opacity="1"/></radialGradient><radialGradient id="r19" cx="0.5" cy="0.5" r="0.5" fx="0.4" fy="0.35"><stop offset="0" stop-color="#f8bdcd" stop-opacity="1"/><stop offset="0.6" stop-color="#f49ab2" stop-opacity="1"/><stop offset="1" stop-color="#9f6474" stop-opacity="1"/></radialGradient><radialGradient id="r20" cx="0.5" cy="0.5" r="0.5" fx="0.4" fy="0.35"><stop offset="0" stop-color="#f8bdcd" stop-opacity="1"/><stop offset="0.6" stop-color="#f49ab2" stop-opacity="1"/><stop offset="1" stop-color="#9f6474" stop-opacity="1"/></radialGradient><radialGradient id="r21" cx="0.5" cy="0.8" r="0.9"><stop offset="0" stop-color="#fde7ed" stop-opacity="1"/><stop offset="0.5" stop-color="#f9c4d2" stop-opacity="1"/><stop offset="1" stop-color="#cca1ac" stop-opacity="1"/></radialGradient><radialGradient id="r22" cx="0.5" cy="0.8" r="0.9"><stop offset="0" stop-color="#fde7ed" stop-opacity="1"/><stop offset="0.5" stop-color="#f9c4d2" stop-opacity="1"/><stop offset="1" stop-color="#cca1ac" stop-opacity="1"/></radialGradient></defs><rect width="600" height="500" fill="url(#l1)"/><circle cx="300" cy="200" r="260" fill="url(#r2)"/><rect y="400" width="600" height="100" fill="#fbe1e9"/><rect y="400" width="600" height="40" fill="url(#l3)"/><ellipse cx="300" cy="440" rx="84.0" ry="9.6" fill="#7a3b45" opacity="0.3" filter="url(#blur20)"/><rect x="240.0" y="170" width="120" height="270" rx="30.0" fill="url(#l4)"/><rect x="256.8" y="186.2" width="9.6" height="232.2" rx="5" fill="#ffffff" opacity=".35"/><rect x="252.0" y="251.0" width="96.0" height="113.39999999999999" rx="6" fill="#ffffff" opacity=".9"/><circle cx="300" cy="272.6" r="7.199999999999999" fill="#9a4a5c" opacity=".8"/><text x="300" y="305.0" font-family="Georgia, serif" font-size="16.8" font-weight="600" fill="#9a4a5c" text-anchor="middle" letter-spacing="0" opacity="1">Glowéa</text><text x="300" y="326.6" font-family="Helvetica, Arial, sans-serif" font-size="9.0" font-weight="600" fill="#9a4a5c" text-anchor="middle" letter-spacing="1" opacity="1">BODY</text><text x="300" y="342.79999999999995" font-family="Helvetica, Arial, sans-serif" font-size="9.0" font-weight="600" fill="#9a4a5c" text-anchor="middle" letter-spacing="1" opacity="1">LOTION</text><rect x="279.6" y="151.1" width="40.800000000000004" height="24.900000000000002" rx="4" fill="url(#l5)"/><rect x="292.656" y="118.69999999999999" width="14.688" height="32.4" fill="url(#l6)"/><path d="M277.56,118.69999999999999 L353.04,118.69999999999999 L353.04,109.25 L277.56,105.19999999999999z" fill="url(#l7)"/><ellipse cx="420" cy="445" rx="48.0" ry="5.6000000000000005" fill="#2f4a2a" opacity="0.3" filter="url(#blur20)"/><rect x="395.2" y="412.8" width="49.6" height="32.2" rx="6" fill="url(#l8)"/><path d="M380.0,225 L460.0,225 C460.0,318.5 444.8,366.8 444.8,412.8 L395.2,412.8 C395.2,366.8 380.0,318.5 380.0,225z" fill="url(#l9)"/><rect x="378.0" y="215" width="84" height="14" rx="2" fill="#d3a8b0"/><rect x="380.0" y="217" width="80" height="1" fill="#000" opacity=".1"/><rect x="380.0" y="219" width="80" height="1" fill="#000" opacity=".1"/><rect x="380.0" y="221" width="80" height="1" fill="#000" opacity=".1"/><rect x="380.0" y="223" width="80" height="1" fill="#000" opacity=".1"/><rect x="380.0" y="225" width="80" height="1" fill="#000" opacity=".1"/><rect x="380.0" y="227" width="80" height="1" fill="#000" opacity=".1"/><rect x="394.4" y="233.4" width="4.8" height="115.0" rx="4" fill="#ffffff" opacity=".4"/><circle cx="420" cy="247.2" r="4.8" fill="#9a4a5c" opacity=".7"/><text x="420" y="272.5" font-family="Georgia, serif" font-size="12.8" font-weight="600" fill="#9a4a5c" text-anchor="middle" letter-spacing="0" opacity="1">Glowéa</text><text x="420" y="288.6" font-family="Helvetica, Arial, sans-serif" font-size="6.800000000000001" font-weight="700" fill="#9a4a5c" text-anchor="middle" letter-spacing="1" opacity="1">BODY</text><text x="420" y="302.4" font-family="Helvetica, Arial, sans-serif" font-size="6.800000000000001" font-weight="700" fill="#9a4a5c" text-anchor="middle" letter-spacing="1" opacity="1">CREAM</text><circle cx="180" cy="400" r="55" fill="url(#r10)"/><circle cx="200" cy="426" r="3.0" fill="#b07448" opacity=".55"/><circle cx="198" cy="417" r="2.1" fill="#b07448" opacity=".55"/><circle cx="186" cy="401" r="3.1" fill="#b07448" opacity=".55"/><circle cx="184" cy="404" r="2.0" fill="#b07448" opacity=".55"/><circle cx="161" cy="413" r="3.1" fill="#b07448" opacity=".55"/><circle cx="180" cy="394" r="2.3" fill="#b07448" opacity=".55"/><circle cx="181" cy="397" r="1.6" fill="#b07448" opacity=".55"/><circle cx="148" cy="371" r="3.5" fill="#b07448" opacity=".55"/><circle cx="153" cy="399" r="2.6" fill="#b07448" opacity=".55"/><circle cx="179" cy="404" r="2.4" fill="#b07448" opacity=".55"/><circle cx="183" cy="417" r="3.5" fill="#b07448" opacity=".55"/><circle cx="176" cy="389" r="3.9" fill="#b07448" opacity=".55"/><circle cx="213" cy="407" r="3.2" fill="#b07448" opacity=".55"/><circle cx="196" cy="390" r="2.0" fill="#b07448" opacity=".55"/><circle cx="169" cy="411" r="2.3" fill="#b07448" opacity=".55"/><circle cx="137" cy="405" r="3.7" fill="#b07448" opacity=".55"/><circle cx="167" cy="396" r="3.3" fill="#b07448" opacity=".55"/><circle cx="193" cy="398" r="1.8" fill="#b07448" opacity=".55"/><circle cx="133" cy="406" r="3.3" fill="#b07448" opacity=".55"/><circle cx="171" cy="412" r="3.3" fill="#b07448" opacity=".55"/><circle cx="194" cy="440" r="1.6" fill="#b07448" opacity=".55"/><circle cx="159" cy="371" r="3.1" fill="#b07448" opacity=".55"/><circle cx="183" cy="398" r="3.7" fill="#b07448" opacity=".55"/><circle cx="219" cy="417" r="3.6" fill="#b07448" opacity=".55"/><circle cx="221" cy="419" r="2.7" fill="#b07448" opacity=".55"/><circle cx="157" cy="413" r="1.7" fill="#b07448" opacity=".55"/><circle cx="213" cy="379" r="3.6" fill="#b07448" opacity=".55"/><circle cx="193" cy="404" r="2.8" fill="#b07448" opacity=".55"/><circle cx="167" cy="410" r="3.0" fill="#b07448" opacity=".55"/><circle cx="171" cy="406" r="1.8" fill="#b07448" opacity=".55"/><circle cx="183" cy="432" r="2.2" fill="#b07448" opacity=".55"/><circle cx="196" cy="394" r="3.7" fill="#b07448" opacity=".55"/><circle cx="166" cy="390" r="3.4" fill="#b07448" opacity=".55"/><circle cx="173" cy="411" r="3.6" fill="#b07448" opacity=".55"/><circle cx="224" cy="411" r="2.7" fill="#b07448" opacity=".55"/><circle cx="149" cy="396" r="2.8" fill="#b07448" opacity=".55"/><circle cx="188" cy="401" r="3.7" fill="#b07448" opacity=".55"/><circle cx="144" cy="390" r="3.9" fill="#b07448" opacity=".55"/><circle cx="165" cy="420" r="2.9" fill="#b07448" opacity=".55"/><circle cx="180" cy="399" r="3.5" fill="#b07448" opacity=".55"/><ellipse cx="470" cy="468.0" rx="36.0" ry="8.0" fill="#a0405a" opacity="0.18" filter="url(#blur20)"/><ellipse cx="486.3" cy="447.6" rx="22.0" ry="16.0" transform="rotate(115 486.3 447.6)" fill="url(#r11)" stroke="#a16d7b" stroke-opacity=".35" stroke-width="1"/><ellipse cx="477.6" cy="456.3" rx="22.0" ry="16.0" transform="rotate(155 477.6 456.3)" fill="url(#r11)" stroke="#a16d7b" stroke-opacity=".35" stroke-width="1"/><ellipse cx="465.4" cy="457.4" rx="22.0" ry="16.0" transform="rotate(195 465.4 457.4)" fill="url(#r11)" stroke="#a16d7b" stroke-opacity=".35" stroke-width="1"/><ellipse cx="455.3" cy="450.3" rx="22.0" ry="16.0" transform="rotate(235 455.3 450.3)" fill="url(#r11)" stroke="#a16d7b" stroke-opacity=".35" stroke-width="1"/><ellipse cx="452.1" cy="438.5" rx="22.0" ry="16.0" transform="rotate(275 452.1 438.5)" fill="url(#r11)" stroke="#a16d7b" stroke-opacity=".35" stroke-width="1"/><ellipse cx="457.3" cy="427.3" rx="22.0" ry="16.0" transform="rotate(315 457.3 427.3)" fill="url(#r11)" stroke="#a16d7b" stroke-opacity=".35" stroke-width="1"/><ellipse cx="468.4" cy="422.1" rx="22.0" ry="16.0" transform="rotate(355 468.4 422.1)" fill="url(#r11)" stroke="#a16d7b" stroke-opacity=".35" stroke-width="1"/><ellipse cx="480.3" cy="425.2" rx="22.0" ry="16.0" transform="rotate(395 480.3 425.2)" fill="url(#r11)" stroke="#a16d7b" stroke-opacity=".35" stroke-width="1"/><ellipse cx="487.4" cy="435.3" rx="22.0" ry="16.0" transform="rotate(435 487.4 435.3)" fill="url(#r11)" stroke="#a16d7b" stroke-opacity=".35" stroke-width="1"/><ellipse cx="481.7" cy="447.7" rx="17.2" ry="12.5" transform="rotate(123 481.7 447.7)" fill="url(#r12)" stroke="#a16d7b" stroke-opacity=".35" stroke-width="1"/><ellipse cx="472.8" cy="453.8" rx="17.2" ry="12.5" transform="rotate(168 472.8 453.8)" fill="url(#r12)" stroke="#a16d7b" stroke-opacity=".35" stroke-width="1"/><ellipse cx="462.3" cy="451.7" rx="17.2" ry="12.5" transform="rotate(213 462.3 451.7)" fill="url(#r12)" stroke="#a16d7b" stroke-opacity=".35" stroke-width="1"/><ellipse cx="456.2" cy="442.8" rx="17.2" ry="12.5" transform="rotate(258 456.2 442.8)" fill="url(#r12)" stroke="#a16d7b" stroke-opacity=".35" stroke-width="1"/><ellipse cx="458.3" cy="432.3" rx="17.2" ry="12.5" transform="rotate(303 458.3 432.3)" fill="url(#r12)" stroke="#a16d7b" stroke-opacity=".35" stroke-width="1"/><ellipse cx="467.2" cy="426.2" rx="17.2" ry="12.5" transform="rotate(348 467.2 426.2)" fill="url(#r12)" stroke="#a16d7b" stroke-opacity=".35" stroke-width="1"/><ellipse cx="477.7" cy="428.3" rx="17.2" ry="12.5" transform="rotate(393 477.7 428.3)" fill="url(#r12)" stroke="#a16d7b" stroke-opacity=".35" stroke-width="1"/><ellipse cx="483.8" cy="437.2" rx="17.2" ry="12.5" transform="rotate(438 483.8 437.2)" fill="url(#r12)" stroke="#a16d7b" stroke-opacity=".35" stroke-width="1"/><ellipse cx="477.9" cy="446.8" rx="12.8" ry="9.3" transform="rotate(131 477.9 446.8)" fill="url(#r13)" stroke="#a16d7b" stroke-opacity=".35" stroke-width="1"/><ellipse cx="469.6" cy="450.4" rx="12.8" ry="9.3" transform="rotate(182 469.6 450.4)" fill="url(#r13)" stroke="#a16d7b" stroke-opacity=".35" stroke-width="1"/><ellipse cx="461.6" cy="446.2" rx="12.8" ry="9.3" transform="rotate(234 461.6 446.2)" fill="url(#r13)" stroke="#a16d7b" stroke-opacity=".35" stroke-width="1"/><ellipse cx="459.9" cy="437.3" rx="12.8" ry="9.3" transform="rotate(285 459.9 437.3)" fill="url(#r13)" stroke="#a16d7b" stroke-opacity=".35" stroke-width="1"/><ellipse cx="465.9" cy="430.4" rx="12.8" ry="9.3" transform="rotate(337 465.9 430.4)" fill="url(#r13)" stroke="#a16d7b" stroke-opacity=".35" stroke-width="1"/><ellipse cx="474.9" cy="430.8" rx="12.8" ry="9.3" transform="rotate(388 474.9 430.8)" fill="url(#r13)" stroke="#a16d7b" stroke-opacity=".35" stroke-width="1"/><ellipse cx="480.3" cy="438.1" rx="12.8" ry="9.3" transform="rotate(439 480.3 438.1)" fill="url(#r13)" stroke="#a16d7b" stroke-opacity=".35" stroke-width="1"/><ellipse cx="474.0" cy="446.0" rx="8.8" ry="6.4" transform="rotate(147 474.0 446.0)" fill="url(#r14)" stroke="#a16d7b" stroke-opacity=".35" stroke-width="1"/><ellipse cx="466.8" cy="446.4" rx="8.8" ry="6.4" transform="rotate(207 466.8 446.4)" fill="url(#r14)" stroke="#a16d7b" stroke-opacity=".35" stroke-width="1"/><ellipse cx="462.8" cy="440.4" rx="8.8" ry="6.4" transform="rotate(267 462.8 440.4)" fill="url(#r14)" stroke="#a16d7b" stroke-opacity=".35" stroke-width="1"/><ellipse cx="466.0" cy="434.0" rx="8.8" ry="6.4" transform="rotate(327 466.0 434.0)" fill="url(#r14)" stroke="#a16d7b" stroke-opacity=".35" stroke-width="1"/><ellipse cx="473.2" cy="433.6" rx="8.8" ry="6.4" transform="rotate(387 473.2 433.6)" fill="url(#r14)" stroke="#a16d7b" stroke-opacity=".35" stroke-width="1"/><ellipse cx="477.2" cy="439.6" rx="8.8" ry="6.4" transform="rotate(447 477.2 439.6)" fill="url(#r14)" stroke="#a16d7b" stroke-opacity=".35" stroke-width="1"/><ellipse cx="472.6" cy="443.5" rx="5.3" ry="3.8" transform="rotate(143 472.6 443.5)" fill="url(#r15)" stroke="#a16d7b" stroke-opacity=".35" stroke-width="1"/><ellipse cx="467.5" cy="443.5" rx="5.3" ry="3.8" transform="rotate(215 467.5 443.5)" fill="url(#r15)" stroke="#a16d7b" stroke-opacity=".35" stroke-width="1"/><ellipse cx="465.9" cy="438.7" rx="5.3" ry="3.8" transform="rotate(287 465.9 438.7)" fill="url(#r15)" stroke="#a16d7b" stroke-opacity=".35" stroke-width="1"/><ellipse cx="469.9" cy="435.7" rx="5.3" ry="3.8" transform="rotate(359 469.9 435.7)" fill="url(#r15)" stroke="#a16d7b" stroke-opacity=".35" stroke-width="1"/><ellipse cx="474.1" cy="438.6" rx="5.3" ry="3.8" transform="rotate(431 474.1 438.6)" fill="url(#r15)" stroke="#a16d7b" stroke-opacity=".35" stroke-width="1"/><circle cx="470" cy="440" r="4.8" fill="#a16d7b"/><ellipse cx="110" cy="465.2" rx="32.4" ry="7.2" fill="#a0405a" opacity="0.18" filter="url(#blur20)"/><ellipse cx="123.8" cy="448.5" rx="19.8" ry="14.4" transform="rotate(122 123.8 448.5)" fill="url(#r16)" stroke="#9f6474" stroke-opacity=".35" stroke-width="1"/><ellipse cx="115.1" cy="455.4" rx="19.8" ry="14.4" transform="rotate(162 115.1 455.4)" fill="url(#r16)" stroke="#9f6474" stroke-opacity=".35" stroke-width="1"/><ellipse cx="104.0" cy="455.0" rx="19.8" ry="14.4" transform="rotate(202 104.0 455.0)" fill="url(#r16)" stroke="#9f6474" stroke-opacity=".35" stroke-width="1"/><ellipse cx="95.7" cy="447.7" rx="19.8" ry="14.4" transform="rotate(242 95.7 447.7)" fill="url(#r16)" stroke="#9f6474" stroke-opacity=".35" stroke-width="1"/><ellipse cx="94.1" cy="436.7" rx="19.8" ry="14.4" transform="rotate(282 94.1 436.7)" fill="url(#r16)" stroke="#9f6474" stroke-opacity=".35" stroke-width="1"/><ellipse cx="100.0" cy="427.3" rx="19.8" ry="14.4" transform="rotate(322 100.0 427.3)" fill="url(#r16)" stroke="#9f6474" stroke-opacity=".35" stroke-width="1"/><ellipse cx="110.5" cy="423.8" rx="19.8" ry="14.4" transform="rotate(362 110.5 423.8)" fill="url(#r16)" stroke="#9f6474" stroke-opacity=".35" stroke-width="1"/><ellipse cx="120.8" cy="427.9" rx="19.8" ry="14.4" transform="rotate(402 120.8 427.9)" fill="url(#r16)" stroke="#9f6474" stroke-opacity=".35" stroke-width="1"/><ellipse cx="126.0" cy="437.7" rx="19.8" ry="14.4" transform="rotate(442 126.0 437.7)" fill="url(#r16)" stroke="#9f6474" stroke-opacity=".35" stroke-width="1"/><ellipse cx="120.1" cy="447.6" rx="15.4" ry="11.2" transform="rotate(127 120.1 447.6)" fill="url(#r17)" stroke="#9f6474" stroke-opacity=".35" stroke-width="1"/><ellipse cx="111.8" cy="452.5" rx="15.4" ry="11.2" transform="rotate(172 111.8 452.5)" fill="url(#r17)" stroke="#9f6474" stroke-opacity=".35" stroke-width="1"/><ellipse cx="102.4" cy="450.1" rx="15.4" ry="11.2" transform="rotate(217 102.4 450.1)" fill="url(#r17)" stroke="#9f6474" stroke-opacity=".35" stroke-width="1"/><ellipse cx="97.5" cy="441.8" rx="15.4" ry="11.2" transform="rotate(262 97.5 441.8)" fill="url(#r17)" stroke="#9f6474" stroke-opacity=".35" stroke-width="1"/><ellipse cx="99.9" cy="432.4" rx="15.4" ry="11.2" transform="rotate(307 99.9 432.4)" fill="url(#r17)" stroke="#9f6474" stroke-opacity=".35" stroke-width="1"/><ellipse cx="108.2" cy="427.5" rx="15.4" ry="11.2" transform="rotate(352 108.2 427.5)" fill="url(#r17)" stroke="#9f6474" stroke-opacity=".35" stroke-width="1"/><ellipse cx="117.6" cy="429.9" rx="15.4" ry="11.2" transform="rotate(397 117.6 429.9)" fill="url(#r17)" stroke="#9f6474" stroke-opacity=".35" stroke-width="1"/><ellipse cx="122.5" cy="438.2" rx="15.4" ry="11.2" transform="rotate(442 122.5 438.2)" fill="url(#r17)" stroke="#9f6474" stroke-opacity=".35" stroke-width="1"/><ellipse cx="118.5" cy="444.0" rx="11.5" ry="8.4" transform="rotate(115 118.5 444.0)" fill="url(#r18)" stroke="#9f6474" stroke-opacity=".35" stroke-width="1"/><ellipse cx="112.2" cy="449.1" rx="11.5" ry="8.4" transform="rotate(166 112.2 449.1)" fill="url(#r18)" stroke="#9f6474" stroke-opacity=".35" stroke-width="1"/><ellipse cx="104.2" cy="447.4" rx="11.5" ry="8.4" transform="rotate(218 104.2 447.4)" fill="url(#r18)" stroke="#9f6474" stroke-opacity=".35" stroke-width="1"/><ellipse cx="100.6" cy="440.1" rx="11.5" ry="8.4" transform="rotate(269 100.6 440.1)" fill="url(#r18)" stroke="#9f6474" stroke-opacity=".35" stroke-width="1"/><ellipse cx="104.0" cy="432.7" rx="11.5" ry="8.4" transform="rotate(321 104.0 432.7)" fill="url(#r18)" stroke="#9f6474" stroke-opacity=".35" stroke-width="1"/><ellipse cx="112.0" cy="430.8" rx="11.5" ry="8.4" transform="rotate(372 112.0 430.8)" fill="url(#r18)" stroke="#9f6474" stroke-opacity=".35" stroke-width="1"/><ellipse cx="118.4" cy="435.8" rx="11.5" ry="8.4" transform="rotate(424 118.4 435.8)" fill="url(#r18)" stroke="#9f6474" stroke-opacity=".35" stroke-width="1"/><ellipse cx="116.2" cy="441.8" rx="7.9" ry="5.8" transform="rotate(106 116.2 441.8)" fill="url(#r19)" stroke="#9f6474" stroke-opacity=".35" stroke-width="1"/><ellipse cx="111.6" cy="446.3" rx="7.9" ry="5.8" transform="rotate(166 111.6 446.3)" fill="url(#r19)" stroke="#9f6474" stroke-opacity=".35" stroke-width="1"/><ellipse cx="105.4" cy="444.5" rx="7.9" ry="5.8" transform="rotate(226 105.4 444.5)" fill="url(#r19)" stroke="#9f6474" stroke-opacity=".35" stroke-width="1"/><ellipse cx="103.8" cy="438.2" rx="7.9" ry="5.8" transform="rotate(286 103.8 438.2)" fill="url(#r19)" stroke="#9f6474" stroke-opacity=".35" stroke-width="1"/><ellipse cx="108.4" cy="433.7" rx="7.9" ry="5.8" transform="rotate(346 108.4 433.7)" fill="url(#r19)" stroke="#9f6474" stroke-opacity=".35" stroke-width="1"/><ellipse cx="114.6" cy="435.5" rx="7.9" ry="5.8" transform="rotate(406 114.6 435.5)" fill="url(#r19)" stroke="#9f6474" stroke-opacity=".35" stroke-width="1"/><ellipse cx="113.9" cy="440.0" rx="4.8" ry="3.5" transform="rotate(90 113.9 440.0)" fill="url(#r20)" stroke="#9f6474" stroke-opacity=".35" stroke-width="1"/><ellipse cx="111.2" cy="443.7" rx="4.8" ry="3.5" transform="rotate(162 111.2 443.7)" fill="url(#r20)" stroke="#9f6474" stroke-opacity=".35" stroke-width="1"/><ellipse cx="106.9" cy="442.3" rx="4.8" ry="3.5" transform="rotate(234 106.9 442.3)" fill="url(#r20)" stroke="#9f6474" stroke-opacity=".35" stroke-width="1"/><ellipse cx="106.9" cy="437.7" rx="4.8" ry="3.5" transform="rotate(306 106.9 437.7)" fill="url(#r20)" stroke="#9f6474" stroke-opacity=".35" stroke-width="1"/><ellipse cx="111.2" cy="436.3" rx="4.8" ry="3.5" transform="rotate(378 111.2 436.3)" fill="url(#r20)" stroke="#9f6474" stroke-opacity=".35" stroke-width="1"/><circle cx="110" cy="440" r="4.32" fill="#9f6474"/><ellipse cx="359.0371701673513" cy="448.237330412265" rx="7.166744423641391" ry="9.555659231521856" transform="rotate(42 359.0371701673513 456.7691690118381)" fill="url(#r21)" stroke="#ae8993" stroke-opacity=".25"/><ellipse cx="359.0371701673513" cy="448.237330412265" rx="7.166744423641391" ry="9.555659231521856" transform="rotate(114 359.0371701673513 456.7691690118381)" fill="url(#r21)" stroke="#ae8993" stroke-opacity=".25"/><ellipse cx="359.0371701673513" cy="448.237330412265" rx="7.166744423641391" ry="9.555659231521856" transform="rotate(186 359.0371701673513 456.7691690118381)" fill="url(#r21)" stroke="#ae8993" stroke-opacity=".25"/><ellipse cx="359.0371701673513" cy="448.237330412265" rx="7.166744423641391" ry="9.555659231521856" transform="rotate(258 359.0371701673513 456.7691690118381)" fill="url(#r21)" stroke="#ae8993" stroke-opacity=".25"/><ellipse cx="359.0371701673513" cy="448.237330412265" rx="7.166744423641391" ry="9.555659231521856" transform="rotate(330 359.0371701673513 456.7691690118381)" fill="url(#r21)" stroke="#ae8993" stroke-opacity=".25"/><circle cx="359.0371701673513" cy="456.7691690118381" r="2.7301883518633874" fill="#f2c64a"/><circle cx="359.3" cy="460.1" r="0.5" fill="#a98b34"/><circle cx="356.6" cy="459.3" r="0.5" fill="#a98b34"/><circle cx="357.5" cy="455.2" r="0.5" fill="#a98b34"/><circle cx="363.1" cy="457.1" r="0.5" fill="#a98b34"/><circle cx="358.9" cy="459.4" r="0.5" fill="#a98b34"/><circle cx="362.2" cy="456.7" r="0.5" fill="#a98b34"/><circle cx="360.7" cy="454.0" r="0.5" fill="#a98b34"/><circle cx="357.5" cy="454.9" r="0.5" fill="#a98b34"/><ellipse cx="390.05762432864435" cy="430.373749599995" rx="6.087820006461939" ry="8.117093341949253" transform="rotate(59 390.05762432864435 437.62115436959255)" fill="url(#r22)" stroke="#ae8993" stroke-opacity=".25"/><ellipse cx="390.05762432864435" cy="430.373749599995" rx="6.087820006461939" ry="8.117093341949253" transform="rotate(131 390.05762432864435 437.62115436959255)" fill="url(#r22)" stroke="#ae8993" stroke-opacity=".25"/><ellipse cx="390.05762432864435" cy="430.373749599995" rx="6.087820006461939" ry="8.117093341949253" transform="rotate(203 390.05762432864435 437.62115436959255)" fill="url(#r22)" stroke="#ae8993" stroke-opacity=".25"/><ellipse cx="390.05762432864435" cy="430.373749599995" rx="6.087820006461939" ry="8.117093341949253" transform="rotate(275 390.05762432864435 437.62115436959255)" fill="url(#r22)" stroke="#ae8993" stroke-opacity=".25"/><ellipse cx="390.05762432864435" cy="430.373749599995" rx="6.087820006461939" ry="8.117093341949253" transform="rotate(347 390.05762432864435 437.62115436959255)" fill="url(#r22)" stroke="#ae8993" stroke-opacity=".25"/><circle cx="390.05762432864435" cy="437.62115436959255" r="2.319169526271215" fill="#f2c64a"/><circle cx="390.3" cy="440.5" r="0.4" fill="#a98b34"/><circle cx="388.0" cy="439.8" r="0.4" fill="#a98b34"/><circle cx="388.7" cy="436.3" r="0.4" fill="#a98b34"/><circle cx="393.5" cy="437.9" r="0.4" fill="#a98b34"/><circle cx="389.9" cy="439.8" r="0.4" fill="#a98b34"/><circle cx="392.8" cy="437.5" r="0.4" fill="#a98b34"/><circle cx="391.5" cy="435.3" r="0.4" fill="#a98b34"/><circle cx="388.7" cy="436.1" r="0.4" fill="#a98b34"/></svg>